<?xml version="1.0" encoding="UTF-8" standalone="no"?><svg xmlns="http://www.w3.org/2000/svg" xmlns:xlink="http://www.w3.org/1999/xlink" contentScriptType="application/ecmascript" contentStyleType="text/css" height="3556.25px" preserveAspectRatio="none" style="width:1565px;height:3556px;" version="1.1" viewBox="0 0 1565 3556" width="1565.625px" zoomAndPan="magnify"><defs/><g><ellipse cx="745.3125" cy="62.5" fill="#000000" rx="31.25" ry="31.25" style="stroke: none; stroke-width: 3.125;"/><rect fill="#FFFFFF" height="1187.5" style="stroke: #000000; stroke-width: 6.25;" width="1500" x="31.25" y="127.2491"/><path d="M512.5,130.3741 L512.5,149.1241 L481.25,180.3741 L31.25,180.3741 " fill="none" style="stroke: #000000; stroke-width: 6.25;"/><text fill="#000000" font-family="Helvetica" font-size="43.75" lengthAdjust="spacingAndGlyphs" textLength="450" x="40.625" y="164.0625">Utente non autenticato</text><rect fill="#FEFECE" height="100" rx="39.0625" ry="39.0625" style="stroke: #A80036; stroke-width: 4.6875;" width="375" x="557.8125" y="233.4991"/><text fill="#000000" font-family="Helvetica" font-size="37.5" lengthAdjust="spacingAndGlyphs" textLength="312.5" x="589.0625" y="293.6249">L'utente apre l'app</text><polygon fill="#FEFECE" points="592.1875,442.8741,898.4375,442.8741,935.9375,480.3741,898.4375,517.8741,592.1875,517.8741,554.6875,480.3741,592.1875,442.8741" style="stroke: #A80036; stroke-width: 4.6875;"/><text fill="#000000" font-family="Helvetica" font-size="34.375" lengthAdjust="spacingAndGlyphs" textLength="306.25" x="592.1875" y="489.6561">Sessione esistente?</text><text fill="#000000" font-family="Helvetica" font-size="34.375" lengthAdjust="spacingAndGlyphs" textLength="25" x="529.6875" y="472.4686">si</text><text fill="#000000" font-family="Helvetica" font-size="34.375" lengthAdjust="spacingAndGlyphs" textLength="37.5" x="935.9375" y="472.4686">no</text><rect fill="#FEFECE" height="100" rx="39.0625" ry="39.0625" style="stroke: #A80036; stroke-width: 4.6875;" width="503.125" x="125" y="699.1241"/><text fill="#000000" font-family="Helvetica" font-size="37.5" lengthAdjust="spacingAndGlyphs" textLength="440.625" x="156.25" y="759.2499">Richiesta inserimento PIN</text><polygon fill="#FEFECE" points="276.5625,908.4991,507.8125,908.4991,476.5625,1008.4991,245.3125,1008.4991" style="stroke: #A80036; stroke-width: 4.6875;"/><text fill="#000000" font-family="Helvetica" font-size="37.5" lengthAdjust="spacingAndGlyphs" textLength="200" x="276.5625" y="968.6249">Verifica PIN</text><polygon fill="#FEFECE" points="190.625,549.1241,562.5,549.1241,600,586.6241,562.5,624.1241,190.625,624.1241,153.125,586.6241,190.625,549.1241" style="stroke: #A80036; stroke-width: 4.6875;"/><text fill="#000000" font-family="Helvetica" font-size="34.375" lengthAdjust="spacingAndGlyphs" textLength="37.5" x="389.0625" y="650.5936">no</text><text fill="#000000" font-family="Helvetica" font-size="34.375" lengthAdjust="spacingAndGlyphs" textLength="371.875" x="190.625" y="595.9061">Sessione ancora valida?</text><text fill="#000000" font-family="Helvetica" font-size="34.375" lengthAdjust="spacingAndGlyphs" textLength="25" x="600" y="578.7186">si</text><polygon fill="#FEFECE" points="376.5625,1083.4991,414.0625,1120.9991,376.5625,1158.4991,339.0625,1120.9991,376.5625,1083.4991" style="stroke: #A80036; stroke-width: 4.6875;"/><rect fill="#FEFECE" height="100" rx="39.0625" ry="39.0625" style="stroke: #A80036; stroke-width: 4.6875;" width="709.375" x="759.375" y="549.1241"/><text fill="#000000" font-family="Helvetica" font-size="37.5" lengthAdjust="spacingAndGlyphs" textLength="646.875" x="790.625" y="609.2499">App presenta schermata di benvenuto</text><polygon fill="#FEFECE" points="993.75,758.4991,1265.625,758.4991,1234.375,858.4991,962.5,858.4991" style="stroke: #A80036; stroke-width: 4.6875;"/><text fill="#000000" font-family="Helvetica" font-size="37.5" lengthAdjust="spacingAndGlyphs" textLength="240.625" x="993.75" y="818.6249">Click su Login</text><polygon fill="#FEFECE" points="862.5,967.8741,1396.875,967.8741,1365.625,1067.8741,831.25,1067.8741" style="stroke: #A80036; stroke-width: 4.6875;"/><text fill="#000000" font-family="Helvetica" font-size="37.5" lengthAdjust="spacingAndGlyphs" textLength="503.125" x="862.5" y="1027.9999">Autenticazione SPID Livello 2</text><polygon fill="#FEFECE" points="745.3125,1177.2491,782.8125,1214.7491,745.3125,1252.2491,707.8125,1214.7491,745.3125,1177.2491" style="stroke: #A80036; stroke-width: 4.6875;"/><rect fill="#FFFFFF" height="846.875" style="stroke: #000000; stroke-width: 6.25;" width="703.125" x="389.0625" y="1348.2483"/><path d="M810.9375,1351.3733 L810.9375,1413.8733 L779.6875,1445.1233 L389.0625,1445.1233 " fill="none" style="stroke: #000000; stroke-width: 6.25;"/><text fill="#000000" font-family="Helvetica" font-size="43.75" lengthAdjust="spacingAndGlyphs" textLength="375" x="398.4375" y="1385.0616">Utente autenticato,</text><text fill="#000000" font-family="Helvetica" font-size="43.75" lengthAdjust="spacingAndGlyphs" textLength="390.625" x="398.4375" y="1428.8116">non ancora a bordo</text><rect fill="#FEFECE" height="137.5" rx="39.0625" ry="39.0625" style="stroke: #A80036; stroke-width: 4.6875;" width="484.375" x="503.125" y="1710.7483"/><text fill="#000000" font-family="Helvetica" font-size="37.5" lengthAdjust="spacingAndGlyphs" textLength="421.875" x="534.375" y="1770.874">Presenta ultima versione</text><text fill="#000000" font-family="Helvetica" font-size="37.5" lengthAdjust="spacingAndGlyphs" textLength="387.5" x="534.375" y="1808.374">versione ToS e privacy</text><polygon fill="#FEFECE" points="673.4375,1957.6233,848.4375,1957.6233,817.1875,2057.6233,642.1875,2057.6233" style="stroke: #A80036; stroke-width: 4.6875;"/><text fill="#000000" font-family="Helvetica" font-size="37.5" lengthAdjust="spacingAndGlyphs" textLength="143.75" x="673.4375" y="2017.749">Acccetta</text><polygon fill="#FEFECE" points="532.8125,1498.2483,957.8125,1498.2483,995.3125,1566.9983,957.8125,1635.7483,532.8125,1635.7483,495.3125,1566.9983,532.8125,1498.2483" style="stroke: #A80036; stroke-width: 4.6875;"/><text fill="#000000" font-family="Helvetica" font-size="34.375" lengthAdjust="spacingAndGlyphs" textLength="0" x="542.1875" y="1524.7177"/><text fill="#000000" font-family="Helvetica" font-size="34.375" lengthAdjust="spacingAndGlyphs" textLength="425" x="532.8125" y="1559.0927">Non ancora accettato ultima</text><text fill="#000000" font-family="Helvetica" font-size="34.375" lengthAdjust="spacingAndGlyphs" textLength="371.875" x="532.8125" y="1593.4677">versione ToS e privacy?</text><text fill="#000000" font-family="Helvetica" font-size="34.375" lengthAdjust="spacingAndGlyphs" textLength="0" x="542.1875" y="1627.8427"/><rect fill="#FFFFFF" height="1031.25" style="stroke: #000000; stroke-width: 6.25;" width="728.125" x="400" y="2228.6224"/><path d="M818.75,2231.7474 L818.75,2294.2474 L787.5,2325.4974 L400,2325.4974 " fill="none" style="stroke: #000000; stroke-width: 6.25;"/><text fill="#000000" font-family="Helvetica" font-size="43.75" lengthAdjust="spacingAndGlyphs" textLength="375" x="409.375" y="2265.4358">Utente autenticato,</text><text fill="#000000" font-family="Helvetica" font-size="43.75" lengthAdjust="spacingAndGlyphs" textLength="387.5" x="409.375" y="2309.1858">a bordo del servizio</text><polygon fill="#FEFECE" points="493.75,2528.6224,1028.125,2528.6224,996.875,2628.6224,462.5,2628.6224" style="stroke: #A80036; stroke-width: 4.6875;"/><text fill="#000000" font-family="Helvetica" font-size="37.5" lengthAdjust="spacingAndGlyphs" textLength="503.125" x="493.75" y="2588.7482">Autenticazione SPID Livello 2</text><rect fill="#FEFECE" height="100" rx="39.0625" ry="39.0625" style="stroke: #A80036; stroke-width: 4.6875;" width="556.25" x="467.1875" y="2737.9974"/><text fill="#000000" font-family="Helvetica" font-size="37.5" lengthAdjust="spacingAndGlyphs" textLength="493.75" x="498.4375" y="2798.1232">Schermata impostazione PIN</text><polygon fill="#FEFECE" points="542.1875,2947.3724,979.6875,2947.3724,948.4375,3047.3724,510.9375,3047.3724" style="stroke: #A80036; stroke-width: 4.6875;"/><text fill="#000000" font-family="Helvetica" font-size="37.5" lengthAdjust="spacingAndGlyphs" textLength="406.25" x="542.1875" y="3007.4982">Imposta e conferma PIN</text><polygon fill="#FEFECE" points="571.875,2378.6224,918.75,2378.6224,956.25,2416.1224,918.75,2453.6224,571.875,2453.6224,534.375,2416.1224,571.875,2378.6224" style="stroke: #A80036; stroke-width: 4.6875;"/><text fill="#000000" font-family="Helvetica" font-size="34.375" lengthAdjust="spacingAndGlyphs" textLength="37.5" x="757.8125" y="2480.0919">no</text><text fill="#000000" font-family="Helvetica" font-size="34.375" lengthAdjust="spacingAndGlyphs" textLength="346.875" x="571.875" y="2425.4044">Codice PIN impostato?</text><text fill="#000000" font-family="Helvetica" font-size="34.375" lengthAdjust="spacingAndGlyphs" textLength="25" x="956.25" y="2408.2169">si</text><polygon fill="#FEFECE" points="745.3125,3122.3724,782.8125,3159.8724,745.3125,3197.3724,707.8125,3159.8724,745.3125,3122.3724" style="stroke: #A80036; stroke-width: 4.6875;"/><rect fill="#FFFFFF" height="231.25" style="stroke: #000000; stroke-width: 6.25;" width="565.625" x="462.5" y="3293.3716"/><path d="M996.875,3296.4966 L996.875,3315.2466 L965.625,3346.4966 L462.5,3346.4966 " fill="none" style="stroke: #000000; stroke-width: 6.25;"/><text fill="#000000" font-family="Helvetica" font-size="43.75" lengthAdjust="spacingAndGlyphs" textLength="503.125" x="471.875" y="3330.1849">Registrazione completata</text><ellipse cx="745.3125" cy="3430.8716" fill="none" rx="31.25" ry="31.25" style="stroke: #000000; stroke-width: 3.125;"/><ellipse cx="746.875" cy="3432.4341" fill="#000000" rx="18.75" ry="18.75" style="stroke: none; stroke-width: 3.125;"/><line style="stroke: #A80036; stroke-width: 4.6875;" x1="376.5625" x2="376.5625" y1="799.1241" y2="908.4991"/><polygon fill="#A80036" points="364.0625,877.2491,376.5625,908.4991,389.0625,877.2491,376.5625,889.7491" style="stroke: #A80036; stroke-width: 3.125;"/><line style="stroke: #A80036; stroke-width: 4.6875;" x1="376.5625" x2="376.5625" y1="624.1241" y2="699.1241"/><polygon fill="#A80036" points="364.0625,667.8741,376.5625,699.1241,389.0625,667.8741,376.5625,680.3741" style="stroke: #A80036; stroke-width: 3.125;"/><line style="stroke: #A80036; stroke-width: 4.6875;" x1="600" x2="659.375" y1="586.6241" y2="586.6241"/><polygon fill="#A80036" points="646.875,822.5616,659.375,853.8116,671.875,822.5616,659.375,835.0616" style="stroke: #A80036; stroke-width: 4.6875;"/><line style="stroke: #A80036; stroke-width: 4.6875;" x1="659.375" x2="659.375" y1="586.6241" y2="1120.9991"/><line style="stroke: #A80036; stroke-width: 4.6875;" x1="659.375" x2="414.0625" y1="1120.9991" y2="1120.9991"/><polygon fill="#A80036" points="445.3125,1108.4991,414.0625,1120.9991,445.3125,1133.4991,432.8125,1120.9991" style="stroke: #A80036; stroke-width: 3.125;"/><line style="stroke: #A80036; stroke-width: 4.6875;" x1="376.5625" x2="376.5625" y1="1008.4991" y2="1083.4991"/><polygon fill="#A80036" points="364.0625,1052.2491,376.5625,1083.4991,389.0625,1052.2491,376.5625,1064.7491" style="stroke: #A80036; stroke-width: 3.125;"/><line style="stroke: #A80036; stroke-width: 4.6875;" x1="1114.0625" x2="1114.0625" y1="649.1241" y2="758.4991"/><polygon fill="#A80036" points="1101.5625,727.2491,1114.0625,758.4991,1126.5625,727.2491,1114.0625,739.7491" style="stroke: #A80036; stroke-width: 3.125;"/><line style="stroke: #A80036; stroke-width: 4.6875;" x1="1114.0625" x2="1114.0625" y1="858.4991" y2="967.8741"/><polygon fill="#A80036" points="1101.5625,936.6241,1114.0625,967.8741,1126.5625,936.6241,1114.0625,949.1241" style="stroke: #A80036; stroke-width: 3.125;"/><line style="stroke: #A80036; stroke-width: 4.6875;" x1="554.6875" x2="376.5625" y1="480.3741" y2="480.3741"/><line style="stroke: #A80036; stroke-width: 4.6875;" x1="376.5625" x2="376.5625" y1="480.3741" y2="549.1241"/><polygon fill="#A80036" points="364.0625,517.8741,376.5625,549.1241,389.0625,517.8741,376.5625,530.3741" style="stroke: #A80036; stroke-width: 3.125;"/><line style="stroke: #A80036; stroke-width: 4.6875;" x1="935.9375" x2="1114.0625" y1="480.3741" y2="480.3741"/><line style="stroke: #A80036; stroke-width: 4.6875;" x1="1114.0625" x2="1114.0625" y1="480.3741" y2="549.1241"/><polygon fill="#A80036" points="1101.5625,517.8741,1114.0625,549.1241,1126.5625,517.8741,1114.0625,530.3741" style="stroke: #A80036; stroke-width: 3.125;"/><line style="stroke: #A80036; stroke-width: 4.6875;" x1="376.5625" x2="376.5625" y1="1158.4991" y2="1214.7491"/><line style="stroke: #A80036; stroke-width: 4.6875;" x1="376.5625" x2="707.8125" y1="1214.7491" y2="1214.7491"/><polygon fill="#A80036" points="676.5625,1202.2491,707.8125,1214.7491,676.5625,1227.2491,689.0625,1214.7491" style="stroke: #A80036; stroke-width: 3.125;"/><line style="stroke: #A80036; stroke-width: 4.6875;" x1="1114.0625" x2="1114.0625" y1="1067.8741" y2="1214.7491"/><line style="stroke: #A80036; stroke-width: 4.6875;" x1="1114.0625" x2="782.8125" y1="1214.7491" y2="1214.7491"/><polygon fill="#A80036" points="814.0625,1202.2491,782.8125,1214.7491,814.0625,1227.2491,801.5625,1214.7491" style="stroke: #A80036; stroke-width: 3.125;"/><line style="stroke: #A80036; stroke-width: 4.6875;" x1="745.3125" x2="745.3125" y1="333.4991" y2="442.8741"/><polygon fill="#A80036" points="732.8125,411.6241,745.3125,442.8741,757.8125,411.6241,745.3125,424.1241" style="stroke: #A80036; stroke-width: 3.125;"/><line style="stroke: #A80036; stroke-width: 4.6875;" x1="745.3125" x2="745.3125" y1="93.75" y2="233.4991"/><polygon fill="#A80036" points="732.8125,202.2491,745.3125,233.4991,757.8125,202.2491,745.3125,214.7491" style="stroke: #A80036; stroke-width: 3.125;"/><line style="stroke: #A80036; stroke-width: 4.6875;" x1="745.3125" x2="745.3125" y1="1848.2483" y2="1957.6233"/><polygon fill="#A80036" points="732.8125,1926.3733,745.3125,1957.6233,757.8125,1926.3733,745.3125,1938.8733" style="stroke: #A80036; stroke-width: 3.125;"/><line style="stroke: #A80036; stroke-width: 4.6875;" x1="745.3125" x2="745.3125" y1="1635.7483" y2="1710.7483"/><polygon fill="#A80036" points="732.8125,1679.4983,745.3125,1710.7483,757.8125,1679.4983,745.3125,1691.9983" style="stroke: #A80036; stroke-width: 3.125;"/><line style="stroke: #A80036; stroke-width: 4.6875;" x1="745.3125" x2="745.3125" y1="2057.6233" y2="2095.1233"/><line style="stroke: #A80036; stroke-width: 4.6875;" x1="745.3125" x2="1032.8125" y1="2095.1233" y2="2095.1233"/><polygon fill="#A80036" points="1020.3125,1862.3108,1032.8125,1831.0608,1045.3125,1862.3108,1032.8125,1849.8108" style="stroke: #A80036; stroke-width: 4.6875;"/><line style="stroke: #A80036; stroke-width: 4.6875;" x1="1032.8125" x2="1032.8125" y1="1566.9983" y2="2095.1233"/><line style="stroke: #A80036; stroke-width: 4.6875;" x1="1032.8125" x2="995.3125" y1="1566.9983" y2="1566.9983"/><polygon fill="#A80036" points="1026.5625,1554.4983,995.3125,1566.9983,1026.5625,1579.4983,1014.0625,1566.9983" style="stroke: #A80036; stroke-width: 3.125;"/><line style="stroke: #A80036; stroke-width: 4.6875;" x1="495.3125" x2="457.8125" y1="1566.9983" y2="1566.9983"/><polygon fill="#A80036" points="445.3125,1818.5608,457.8125,1849.8108,470.3125,1818.5608,457.8125,1831.0608" style="stroke: #A80036; stroke-width: 4.6875;"/><line style="stroke: #A80036; stroke-width: 4.6875;" x1="457.8125" x2="457.8125" y1="1566.9983" y2="2132.6233"/><line style="stroke: #A80036; stroke-width: 4.6875;" x1="457.8125" x2="745.3125" y1="2132.6233" y2="2132.6233"/><line style="stroke: #A80036; stroke-width: 4.6875;" x1="745.3125" x2="745.3125" y1="2132.6233" y2="2378.6224"/><polygon fill="#A80036" points="732.8125,2347.3724,745.3125,2378.6224,757.8125,2347.3724,745.3125,2359.8724" style="stroke: #A80036; stroke-width: 3.125;"/><line style="stroke: #A80036; stroke-width: 4.6875;" x1="745.3125" x2="745.3125" y1="1252.2491" y2="1498.2483"/><polygon fill="#A80036" points="732.8125,1466.9983,745.3125,1498.2483,757.8125,1466.9983,745.3125,1479.4983" style="stroke: #A80036; stroke-width: 3.125;"/><line style="stroke: #A80036; stroke-width: 4.6875;" x1="745.3125" x2="745.3125" y1="2628.6224" y2="2737.9974"/><polygon fill="#A80036" points="732.8125,2706.7474,745.3125,2737.9974,757.8125,2706.7474,745.3125,2719.2474" style="stroke: #A80036; stroke-width: 3.125;"/><line style="stroke: #A80036; stroke-width: 4.6875;" x1="745.3125" x2="745.3125" y1="2837.9974" y2="2947.3724"/><polygon fill="#A80036" points="732.8125,2916.1224,745.3125,2947.3724,757.8125,2916.1224,745.3125,2928.6224" style="stroke: #A80036; stroke-width: 3.125;"/><line style="stroke: #A80036; stroke-width: 4.6875;" x1="745.3125" x2="745.3125" y1="2453.6224" y2="2528.6224"/><polygon fill="#A80036" points="732.8125,2497.3724,745.3125,2528.6224,757.8125,2497.3724,745.3125,2509.8724" style="stroke: #A80036; stroke-width: 3.125;"/><line style="stroke: #A80036; stroke-width: 4.6875;" x1="956.25" x2="1059.375" y1="2416.1224" y2="2416.1224"/><polygon fill="#A80036" points="1046.875,2756.7474,1059.375,2787.9974,1071.875,2756.7474,1059.375,2769.2474" style="stroke: #A80036; stroke-width: 4.6875;"/><line style="stroke: #A80036; stroke-width: 4.6875;" x1="1059.375" x2="1059.375" y1="2416.1224" y2="3159.8724"/><line style="stroke: #A80036; stroke-width: 4.6875;" x1="1059.375" x2="782.8125" y1="3159.8724" y2="3159.8724"/><polygon fill="#A80036" points="814.0625,3147.3724,782.8125,3159.8724,814.0625,3172.3724,801.5625,3159.8724" style="stroke: #A80036; stroke-width: 3.125;"/><line style="stroke: #A80036; stroke-width: 4.6875;" x1="745.3125" x2="745.3125" y1="3047.3724" y2="3122.3724"/><polygon fill="#A80036" points="732.8125,3091.1224,745.3125,3122.3724,757.8125,3091.1224,745.3125,3103.6224" style="stroke: #A80036; stroke-width: 3.125;"/><line style="stroke: #A80036; stroke-width: 4.6875;" x1="745.3125" x2="745.3125" y1="3197.3724" y2="3399.6216"/><polygon fill="#A80036" points="732.8125,3368.3716,745.3125,3399.6216,757.8125,3368.3716,745.3125,3380.8716" style="stroke: #A80036; stroke-width: 3.125;"/><!--
@startuml
skinparamlocked shadowing false
skinparamlocked DefaultFontName Helvetica
skinparamlocked dpi 300

|Utente non autenticato|

start

partition "Utente non autenticato" {
  :L'utente apre l'app;

  if (Sessione esistente?) then (si)
    if (Sessione ancora valida?) then (si)
    else (no)
      :Richiesta inserimento PIN;
      :Verifica PIN/
    endif
  else (no)
    :App presenta schermata di benvenuto;
    :Click su Login/
    :Autenticazione SPID Livello 2/
  endif
}

partition "Utente autenticato,\nnon ancora a bordo" {
  while (\nNon ancora accettato ultima\nversione ToS e privacy?\n)
    :Presenta ultima versione\nversione ToS e privacy;
    :Acccetta/
  endwhile
}

partition "Utente autenticato,\na bordo del servizio" {
  if (Codice PIN impostato?) then (si)
  else (no)
    :Autenticazione SPID Livello 2/
    :Schermata impostazione PIN;
    :Imposta e conferma PIN/
  endif
}

partition "Registrazione completata" {
  stop
}

@enduml

PlantUML version 1.2018.00(Thu Jan 04 20:42:56 CET 2018)
(GPL source distribution)
Java Runtime: Java(TM) SE Runtime Environment
JVM: Java HotSpot(TM) 64-Bit Server VM
Java Version: 1.8.0_66-b17
Operating System: Mac OS X
OS Version: 10.13.4
Default Encoding: UTF-8
Language: en
Country: US
--></g></svg>