<?xml version="1.0" encoding="UTF-8" standalone="no"?><svg xmlns="http://www.w3.org/2000/svg" xmlns:xlink="http://www.w3.org/1999/xlink" contentScriptType="application/ecmascript" contentStyleType="text/css" height="643.75px" preserveAspectRatio="none" style="width:1825px;height:643px;" version="1.1" viewBox="0 0 1825 643" width="1825px" zoomAndPan="magnify"><defs/><g><!--cluster CD--><rect fill="#FFFFFF" height="209.375" style="stroke: #000000; stroke-width: 4.6875;" width="1168.75" x="582.8125" y="50"/><text fill="#000000" font-family="Helvetica" font-size="43.75" font-weight="bold" lengthAdjust="spacingAndGlyphs" textLength="62.5" x="1135.9375" y="89.9384">CD</text><!--cluster PagoPA--><rect fill="#FFFFFF" height="209.375" style="stroke: #000000; stroke-width: 4.6875;" width="740.625" x="548.4375" y="400"/><text fill="#000000" font-family="Helvetica" font-size="43.75" font-weight="bold" lengthAdjust="spacingAndGlyphs" textLength="168.75" x="834.375" y="439.9384">PagoPA</text><!--entity backendapp--><rect fill="#FEFECE" height="106.25" style="stroke: #A80036; stroke-width: 4.6875;" width="325" x="607.8125" y="128.125"/><text fill="#000000" font-family="Helvetica" font-size="43.75" lengthAdjust="spacingAndGlyphs" textLength="262.5" x="639.0625" y="193.0634">Backend App</text><!--entity pagopaproxy--><rect fill="#FEFECE" height="106.25" style="stroke: #A80036; stroke-width: 4.6875;" width="343.75" x="1382.8125" y="128.125"/><text fill="#000000" font-family="Helvetica" font-size="43.75" lengthAdjust="spacingAndGlyphs" textLength="281.25" x="1414.0625" y="193.0634">PagoPA proxy</text><!--entity nodopagopa--><rect fill="#FEFECE" height="106.25" style="stroke: #A80036; stroke-width: 4.6875;" width="340.625" x="921.875" y="478.125"/><text fill="#000000" font-family="Helvetica" font-size="43.75" lengthAdjust="spacingAndGlyphs" textLength="278.125" x="953.125" y="543.0634">Nodo PagoPA</text><!--entity wallet--><rect fill="#FEFECE" height="106.25" style="stroke: #A80036; stroke-width: 4.6875;" width="184.375" x="575" y="478.125"/><text fill="#000000" font-family="Helvetica" font-size="43.75" lengthAdjust="spacingAndGlyphs" textLength="121.875" x="606.25" y="543.0634">Wallet</text><!--entity app--><rect fill="#FEFECE" height="106.25" style="stroke: #A80036; stroke-width: 4.6875;" width="140.625" x="18.75" y="128.125"/><text fill="#000000" font-family="Helvetica" font-size="43.75" lengthAdjust="spacingAndGlyphs" textLength="78.125" x="50" y="193.0634">App</text><!--link app to backendapp--><path d="M160.4628,219.3681 C177.7913,226.8625 196.5963,233.6056 214.8438,237.5 C288.1919,253.1538 477.9409,246.9456 552.3438,237.5 C565.1622,235.8728 578.3053,233.7275 591.4753,231.2253 " fill="none" id="app-backendapp" style="stroke: #A80036; stroke-width: 3.125;"/><polygon fill="#A80036" points="606.9306,228.1334,576.9,221.3936,591.6092,231.1986,581.8042,245.9079,606.9306,228.1334" style="stroke: #A80036; stroke-width: 3.125;"/><text fill="#000000" font-family="Helvetica" font-size="40.625" lengthAdjust="spacingAndGlyphs" textLength="331.25" x="217.9688" y="225.032">(1) Numero avviso</text><!--link app to backendapp--><path d="M159.4022,181.25 C260.2238,181.25 449.2169,181.25 590.4094,181.25 " fill="none" id="app-backendapp" style="stroke: #A80036; stroke-width: 3.125;"/><polygon fill="#A80036" points="606.5131,181.25,578.3881,168.75,590.8881,181.25,578.3881,193.75,606.5131,181.25" style="stroke: #A80036; stroke-width: 3.125;"/><text fill="#000000" font-family="Helvetica" font-size="40.625" lengthAdjust="spacingAndGlyphs" textLength="334.375" x="216.4063" y="159.407">(3) ID pagamento?</text><!--link backendapp to pagopaproxy--><path d="M933.0894,227.8828 C951.8344,231.8269 970.7781,235.1869 989.0625,237.5 C1137.8763,256.3269 1177.6569,255.5875 1326.5625,237.5 C1339.6597,235.9091 1353.0888,233.8222 1366.5569,231.3903 " fill="none" id="backendapp-pagopaproxy" style="stroke: #A80036; stroke-width: 3.125;"/><polygon fill="#A80036" points="1382.3678,228.3859,1352.4037,221.3562,1367.0175,231.3029,1357.0708,245.9167,1382.3678,228.3859" style="stroke: #A80036; stroke-width: 3.125;"/><text fill="#000000" font-family="Helvetica" font-size="40.625" lengthAdjust="spacingAndGlyphs" textLength="331.25" x="992.1875" y="225.032">(1) Numero avviso</text><!--link backendapp to pagopaproxy--><path d="M932.8356,181.25 C1058.7456,181.25 1233.4178,181.25 1365.5894,181.25 " fill="none" id="backendapp-pagopaproxy" style="stroke: #A80036; stroke-width: 3.125;"/><polygon fill="#A80036" points="1381.4909,181.25,1353.3659,168.75,1365.8659,181.25,1353.3659,193.75,1381.4909,181.25" style="stroke: #A80036; stroke-width: 3.125;"/><text fill="#000000" font-family="Helvetica" font-size="40.625" lengthAdjust="spacingAndGlyphs" textLength="334.375" x="990.625" y="159.407">(3) ID pagamento?</text><!--link pagopaproxy to nodopagopa--><path d="M1381.8709,211.2834 C1258.6209,236.6319 1108.2666,276.9559 1070.3125,328.125 C1042.0838,366.1825 1049.2747,419.8359 1062.605,462.4438 " fill="none" id="pagopaproxy-nodopagopa" style="stroke: #A80036; stroke-width: 3.125;"/><polygon fill="#A80036" points="1067.7397,477.5922,1070.549,446.943,1062.7236,462.7942,1046.8723,454.9688,1067.7397,477.5922" style="stroke: #A80036; stroke-width: 3.125;"/><text fill="#000000" font-family="Helvetica" font-size="40.625" lengthAdjust="spacingAndGlyphs" textLength="331.25" x="1073.4375" y="362.532">(1) Numero avviso</text><!--link nodopagopa to pagopaproxy--><path d="M1257.76,477.8612 C1317.4347,453.0928 1382.4181,419.1719 1432.8125,375 C1472.2031,340.4734 1503.3406,290.1359 1524.2809,249.4228 " fill="none" id="nodopagopa-pagopaproxy" style="stroke: #A80036; stroke-width: 3.125;"/><polygon fill="#A80036" points="1531.5309,234.9056,1507.7817,254.4821,1524.5497,248.8843,1530.1475,265.6522,1531.5309,234.9056" style="stroke: #A80036; stroke-width: 3.125;"/><text fill="#000000" font-family="Helvetica" font-size="40.625" lengthAdjust="spacingAndGlyphs" textLength="312.5" x="1476.5625" y="362.532">(2) ID pagamento</text><!--link app to wallet--><path d="M159.9519,224.1669 C261.3603,285.56 448.415,398.8041 564.8375,469.2869 " fill="none" id="app-wallet" style="stroke: #A80036; stroke-width: 3.125;"/><polygon fill="#A80036" points="578.6747,477.6637,561.0893,452.4047,565.3085,469.5715,548.1417,473.7907,578.6747,477.6637" style="stroke: #A80036; stroke-width: 3.125;"/><text fill="#000000" font-family="Helvetica" font-size="40.625" lengthAdjust="spacingAndGlyphs" textLength="312.5" x="398.4375" y="362.532">(4) ID pagamento</text><!--link wallet to nodopagopa--><path d="M775.3525,531.25 C814.8331,531.25 860.7041,531.25 905.0769,531.25 " fill="none" id="wallet-nodopagopa" style="stroke: #A80036; stroke-width: 3.125;"/><polygon fill="#A80036" points="921.3425,531.25,893.2175,518.75,905.7175,531.25,893.2175,543.75,921.3425,531.25" style="stroke: #A80036; stroke-width: 3.125;"/><polygon fill="#A80036" points="759.4063,531.25,787.5313,543.75,775.0313,531.25,787.5313,518.75,759.4063,531.25" style="stroke: #A80036; stroke-width: 3.125;"/><text fill="#000000" font-family="Helvetica" font-size="40.625" lengthAdjust="spacingAndGlyphs" textLength="46.875" x="817.1875" y="509.407">(5)</text><!--
@startuml
skinparamlocked shadowing false
skinparamlocked DefaultFontName Helvetica
skinparamlocked dpi 300

agent "App" as app
rectangle CD {
  agent "Backend App" as backendapp
  agent "PagoPA proxy" as pagopaproxy
}
rectangle PagoPA {
  agent "Nodo PagoPA" as nodopagopa
  agent "Wallet" as wallet
}

app -> backendapp : (1) Numero avviso
backendapp -> pagopaproxy : (1) Numero avviso
pagopaproxy -d-> nodopagopa : (1) Numero avviso

nodopagopa -> pagopaproxy : (2) ID pagamento
backendapp -> pagopaproxy : (3) ID pagamento?
app -> backendapp : (3) ID pagamento?

app -d-> wallet : (4) ID pagamento
wallet <-> nodopagopa : "(5)"

@enduml

PlantUML version 1.2018.00(Thu Jan 04 20:42:56 CET 2018)
(GPL source distribution)
Java Runtime: Java(TM) SE Runtime Environment
JVM: Java HotSpot(TM) 64-Bit Server VM
Java Version: 1.8.0_66-b17
Operating System: Mac OS X
OS Version: 10.13.4
Default Encoding: UTF-8
Language: en
Country: US
--></g></svg>