<?xml version="1.0" encoding="UTF-8" standalone="no"?><svg xmlns="http://www.w3.org/2000/svg" xmlns:xlink="http://www.w3.org/1999/xlink" contentScriptType="application/ecmascript" contentStyleType="text/css" height="2100px" preserveAspectRatio="none" style="width:1884px;height:2100px;" version="1.1" viewBox="0 0 1884 2100" width="1884.375px" zoomAndPan="magnify"><defs/><g><!--cluster Ente--><rect fill="#FFFFFF" height="921.875" style="stroke: #000000; stroke-width: 4.6875;" width="425" x="43.75" y="75"/><text fill="#000000" font-family="Helvetica" font-size="43.75" font-weight="bold" lengthAdjust="spacingAndGlyphs" textLength="96.875" x="207.8125" y="114.9384">Ente</text><!--cluster CD--><rect fill="#FFFFFF" height="2015.625" style="stroke: #000000; stroke-width: 4.6875;" width="1112.5" x="737.5" y="50"/><text fill="#000000" font-family="Helvetica" font-size="43.75" font-weight="bold" lengthAdjust="spacingAndGlyphs" textLength="62.5" x="1262.5" y="89.9384">CD</text><!--cluster APIM--><rect fill="#FFFFFF" height="1403.125" style="stroke: #000000; stroke-width: 4.6875;" width="1062.5" x="762.5" y="128.125"/><text fill="#000000" font-family="Helvetica" font-size="43.75" font-weight="bold" lengthAdjust="spacingAndGlyphs" textLength="109.375" x="1239.0625" y="168.0634">APIM</text><!--entity respservizio--><ellipse cx="203.125" cy="184.375" fill="#FEFECE" rx="25" ry="25" style="stroke: #A80036; stroke-width: 6.25;"/><path d="M203.125,209.375 L203.125,293.75 M162.5,234.375 L243.75,234.375 M203.125,293.75 L162.5,340.625 M203.125,293.75 L243.75,340.625 " fill="#FEFECE" style="stroke: #A80036; stroke-width: 6.25;"/><text fill="#000000" font-family="Helvetica" font-size="43.75" lengthAdjust="spacingAndGlyphs" textLength="268.75" x="68.75" y="383.6884">Responsabile</text><text fill="#000000" font-family="Helvetica" font-size="43.75" lengthAdjust="spacingAndGlyphs" textLength="221.875" x="68.75" y="427.4384">del servizio</text><!--entity servizio--><rect fill="#FEFECE" height="106.25" style="stroke: #A80036; stroke-width: 4.6875;" width="218.75" x="146.875" y="865.625"/><text fill="#000000" font-family="Helvetica" font-size="43.75" lengthAdjust="spacingAndGlyphs" textLength="156.25" x="178.125" y="930.5634">Servizio</text><!--entity apicd--><rect fill="#FEFECE" height="106.25" style="stroke: #A80036; stroke-width: 4.6875;" width="206.25" x="1090.625" y="1934.375"/><text fill="#000000" font-family="Helvetica" font-size="43.75" lengthAdjust="spacingAndGlyphs" textLength="143.75" x="1121.875" y="1999.3134">API CD</text><!--entity apigw--><rect fill="#FEFECE" height="106.25" style="stroke: #A80036; stroke-width: 4.6875;" width="318.75" x="1034.375" y="1400"/><text fill="#000000" font-family="Helvetica" font-size="43.75" lengthAdjust="spacingAndGlyphs" textLength="256.25" x="1065.625" y="1464.9384">API Gateway</text><!--entity devportal--><rect fill="#FEFECE" height="150" style="stroke: #A80036; stroke-width: 4.6875;" width="265.625" x="789.0625" y="220.3125"/><text fill="#000000" font-family="Helvetica" font-size="43.75" lengthAdjust="spacingAndGlyphs" textLength="203.125" x="820.3125" y="285.2509">Developer</text><text fill="#000000" font-family="Helvetica" font-size="43.75" lengthAdjust="spacingAndGlyphs" textLength="112.5" x="820.3125" y="329.0009">portal</text><!--entity keydb--><path d="M1468.75,237.5 C1468.75,206.25 1634.375,206.25 1634.375,206.25 C1634.375,206.25 1800,206.25 1800,237.5 L1800,353.125 C1800,384.375 1634.375,384.375 1634.375,384.375 C1634.375,384.375 1468.75,384.375 1468.75,353.125 L1468.75,237.5 " fill="#FEFECE" style="stroke: #000000; stroke-width: 4.6875;"/><path d="M1468.75,237.5 C1468.75,268.75 1634.375,268.75 1634.375,268.75 C1634.375,268.75 1800,268.75 1800,237.5 " fill="none" style="stroke: #000000; stroke-width: 4.6875;"/><text fill="#000000" font-family="Helvetica" font-size="43.75" lengthAdjust="spacingAndGlyphs" textLength="240.625" x="1500" y="314.9384">Chiavi API e</text><text fill="#000000" font-family="Helvetica" font-size="43.75" lengthAdjust="spacingAndGlyphs" textLength="268.75" x="1500" y="358.6884">ruoli associati</text><!--link respservizio to devportal--><path d="M354.4925,295.3125 C477.4266,295.3125 649.8828,295.3125 772.3253,295.3125 " fill="none" id="respservizio-devportal" style="stroke: #A80036; stroke-width: 3.125;"/><polygon fill="#A80036" points="788.5059,295.3125,760.3809,282.8125,772.8809,295.3125,760.3809,307.8125,788.5059,295.3125" style="stroke: #A80036; stroke-width: 3.125;"/><polygon fill="#A80036" points="338.3163,295.3125,366.4413,307.8125,353.9413,295.3125,366.4413,282.8125,338.3163,295.3125" style="stroke: #A80036; stroke-width: 3.125;"/><text fill="#000000" font-family="Helvetica" font-size="40.625" lengthAdjust="spacingAndGlyphs" textLength="337.5" x="394.5313" y="273.4695">(1) accreditamento</text><!--link devportal to keydb--><path d="M1055.055,295.3125 C1166.8422,295.3125 1327.6631,295.3125 1451.5113,295.3125 " fill="none" id="devportal-keydb" style="stroke: #A80036; stroke-width: 3.125;"/><polygon fill="#A80036" points="1467.9612,295.3125,1439.8362,282.8125,1452.3362,295.3125,1439.8362,307.8125,1467.9612,295.3125" style="stroke: #A80036; stroke-width: 3.125;"/><text fill="#000000" font-family="Helvetica" font-size="40.625" lengthAdjust="spacingAndGlyphs" textLength="265.625" x="1128.9063" y="232.8445">(1) ID servizio,</text><text fill="#000000" font-family="Helvetica" font-size="40.625" lengthAdjust="spacingAndGlyphs" textLength="300" x="1111.7188" y="273.4695">chiave API, ruoli</text><!--link respservizio to servizio--><path d="M215.3128,438.3416 C226.2591,566.7984 241.8659,749.9478 250.2963,848.8813 " fill="none" id="respservizio-servizio" style="stroke: #A80036; stroke-width: 3.125;"/><polygon fill="#A80036" points="251.685,865.1791,261.7517,836.0942,250.3582,849.6105,236.842,838.2171,251.685,865.1791" style="stroke: #A80036; stroke-width: 3.125;"/><text fill="#000000" font-family="Helvetica" font-size="40.625" lengthAdjust="spacingAndGlyphs" textLength="259.375" x="237.5" y="662.532">(2) chiave API</text><!--link servizio to apigw--><path d="M349.5684,971.9416 C524.2544,1071.5125 899.6891,1285.5103 1085.3041,1391.3106 " fill="none" id="servizio-apigw" style="stroke: #A80036; stroke-width: 3.125;"/><polygon fill="#A80036" points="1099.4175,1399.3556,1081.1728,1374.5686,1085.8427,1391.6183,1068.7931,1396.2882,1099.4175,1399.3556" style="stroke: #A80036; stroke-width: 3.125;"/><text fill="#000000" font-family="Helvetica" font-size="40.625" lengthAdjust="spacingAndGlyphs" textLength="259.375" x="765.625" y="1196.907">(3) chiave API</text><!--link keydb to apigw--><path d="M1487.1294,384.4497 C1403.6113,447.2694 1315.625,539.9384 1315.625,651.5625 C1315.625,651.5625 1315.625,651.5625 1315.625,1185.9375 C1315.625,1258.6384 1277.8125,1333.2459 1244.3113,1385.0806 " fill="none" id="keydb-apigw" style="stroke: #A80036; stroke-width: 3.125;"/><polygon fill="#A80036" points="1235.0113,1399.0762,1260.9877,1382.569,1243.6587,1386.0623,1240.1654,1368.7332,1235.0113,1399.0762" style="stroke: #A80036; stroke-width: 3.125;"/><text fill="#000000" font-family="Helvetica" font-size="40.625" lengthAdjust="spacingAndGlyphs" textLength="353.125" x="1318.75" y="929.7195">(4) ID servizio, ruoli</text><!--link apigw to apicd--><path d="M1193.75,1506.3166 C1193.75,1603.2934 1193.75,1808.8128 1193.75,1917.2003 " fill="none" id="apigw-apicd" style="stroke: #A80036; stroke-width: 3.125;"/><polygon fill="#A80036" points="1193.75,1933.7306,1206.25,1905.6056,1193.75,1918.1056,1181.25,1905.6056,1193.75,1933.7306" style="stroke: #A80036; stroke-width: 3.125;"/><text fill="#000000" font-family="Helvetica" font-size="40.625" lengthAdjust="spacingAndGlyphs" textLength="353.125" x="1196.875" y="1731.282">(5) ID servizio, ruoli</text><!--
@startuml
skinparamlocked shadowing false
skinparamlocked DefaultFontName Helvetica
skinparamlocked dpi 300

rectangle Ente {
  actor "Responsabile\ndel servizio" as respservizio
  agent Servizio as servizio
}
rectangle "CD" {
  rectangle APIM {
    agent "API Gateway" as apigw
    agent "Developer\nportal" as devportal
    database "Chiavi API e\nruoli associati" as keydb
  }
  agent "API CD" as apicd
}

respservizio <-> devportal : (1) accreditamento
devportal -> keydb : (1) ID servizio,\nchiave API, ruoli
respservizio -d-> servizio : (2) chiave API

servizio -> apigw : (3) chiave API
keydb -d-> apigw : (4) ID servizio, ruoli
apigw - -> apicd : (5) ID servizio, ruoli

@enduml

PlantUML version 1.2018.00(Thu Jan 04 20:42:56 CET 2018)
(GPL source distribution)
Java Runtime: Java(TM) SE Runtime Environment
JVM: Java HotSpot(TM) 64-Bit Server VM
Java Version: 1.8.0_66-b17
Operating System: Mac OS X
OS Version: 10.13.4
Default Encoding: UTF-8
Language: en
Country: US
--></g></svg>