<?xml version="1.0" encoding="UTF-8" standalone="no"?><svg xmlns="http://www.w3.org/2000/svg" xmlns:xlink="http://www.w3.org/1999/xlink" contentScriptType="application/ecmascript" contentStyleType="text/css" height="1050px" preserveAspectRatio="none" style="width:1029px;height:1050px;" version="1.1" viewBox="0 0 1029 1050" width="1029px" zoomAndPan="magnify"><defs/><g><!--cluster Regione Azure--><path d="M313,23 C313,20 315,18 318,18 C321,18 323,20 323,23 C323,20 325,18 328,18 C331,18 333,20 333,23 C333,20 335,18 338,18 C341,18 343,20 343,23 C343,20 345,18 348,18 C351,18 353,20 353,23 C353,20 355,18 358,18 C361,18 363,20 363,23 C363,20 365,18 368,18 C371,18 373,20 373,23 C373,20 375,18 378,18 C381,18 383,20 383,23 C383,20 385,18 388,18 C391,18 393,20 393,23 C393,20 395,18 398,18 C401,18 403,20 403,23 C403,20 405,18 408,18 C411,18 413,20 413,23 C413,20 415,18 418,18 C421,18 423,20 423,23 C423,20 425,18 428,18 C431,18 433,20 433,23 C433,20 435,18 438,18 C441,18 443,20 443,23 C443,20 445,18 448,18 C451,18 453,20 453,23 C453,20 455,18 458,18 C461,18 463,20 463,23 C463,20 465,18 468,18 C471,18 473,20 473,23 C473,20 475,18 478,18 C481,18 483,20 483,23 C483,20 485,18 488,18 C491,18 493,20 493,23 C493,20 495,18 498,18 C501,18 503,20 503,23 C503,20 505,18 508,18 C511,18 513,20 513,23 C513,20 515,18 518,18 C521,18 523,20 523,23 C523,20 525,18 528,18 C531,18 533,20 533,23 C533,20 535,18 538,18 C541,18 543,20 543,23 C543,20 545,18 548,18 C551,18 553,20 553,23 C553,20 555,18 558,18 C561,18 563,20 563,23 C563,20 565,18 568,18 C571,18 573,20 573,23 C573,20 575,18 578,18 C581,18 583,20 583,23 C583,20 585,18 588,18 C591,18 593,20 593,23 C593,20 595,18 598,18 C601,18 603,20 603,23 C603,20 605,18 608,18 C611,18 613,20 613,23 C613,20 615,18 618,18 C621,18 623,20 623,23 C623,20 625,18 628,18 C631,18 633,20 633,23 C633,20 635,18 638,18 C641,18 643,20 643,23 C643,20 645,18 648,18 C651,18 653,20 653,23 C653,20 655,18 658,18 C661,18 663,20 663,23 C663,20 665,18 668,18 C671,18 673,20 673,23 C673,20 675,18 678,18 C681,18 683,20 683,23 C683,20 685,18 688,18 C691,18 693,20 693,23 C693,20 695,18 698,18 C701,18 703,20 703,23 C703,20 705,18 708,18 C711,18 713,20 713,23 C713,20 715,18 718,18 C721,18 723,20 723,23 C723,20 725,18 728,18 C731,18 733,20 733,23 C733,20 735,18 738,18 C741,18 743,20 743,23 C743,20 745,18 748,18 C751,18 753,20 753,23 C753,20 755,18 758,18 C761,18 763,20 763,23 C763,20 765,18 768,18 C771,18 773,20 773,23 C773,20 775,18 778,18 C781,18 783,20 783,23 C783,20 785,18 788,18 C791,18 793,20 793,23 C793,20 795,18 798,18 C801,18 803,20 803,23 C803,20 805,18 808,18 C811,18 813,20 813,23 C813,20 815,18 818,18 C821,18 823,20 823,23 C823,20 825,18 828,18 C831,18 833,20 833,23 C833,20 835,18 838,18 C841,18 843,20 843,23 C846,23 848,25 848,28 C848,31 846,33 843,33 C846,33 848,35 848,38 C848,41 846,43 843,43 C846,43 848,45 848,48 C848,51 846,53 843,53 C846,53 848,55 848,58 C848,61 846,63 843,63 C846,63 848,65 848,68 C848,71 846,73 843,73 C846,73 848,75 848,78 C848,81 846,83 843,83 C846,83 848,85 848,88 C848,91 846,93 843,93 C846,93 848,95 848,98 C848,101 846,103 843,103 C846,103 848,105 848,108 C848,111 846,113 843,113 C846,113 848,115 848,118 C848,121 846,123 843,123 C846,123 848,125 848,128 C848,131 846,133 843,133 C846,133 848,135 848,138 C848,141 846,143 843,143 C846,143 848,145 848,148 C848,151 846,153 843,153 C846,153 848,155 848,158 C848,161 846,163 843,163 C846,163 848,165 848,168 C848,171 846,173 843,173 C846,173 848,175 848,178 C848,181 846,183 843,183 C846,183 848,185 848,188 C848,191 846,193 843,193 C846,193 848,195 848,198 C848,201 846,203 843,203 C846,203 848,205 848,208 C848,211 846,213 843,213 C846,213 848,215 848,218 C848,221 846,223 843,223 C846,223 848,225 848,228 C848,231 846,233 843,233 C846,233 848,235 848,238 C848,241 846,243 843,243 C846,243 848,245 848,248 C848,251 846,253 843,253 C846,253 848,255 848,258 C848,261 846,263 843,263 C846,263 848,265 848,268 C848,271 846,273 843,273 C846,273 848,275 848,278 C848,281 846,283 843,283 C846,283 848,285 848,288 C848,291 846,293 843,293 C846,293 848,295 848,298 C848,301 846,303 843,303 C846,303 848,305 848,308 C848,311 846,313 843,313 C846,313 848,315 848,318 C848,321 846,323 843,323 C846,323 848,325 848,328 C848,331 846,333 843,333 C846,333 848,335 848,338 C848,341 846,343 843,343 C846,343 848,345 848,348 C848,351 846,353 843,353 C846,353 848,355 848,358 C848,361 846,363 843,363 C846,363 848,365 848,368 C848,371 846,373 843,373 C846,373 848,375 848,378 C848,381 846,383 843,383 C846,383 848,385 848,388 C848,391 846,393 843,393 C846,393 848,395 848,398 C848,401 846,403 843,403 C846,403 848,405 848,408 C848,411 846,413 843,413 C846,413 848,415 848,418 C848,421 846,423 843,423 C846,423 848,425 848,428 C848,431 846,433 843,433 C846,433 848,435 848,438 C848,441 846,443 843,443 C846,443 848,445 848,448 C848,451 846,453 843,453 C846,453 848,455 848,458 C848,461 846,463 843,463 C846,463 848,465 848,468 C848,471 846,473 843,473 C846,473 848,475 848,478 C848,481 846,483 843,483 C846,483 848,485 848,488 C848,491 846,493 843,493 C846,493 848,495 848,498 C848,501 846,503 843,503 C846,503 848,505 848,508 C848,511 846,513 843,513 C846,513 848,515 848,518 C848,521 846,523 843,523 C846,523 848,525 848,528 C848,531 846,533 843,533 C846,533 848,535 848,538 C848,541 846,543 843,543 C846,543 848,545 848,548 C848,551 846,553 843,553 C846,553 848,555 848,558 C848,561 846,563 843,563 C846,563 848,565 848,568 C848,571 846,573 843,573 C846,573 848,575 848,578 C848,581 846,583 843,583 C846,583 848,585 848,588 C848,591 846,593 843,593 C846,593 848,595 848,598 C848,601 846,603 843,603 C846,603 848,605 848,608 C848,611 846,613 843,613 C846,613 848,615 848,618 C848,621 846,623 843,623 C846,623 848,625 848,628 C848,631 846,633 843,633 C846,633 848,635 848,638 C848,641 846,643 843,643 C846,643 848,645 848,648 C848,651 846,653 843,653 C846,653 848,655 848,658 C848,661 846,663 843,663 C846,663 848,665 848,668 C848,671 846,673 843,673 C846,673 848,675 848,678 C848,681 846,683 843,683 C846,683 848,685 848,688 C848,691 846,693 843,693 C846,693 848,695 848,698 C848,701 846,703 843,703 C846,703 848,705 848,708 C848,711 846,713 843,713 C846,713 848,715 848,718 C848,721 846,723 843,723 C846,723 848,725 848,728 C848,731 846,733 843,733 C846,733 848,735 848,738 C848,741 846,743 843,743 C846,743 848,745 848,748 C848,751 846,753 843,753 C846,753 848,755 848,758 C848,761 846,763 843,763 C846,763 848,765 848,768 C848,771 846,773 843,773 C846,773 848,775 848,778 C848,781 846,783 843,783 C846,783 848,785 848,788 C848,791 846,793 843,793 C846,793 848,795 848,798 C848,801 846,803 843,803 C846,803 848,805 848,808 C848,811 846,813 843,813 C846,813 848,815 848,818 C848,821 846,823 843,823 C846,823 848,825 848,828 C848,831 846,833 843,833 C846,833 848,835 848,838 C848,841 846,843 843,843 C846,843 848,845 848,848 C848,851 846,853 843,853 C846,853 848,855 848,858 C848,861 846,863 843,863 C846,863 848,865 848,868 C848,871 846,873 843,873 C846,873 848,875 848,878 C848,881 846,883 843,883 C846,883 848,885 848,888 C848,891 846,893 843,893 C846,893 848,895 848,898 C848,901 846,903 843,903 C846,903 848,905 848,908 C848,911 846,913 843,913 C846,913 848,915 848,918 C848,921 846,923 843,923 C846,923 848,925 848,928 C848,931 846,933 843,933 C846,933 848,935 848,938 C848,941 846,943 843,943 C846,943 848,945 848,948 C848,951 846,953 843,953 C846,953 848,955 848,958 C848,961 846,963 843,963 C846,963 848,965 848,968 C848,971 846,973 843,973 C846,973 848,975 848,978 C848,981 846,983 843,983 C846,983 848,985 848,988 C848,991 846,993 843,993 C846,993 848,995 848,998 C848,1001 846,1003 843,1003 C846,1003 848,1005 848,1008 C848,1011 846,1013 843,1013 C846,1013 848,1015 848,1018 C848,1021 846,1023 843,1023 C846,1023 848,1025 848,1028 C848,1031 846,1033 843,1033 C843,1036 840,1038 838,1038 C835,1038 833,1036 833,1033 C833,1036 830,1038 828,1038 C825,1038 823,1036 823,1033 C823,1036 820,1038 818,1038 C815,1038 813,1036 813,1033 C813,1036 810,1038 808,1038 C805,1038 803,1036 803,1033 C803,1036 800,1038 798,1038 C795,1038 793,1036 793,1033 C793,1036 790,1038 788,1038 C785,1038 783,1036 783,1033 C783,1036 780,1038 778,1038 C775,1038 773,1036 773,1033 C773,1036 770,1038 768,1038 C765,1038 763,1036 763,1033 C763,1036 760,1038 758,1038 C755,1038 753,1036 753,1033 C753,1036 750,1038 748,1038 C745,1038 743,1036 743,1033 C743,1036 740,1038 738,1038 C735,1038 733,1036 733,1033 C733,1036 730,1038 728,1038 C725,1038 723,1036 723,1033 C723,1036 720,1038 718,1038 C715,1038 713,1036 713,1033 C713,1036 710,1038 708,1038 C705,1038 703,1036 703,1033 C703,1036 700,1038 698,1038 C695,1038 693,1036 693,1033 C693,1036 690,1038 688,1038 C685,1038 683,1036 683,1033 C683,1036 680,1038 678,1038 C675,1038 673,1036 673,1033 C673,1036 670,1038 668,1038 C665,1038 663,1036 663,1033 C663,1036 660,1038 658,1038 C655,1038 653,1036 653,1033 C653,1036 650,1038 648,1038 C645,1038 643,1036 643,1033 C643,1036 640,1038 638,1038 C635,1038 633,1036 633,1033 C633,1036 630,1038 628,1038 C625,1038 623,1036 623,1033 C623,1036 620,1038 618,1038 C615,1038 613,1036 613,1033 C613,1036 610,1038 608,1038 C605,1038 603,1036 603,1033 C603,1036 600,1038 598,1038 C595,1038 593,1036 593,1033 C593,1036 590,1038 588,1038 C585,1038 583,1036 583,1033 C583,1036 580,1038 578,1038 C575,1038 573,1036 573,1033 C573,1036 570,1038 568,1038 C565,1038 563,1036 563,1033 C563,1036 560,1038 558,1038 C555,1038 553,1036 553,1033 C553,1036 550,1038 548,1038 C545,1038 543,1036 543,1033 C543,1036 540,1038 538,1038 C535,1038 533,1036 533,1033 C533,1036 530,1038 528,1038 C525,1038 523,1036 523,1033 C523,1036 520,1038 518,1038 C515,1038 513,1036 513,1033 C513,1036 510,1038 508,1038 C505,1038 503,1036 503,1033 C503,1036 500,1038 498,1038 C495,1038 493,1036 493,1033 C493,1036 490,1038 488,1038 C485,1038 483,1036 483,1033 C483,1036 480,1038 478,1038 C475,1038 473,1036 473,1033 C473,1036 470,1038 468,1038 C465,1038 463,1036 463,1033 C463,1036 460,1038 458,1038 C455,1038 453,1036 453,1033 C453,1036 450,1038 448,1038 C445,1038 443,1036 443,1033 C443,1036 440,1038 438,1038 C435,1038 433,1036 433,1033 C433,1036 430,1038 428,1038 C425,1038 423,1036 423,1033 C423,1036 420,1038 418,1038 C415,1038 413,1036 413,1033 C413,1036 410,1038 408,1038 C405,1038 403,1036 403,1033 C403,1036 400,1038 398,1038 C395,1038 393,1036 393,1033 C393,1036 390,1038 388,1038 C385,1038 383,1036 383,1033 C383,1036 380,1038 378,1038 C375,1038 373,1036 373,1033 C373,1036 370,1038 368,1038 C365,1038 363,1036 363,1033 C363,1036 360,1038 358,1038 C355,1038 353,1036 353,1033 C353,1036 350,1038 348,1038 C345,1038 343,1036 343,1033 C343,1036 340,1038 338,1038 C335,1038 333,1036 333,1033 C333,1036 330,1038 328,1038 C325,1038 323,1036 323,1033 C323,1036 320,1038 318,1038 C315,1038 313,1036 313,1033 C310,1033 308,1031 308,1028 C308,1025 310,1023 313,1023 C310,1023 308,1021 308,1018 C308,1015 310,1013 313,1013 C310,1013 308,1011 308,1008 C308,1005 310,1003 313,1003 C310,1003 308,1001 308,998 C308,995 310,993 313,993 C310,993 308,991 308,988 C308,985 310,983 313,983 C310,983 308,981 308,978 C308,975 310,973 313,973 C310,973 308,971 308,968 C308,965 310,963 313,963 C310,963 308,961 308,958 C308,955 310,953 313,953 C310,953 308,951 308,948 C308,945 310,943 313,943 C310,943 308,941 308,938 C308,935 310,933 313,933 C310,933 308,931 308,928 C308,925 310,923 313,923 C310,923 308,921 308,918 C308,915 310,913 313,913 C310,913 308,911 308,908 C308,905 310,903 313,903 C310,903 308,901 308,898 C308,895 310,893 313,893 C310,893 308,891 308,888 C308,885 310,883 313,883 C310,883 308,881 308,878 C308,875 310,873 313,873 C310,873 308,871 308,868 C308,865 310,863 313,863 C310,863 308,861 308,858 C308,855 310,853 313,853 C310,853 308,851 308,848 C308,845 310,843 313,843 C310,843 308,841 308,838 C308,835 310,833 313,833 C310,833 308,831 308,828 C308,825 310,823 313,823 C310,823 308,821 308,818 C308,815 310,813 313,813 C310,813 308,811 308,808 C308,805 310,803 313,803 C310,803 308,801 308,798 C308,795 310,793 313,793 C310,793 308,791 308,788 C308,785 310,783 313,783 C310,783 308,781 308,778 C308,775 310,773 313,773 C310,773 308,771 308,768 C308,765 310,763 313,763 C310,763 308,761 308,758 C308,755 310,753 313,753 C310,753 308,751 308,748 C308,745 310,743 313,743 C310,743 308,741 308,738 C308,735 310,733 313,733 C310,733 308,731 308,728 C308,725 310,723 313,723 C310,723 308,721 308,718 C308,715 310,713 313,713 C310,713 308,711 308,708 C308,705 310,703 313,703 C310,703 308,701 308,698 C308,695 310,693 313,693 C310,693 308,691 308,688 C308,685 310,683 313,683 C310,683 308,681 308,678 C308,675 310,673 313,673 C310,673 308,671 308,668 C308,665 310,663 313,663 C310,663 308,661 308,658 C308,655 310,653 313,653 C310,653 308,651 308,648 C308,645 310,643 313,643 C310,643 308,641 308,638 C308,635 310,633 313,633 C310,633 308,631 308,628 C308,625 310,623 313,623 C310,623 308,621 308,618 C308,615 310,613 313,613 C310,613 308,611 308,608 C308,605 310,603 313,603 C310,603 308,601 308,598 C308,595 310,593 313,593 C310,593 308,591 308,588 C308,585 310,583 313,583 C310,583 308,581 308,578 C308,575 310,573 313,573 C310,573 308,571 308,568 C308,565 310,563 313,563 C310,563 308,561 308,558 C308,555 310,553 313,553 C310,553 308,551 308,548 C308,545 310,543 313,543 C310,543 308,541 308,538 C308,535 310,533 313,533 C310,533 308,531 308,528 C308,525 310,523 313,523 C310,523 308,521 308,518 C308,515 310,513 313,513 C310,513 308,511 308,508 C308,505 310,503 313,503 C310,503 308,501 308,498 C308,495 310,493 313,493 C310,493 308,491 308,488 C308,485 310,483 313,483 C310,483 308,481 308,478 C308,475 310,473 313,473 C310,473 308,471 308,468 C308,465 310,463 313,463 C310,463 308,461 308,458 C308,455 310,453 313,453 C310,453 308,451 308,448 C308,445 310,443 313,443 C310,443 308,441 308,438 C308,435 310,433 313,433 C310,433 308,431 308,428 C308,425 310,423 313,423 C310,423 308,421 308,418 C308,415 310,413 313,413 C310,413 308,411 308,408 C308,405 310,403 313,403 C310,403 308,401 308,398 C308,395 310,393 313,393 C310,393 308,391 308,388 C308,385 310,383 313,383 C310,383 308,381 308,378 C308,375 310,373 313,373 C310,373 308,371 308,368 C308,365 310,363 313,363 C310,363 308,361 308,358 C308,355 310,353 313,353 C310,353 308,351 308,348 C308,345 310,343 313,343 C310,343 308,341 308,338 C308,335 310,333 313,333 C310,333 308,331 308,328 C308,325 310,323 313,323 C310,323 308,321 308,318 C308,315 310,313 313,313 C310,313 308,311 308,308 C308,305 310,303 313,303 C310,303 308,301 308,298 C308,295 310,293 313,293 C310,293 308,291 308,288 C308,285 310,283 313,283 C310,283 308,281 308,278 C308,275 310,273 313,273 C310,273 308,271 308,268 C308,265 310,263 313,263 C310,263 308,261 308,258 C308,255 310,253 313,253 C310,253 308,251 308,248 C308,245 310,243 313,243 C310,243 308,241 308,238 C308,235 310,233 313,233 C310,233 308,231 308,228 C308,225 310,223 313,223 C310,223 308,221 308,218 C308,215 310,213 313,213 C310,213 308,211 308,208 C308,205 310,203 313,203 C310,203 308,201 308,198 C308,195 310,193 313,193 C310,193 308,191 308,188 C308,185 310,183 313,183 C310,183 308,181 308,178 C308,175 310,173 313,173 C310,173 308,171 308,168 C308,165 310,163 313,163 C310,163 308,161 308,158 C308,155 310,153 313,153 C310,153 308,151 308,148 C308,145 310,143 313,143 C310,143 308,141 308,138 C308,135 310,133 313,133 C310,133 308,131 308,128 C308,125 310,123 313,123 C310,123 308,121 308,118 C308,115 310,113 313,113 C310,113 308,111 308,108 C308,105 310,103 313,103 C310,103 308,101 308,98 C308,95 310,93 313,93 C310,93 308,91 308,88 C308,85 310,83 313,83 C310,83 308,81 308,78 C308,75 310,73 313,73 C310,73 308,71 308,68 C308,65 310,63 313,63 C310,63 308,61 308,58 C308,55 310,53 313,53 C310,53 308,51 308,48 C308,45 310,43 313,43 C310,43 308,41 308,38 C308,35 310,33 313,33 C310,33 308,31 308,28 C308,25 310,23 313,23 " fill="#FFFFFF" style="stroke: #000000; stroke-width: 1.5;"/><text fill="#000000" font-family="Helvetica" font-size="14" font-weight="bold" lengthAdjust="spacingAndGlyphs" textLength="100" x="525" y="39.7803">Regione Azure</text><!--cluster VNet API Gateway--><rect fill="#FFFFFF" height="67" style="stroke: #000000; stroke-width: 1.5;" width="223" x="454" y="508"/><text fill="#000000" font-family="Helvetica" font-size="14" font-weight="bold" lengthAdjust="spacingAndGlyphs" textLength="122" x="504.5" y="520.7803">VNet API Gateway</text><!--cluster VNet Functions--><rect fill="#FFFFFF" height="77" style="stroke: #000000; stroke-width: 1.5;" width="248" x="584" y="612"/><text fill="#000000" font-family="Helvetica" font-size="14" font-weight="bold" lengthAdjust="spacingAndGlyphs" textLength="106" x="655" y="624.7803">VNet Functions</text><!--cluster VNet Kubernetes--><rect fill="#FFFFFF" height="191" style="stroke: #000000; stroke-width: 1.5;" width="244" x="462" y="166"/><text fill="#000000" font-family="Helvetica" font-size="14" font-weight="bold" lengthAdjust="spacingAndGlyphs" textLength="115" x="526.5" y="178.7803">VNet Kubernetes</text><!--cluster VNet Pagopa VPN--><rect fill="#FFFFFF" height="192.5" style="stroke: #000000; stroke-width: 1.5;" width="136" x="318" y="45.5"/><text fill="#000000" font-family="Helvetica" font-size="14" font-weight="bold" lengthAdjust="spacingAndGlyphs" textLength="120" x="326" y="58.2803">VNet Pagopa VPN</text><!--cluster VNet CosmosDB--><rect fill="#FFFFFF" height="180" style="stroke: #000000; stroke-width: 1.5;" width="128" x="320" y="731"/><text fill="#000000" font-family="Helvetica" font-size="14" font-weight="bold" lengthAdjust="spacingAndGlyphs" textLength="112" x="328" y="743.7803">VNet CosmosDB</text><!--cluster VNet Redis cluster--><rect fill="#FFFFFF" height="76" style="stroke: #000000; stroke-width: 1.5;" width="177" x="655" y="41"/><text fill="#000000" font-family="Helvetica" font-size="14" font-weight="bold" lengthAdjust="spacingAndGlyphs" textLength="126" x="680.5" y="53.7803">VNet Redis cluster</text><!--cluster VNet storage--><rect fill="#FFFFFF" height="188.5" style="stroke: #000000; stroke-width: 1.5;" width="112" x="704" y="839.5"/><text fill="#000000" font-family="Helvetica" font-size="14" font-weight="bold" lengthAdjust="spacingAndGlyphs" textLength="88" x="716" y="852.2803">VNet storage</text><!--cluster PagoPA--><path d="M17,292 C17,289 19,287 22,287 C25,287 27,289 27,292 C27,289 29,287 32,287 C35,287 37,289 37,292 C37,289 39,287 42,287 C45,287 47,289 47,292 C47,289 49,287 52,287 C55,287 57,289 57,292 C57,289 59,287 62,287 C65,287 67,289 67,292 C67,289 69,287 72,287 C75,287 77,289 77,292 C77,289 79,287 82,287 C85,287 87,289 87,292 C87,289 89,287 92,287 C95,287 97,289 97,292 C97,289 99,287 102,287 C105,287 107,289 107,292 C107,289 109,287 112,287 C115,287 117,289 117,292 C117,289 119,287 122,287 C125,287 127,289 127,292 C127,289 129,287 132,287 C135,287 137,289 137,292 C137,289 139,287 142,287 C145,287 147,289 147,292 C147,289 149,287 152,287 C155,287 157,289 157,292 C157,289 159,287 162,287 C165,287 167,289 167,292 C167,289 169,287 172,287 C175,287 177,289 177,292 C177,289 179,287 182,287 C185,287 187,289 187,292 C187,289 189,287 192,287 C195,287 197,289 197,292 C197,289 199,287 202,287 C205,287 207,289 207,292 C207,289 209,287 212,287 C215,287 217,289 217,292 C217,289 219,287 222,287 C225,287 227,289 227,292 C227,289 229,287 232,287 C235,287 237,289 237,292 C237,289 239,287 242,287 C245,287 247,289 247,292 C247,289 249,287 252,287 C255,287 257,289 257,292 C257,289 259,287 262,287 C265,287 267,289 267,292 C267,289 269,287 272,287 C275,287 277,289 277,292 C277,289 279,287 282,287 C285,287 287,289 287,292 C287,289 289,287 292,287 C295,287 297,289 297,292 C300,292 302,294 302,297 C302,300 300,302 297,302 C300,302 302,304 302,307 C302,310 300,312 297,312 C300,312 302,314 302,317 C302,320 300,322 297,322 C300,322 302,324 302,327 C302,330 300,332 297,332 C300,332 302,334 302,337 C302,340 300,342 297,342 C300,342 302,344 302,347 C302,350 300,352 297,352 C300,352 302,354 302,357 C302,360 300,362 297,362 C300,362 302,364 302,367 C302,370 300,372 297,372 C300,372 302,374 302,377 C302,380 300,382 297,382 C300,382 302,384 302,387 C302,390 300,392 297,392 C300,392 302,394 302,397 C302,400 300,402 297,402 C300,402 302,404 302,407 C302,410 300,412 297,412 C300,412 302,414 302,417 C302,420 300,422 297,422 C300,422 302,424 302,427 C302,430 300,432 297,432 C300,432 302,434 302,437 C302,440 300,442 297,442 C300,442 302,444 302,447 C302,450 300,452 297,452 C300,452 302,454 302,457 C302,460 300,462 297,462 C300,462 302,464 302,467 C302,470 300,472 297,472 C300,472 302,474 302,477 C302,480 300,482 297,482 C300,482 302,484 302,487 C302,490 300,492 297,492 C300,492 302,494 302,497 C302,500 300,502 297,502 C300,502 302,504 302,507 C302,510 300,512 297,512 C300,512 302,514 302,517 C302,520 300,522 297,522 C300,522 302,524 302,527 C302,530 300,532 297,532 C300,532 302,534 302,537 C302,540 300,542 297,542 C300,542 302,544 302,547 C302,550 300,552 297,552 C300,552 302,554 302,557 C302,560 300,562 297,562 C300,562 302,564 302,567 C302,570 300,572 297,572 C300,572 302,574 302,577 C302,580 300,582 297,582 C300,582 302,584 302,587 C302,590 300,592 297,592 C300,592 302,594 302,597 C302,600 300,602 297,602 C300,602 302,604 302,607 C302,610 300,612 297,612 C300,612 302,614 302,617 C302,620 300,622 297,622 C300,622 302,624 302,627 C302,630 300,632 297,632 C300,632 302,634 302,637 C302,640 300,642 297,642 C300,642 302,644 302,647 C302,650 300,652 297,652 C300,652 302,654 302,657 C302,660 300,662 297,662 C300,662 302,664 302,667 C302,670 300,672 297,672 C300,672 302,674 302,677 C302,680 300,682 297,682 C300,682 302,684 302,687 C302,690 300,692 297,692 C300,692 302,694 302,697 C302,700 300,702 297,702 C300,702 302,704 302,707 C302,710 300,712 297,712 C300,712 302,714 302,717 C302,720 300,722 297,722 C300,722 302,724 302,727 C302,730 300,732 297,732 C300,732 302,734 302,737 C302,740 300,742 297,742 C300,742 302,744 302,747 C302,750 300,752 297,752 C300,752 302,754 302,757 C302,760 300,762 297,762 C300,762 302,764 302,767 C302,770 300,772 297,772 C300,772 302,774 302,777 C302,780 300,782 297,782 C300,782 302,784 302,787 C302,790 300,792 297,792 C297,795 294,797 292,797 C289,797 287,795 287,792 C287,795 284,797 282,797 C279,797 277,795 277,792 C277,795 274,797 272,797 C269,797 267,795 267,792 C267,795 264,797 262,797 C259,797 257,795 257,792 C257,795 254,797 252,797 C249,797 247,795 247,792 C247,795 244,797 242,797 C239,797 237,795 237,792 C237,795 234,797 232,797 C229,797 227,795 227,792 C227,795 224,797 222,797 C219,797 217,795 217,792 C217,795 214,797 212,797 C209,797 207,795 207,792 C207,795 204,797 202,797 C199,797 197,795 197,792 C197,795 194,797 192,797 C189,797 187,795 187,792 C187,795 184,797 182,797 C179,797 177,795 177,792 C177,795 174,797 172,797 C169,797 167,795 167,792 C167,795 164,797 162,797 C159,797 157,795 157,792 C157,795 154,797 152,797 C149,797 147,795 147,792 C147,795 144,797 142,797 C139,797 137,795 137,792 C137,795 134,797 132,797 C129,797 127,795 127,792 C127,795 124,797 122,797 C119,797 117,795 117,792 C117,795 114,797 112,797 C109,797 107,795 107,792 C107,795 104,797 102,797 C99,797 97,795 97,792 C97,795 94,797 92,797 C89,797 87,795 87,792 C87,795 84,797 82,797 C79,797 77,795 77,792 C77,795 74,797 72,797 C69,797 67,795 67,792 C67,795 64,797 62,797 C59,797 57,795 57,792 C57,795 54,797 52,797 C49,797 47,795 47,792 C47,795 44,797 42,797 C39,797 37,795 37,792 C37,795 34,797 32,797 C29,797 27,795 27,792 C27,795 24,797 22,797 C19,797 17,795 17,792 C14,792 12,790 12,787 C12,784 14,782 17,782 C14,782 12,780 12,777 C12,774 14,772 17,772 C14,772 12,770 12,767 C12,764 14,762 17,762 C14,762 12,760 12,757 C12,754 14,752 17,752 C14,752 12,750 12,747 C12,744 14,742 17,742 C14,742 12,740 12,737 C12,734 14,732 17,732 C14,732 12,730 12,727 C12,724 14,722 17,722 C14,722 12,720 12,717 C12,714 14,712 17,712 C14,712 12,710 12,707 C12,704 14,702 17,702 C14,702 12,700 12,697 C12,694 14,692 17,692 C14,692 12,690 12,687 C12,684 14,682 17,682 C14,682 12,680 12,677 C12,674 14,672 17,672 C14,672 12,670 12,667 C12,664 14,662 17,662 C14,662 12,660 12,657 C12,654 14,652 17,652 C14,652 12,650 12,647 C12,644 14,642 17,642 C14,642 12,640 12,637 C12,634 14,632 17,632 C14,632 12,630 12,627 C12,624 14,622 17,622 C14,622 12,620 12,617 C12,614 14,612 17,612 C14,612 12,610 12,607 C12,604 14,602 17,602 C14,602 12,600 12,597 C12,594 14,592 17,592 C14,592 12,590 12,587 C12,584 14,582 17,582 C14,582 12,580 12,577 C12,574 14,572 17,572 C14,572 12,570 12,567 C12,564 14,562 17,562 C14,562 12,560 12,557 C12,554 14,552 17,552 C14,552 12,550 12,547 C12,544 14,542 17,542 C14,542 12,540 12,537 C12,534 14,532 17,532 C14,532 12,530 12,527 C12,524 14,522 17,522 C14,522 12,520 12,517 C12,514 14,512 17,512 C14,512 12,510 12,507 C12,504 14,502 17,502 C14,502 12,500 12,497 C12,494 14,492 17,492 C14,492 12,490 12,487 C12,484 14,482 17,482 C14,482 12,480 12,477 C12,474 14,472 17,472 C14,472 12,470 12,467 C12,464 14,462 17,462 C14,462 12,460 12,457 C12,454 14,452 17,452 C14,452 12,450 12,447 C12,444 14,442 17,442 C14,442 12,440 12,437 C12,434 14,432 17,432 C14,432 12,430 12,427 C12,424 14,422 17,422 C14,422 12,420 12,417 C12,414 14,412 17,412 C14,412 12,410 12,407 C12,404 14,402 17,402 C14,402 12,400 12,397 C12,394 14,392 17,392 C14,392 12,390 12,387 C12,384 14,382 17,382 C14,382 12,380 12,377 C12,374 14,372 17,372 C14,372 12,370 12,367 C12,364 14,362 17,362 C14,362 12,360 12,357 C12,354 14,352 17,352 C14,352 12,350 12,347 C12,344 14,342 17,342 C14,342 12,340 12,337 C12,334 14,332 17,332 C14,332 12,330 12,327 C12,324 14,322 17,322 C14,322 12,320 12,317 C12,314 14,312 17,312 C14,312 12,310 12,307 C12,304 14,302 17,302 C14,302 12,300 12,297 C12,294 14,292 17,292 " fill="#FFFFFF" style="stroke: #000000; stroke-width: 1.5;"/><text fill="#000000" font-family="Helvetica" font-size="14" font-weight="bold" lengthAdjust="spacingAndGlyphs" textLength="54" x="128.5" y="308.7803">PagoPA</text><!--cluster Ente--><path d="M862,173 C862,170 864,168 867,168 C870,168 872,170 872,173 C872,170 874,168 877,168 C880,168 882,170 882,173 C882,170 884,168 887,168 C890,168 892,170 892,173 C892,170 894,168 897,168 C900,168 902,170 902,173 C902,170 904,168 907,168 C910,168 912,170 912,173 C912,170 914,168 917,168 C920,168 922,170 922,173 C922,170 924,168 927,168 C930,168 932,170 932,173 C932,170 934,168 937,168 C940,168 942,170 942,173 C942,170 944,168 947,168 C950,168 952,170 952,173 C952,170 954,168 957,168 C960,168 962,170 962,173 C962,170 964,168 967,168 C970,168 972,170 972,173 C972,170 974,168 977,168 C980,168 982,170 982,173 C982,170 984,168 987,168 C990,168 992,170 992,173 C992,170 994,168 997,168 C1000,168 1002,170 1002,173 C1002,170 1004,168 1007,168 C1010,168 1012,170 1012,173 C1015,173 1017,175 1017,178 C1017,181 1015,183 1012,183 C1015,183 1017,185 1017,188 C1017,191 1015,193 1012,193 C1015,193 1017,195 1017,198 C1017,201 1015,203 1012,203 C1015,203 1017,205 1017,208 C1017,211 1015,213 1012,213 C1015,213 1017,215 1017,218 C1017,221 1015,223 1012,223 C1015,223 1017,225 1017,228 C1017,231 1015,233 1012,233 C1012,236 1009,238 1007,238 C1004,238 1002,236 1002,233 C1002,236 999,238 997,238 C994,238 992,236 992,233 C992,236 989,238 987,238 C984,238 982,236 982,233 C982,236 979,238 977,238 C974,238 972,236 972,233 C972,236 969,238 967,238 C964,238 962,236 962,233 C962,236 959,238 957,238 C954,238 952,236 952,233 C952,236 949,238 947,238 C944,238 942,236 942,233 C942,236 939,238 937,238 C934,238 932,236 932,233 C932,236 929,238 927,238 C924,238 922,236 922,233 C922,236 919,238 917,238 C914,238 912,236 912,233 C912,236 909,238 907,238 C904,238 902,236 902,233 C902,236 899,238 897,238 C894,238 892,236 892,233 C892,236 889,238 887,238 C884,238 882,236 882,233 C882,236 879,238 877,238 C874,238 872,236 872,233 C872,236 869,238 867,238 C864,238 862,236 862,233 C859,233 857,231 857,228 C857,225 859,223 862,223 C859,223 857,221 857,218 C857,215 859,213 862,213 C859,213 857,211 857,208 C857,205 859,203 862,203 C859,203 857,201 857,198 C857,195 859,193 862,193 C859,193 857,191 857,188 C857,185 859,183 862,183 C859,183 857,181 857,178 C857,175 859,173 862,173 " fill="#FFFFFF" style="stroke: #000000; stroke-width: 1.5;"/><text fill="#000000" font-family="Helvetica" font-size="14" font-weight="bold" lengthAdjust="spacingAndGlyphs" textLength="31" x="919.5" y="189.7803">Ente</text><!--entity azureipk8s--><ellipse cx="376" cy="327" fill="#FEFECE" rx="8" ry="8" style="stroke: #A80036; stroke-width: 2.0;"/><text fill="#000000" font-family="Helvetica" font-size="14" lengthAdjust="spacingAndGlyphs" textLength="88" x="332" y="354.7803">IP kubernetes</text><!--entity azureipapigw--><ellipse cx="636" cy="441" fill="#FEFECE" rx="8" ry="8" style="stroke: #A80036; stroke-width: 2.0;"/><text fill="#000000" font-family="Helvetica" font-size="14" lengthAdjust="spacingAndGlyphs" textLength="96" x="588" y="468.7803">IP API gateway</text><!--entity azureipfunctions--><ellipse cx="510" cy="659" fill="#FEFECE" rx="8" ry="8" style="stroke: #A80036; stroke-width: 2.0;"/><text fill="#000000" font-family="Helvetica" font-size="14" lengthAdjust="spacingAndGlyphs" textLength="79" x="470.5" y="686.7803">IP Functions</text><!--entity azureipcosmos--><ellipse cx="376" cy="659" fill="#FEFECE" rx="8" ry="8" style="stroke: #A80036; stroke-width: 2.0;"/><text fill="#000000" font-family="Helvetica" font-size="14" lengthAdjust="spacingAndGlyphs" textLength="88" x="332" y="686.7803">IP CosmosDB</text><!--entity azureipredis--><ellipse cx="773" cy="213" fill="#FEFECE" rx="8" ry="8" style="stroke: #A80036; stroke-width: 2.0;"/><text fill="#000000" font-family="Helvetica" font-size="14" lengthAdjust="spacingAndGlyphs" textLength="102" x="722" y="240.7803">IP Redis Cluster</text><!--entity azureipstorage--><ellipse cx="760" cy="773" fill="#FEFECE" rx="8" ry="8" style="stroke: #A80036; stroke-width: 2.0;"/><text fill="#000000" font-family="Helvetica" font-size="14" lengthAdjust="spacingAndGlyphs" textLength="67" x="726.5" y="800.7803">IP Storage</text><!--entity azureapigwfw--><rect fill="#FEFECE" height="34" style="stroke: #000000; stroke-width: 1.5;" width="69" x="599.5" y="533"/><text fill="#000000" font-family="Helvetica" font-size="14" lengthAdjust="spacingAndGlyphs" textLength="49" x="609.5" y="553.7803">Firewall</text><!--entity azureapigateway--><rect fill="#FEFECE" height="34" style="stroke: #A80036; stroke-width: 1.5;" width="102" x="462" y="533"/><text fill="#000000" font-family="Helvetica" font-size="14" lengthAdjust="spacingAndGlyphs" textLength="82" x="472" y="553.7803">API Gateway</text><!--entity azurefunctionsfw--><rect fill="#FEFECE" height="34" style="stroke: #000000; stroke-width: 1.5;" width="69" x="592.5" y="642"/><text fill="#000000" font-family="Helvetica" font-size="14" lengthAdjust="spacingAndGlyphs" textLength="49" x="602.5" y="662.7803">Firewall</text><!--entity apimessaggi--><polygon fill="#FEFECE" points="696.5,647,706.5,637,823.5,637,823.5,671,813.5,681,696.5,681,696.5,647" style="stroke: #000000; stroke-width: 1.5;"/><line style="stroke: #000000; stroke-width: 1.5;" x1="813.5" x2="822.5" y1="647" y2="638"/><line style="stroke: #000000; stroke-width: 1.5;" x1="696.5" x2="813.5" y1="647" y2="647"/><line style="stroke: #000000; stroke-width: 1.5;" x1="813.5" x2="813.5" y1="647" y2="681"/><text fill="#000000" font-family="Helvetica" font-size="14" lengthAdjust="spacingAndGlyphs" textLength="87" x="711.5" y="667.7803">API Messaggi</text><!--entity azurek8sfw--><rect fill="#FEFECE" height="34" style="stroke: #000000; stroke-width: 1.5;" width="69" x="470.5" y="310"/><text fill="#000000" font-family="Helvetica" font-size="14" lengthAdjust="spacingAndGlyphs" textLength="49" x="480.5" y="330.7803">Firewall</text><!--entity appbackend--><polygon fill="#FEFECE" points="574.5,315,584.5,305,697.5,305,697.5,339,687.5,349,574.5,349,574.5,315" style="stroke: #000000; stroke-width: 1.5;"/><line style="stroke: #000000; stroke-width: 1.5;" x1="687.5" x2="696.5" y1="315" y2="306"/><line style="stroke: #000000; stroke-width: 1.5;" x1="574.5" x2="687.5" y1="315" y2="315"/><line style="stroke: #000000; stroke-width: 1.5;" x1="687.5" x2="687.5" y1="315" y2="349"/><text fill="#000000" font-family="Helvetica" font-size="14" lengthAdjust="spacingAndGlyphs" textLength="83" x="589.5" y="335.7803">App backend</text><!--entity pagopaproxy--><polygon fill="#FEFECE" points="551,201,561,191,679,191,679,225,669,235,551,235,551,201" style="stroke: #000000; stroke-width: 1.5;"/><line style="stroke: #000000; stroke-width: 1.5;" x1="669" x2="678" y1="201" y2="192"/><line style="stroke: #000000; stroke-width: 1.5;" x1="551" x2="669" y1="201" y2="201"/><line style="stroke: #000000; stroke-width: 1.5;" x1="669" x2="669" y1="201" y2="235"/><text fill="#000000" font-family="Helvetica" font-size="14" lengthAdjust="spacingAndGlyphs" textLength="88" x="566" y="221.7803">Pagopa proxy</text><!--entity azurevpnfw--><rect fill="#FEFECE" height="34" style="stroke: #000000; stroke-width: 1.5;" width="69" x="363.5" y="70.5"/><text fill="#000000" font-family="Helvetica" font-size="14" lengthAdjust="spacingAndGlyphs" textLength="49" x="373.5" y="91.2803">Firewall</text><!--entity azurevpngw--><rect fill="#FEFECE" height="34" style="stroke: #000000; stroke-width: 1.5;" width="105" x="333.5" y="196"/><text fill="#000000" font-family="Helvetica" font-size="14" lengthAdjust="spacingAndGlyphs" textLength="85" x="343.5" y="216.7803">VPN gateway</text><!--entity azurecosmosfw--><rect fill="#FEFECE" height="34" style="stroke: #000000; stroke-width: 1.5;" width="69" x="341.5" y="756"/><text fill="#000000" font-family="Helvetica" font-size="14" lengthAdjust="spacingAndGlyphs" textLength="49" x="351.5" y="776.7803">Firewall</text><!--entity dbcosmos--><path d="M330.5,870 C330.5,860 376,860 376,860 C376,860 421.5,860 421.5,870 L421.5,893 C421.5,903 376,903 376,903 C376,903 330.5,903 330.5,893 L330.5,870 " fill="#FEFECE" style="stroke: #000000; stroke-width: 1.5;"/><path d="M330.5,870 C330.5,880 376,880 376,880 C376,880 421.5,880 421.5,870 " fill="none" style="stroke: #000000; stroke-width: 1.5;"/><text fill="#000000" font-family="Helvetica" font-size="14" lengthAdjust="spacingAndGlyphs" textLength="71" x="340.5" y="894.7803">CosmosDB</text><!--entity azureredisfw--><rect fill="#FEFECE" height="34" style="stroke: #000000; stroke-width: 1.5;" width="69" x="663.5" y="70.5"/><text fill="#000000" font-family="Helvetica" font-size="14" lengthAdjust="spacingAndGlyphs" textLength="49" x="673.5" y="91.2803">Firewall</text><!--entity dbredis--><path d="M768,76 C768,66 796,66 796,66 C796,66 824,66 824,76 L824,99 C824,109 796,109 796,109 C796,109 768,109 768,99 L768,76 " fill="#FEFECE" style="stroke: #000000; stroke-width: 1.5;"/><path d="M768,76 C768,86 796,86 796,86 C796,86 824,86 824,76 " fill="none" style="stroke: #000000; stroke-width: 1.5;"/><text fill="#000000" font-family="Helvetica" font-size="14" lengthAdjust="spacingAndGlyphs" textLength="36" x="778" y="100.7803">Redis</text><!--entity azurestoragefw--><rect fill="#FEFECE" height="34" style="stroke: #000000; stroke-width: 1.5;" width="69" x="725.5" y="864.5"/><text fill="#000000" font-family="Helvetica" font-size="14" lengthAdjust="spacingAndGlyphs" textLength="49" x="735.5" y="885.2803">Firewall</text><!--entity dbstorage--><path d="M712.5,973 C712.5,963 760,963 760,963 C760,963 807.5,963 807.5,973 L807.5,1010 C807.5,1020 760,1020 760,1020 C760,1020 712.5,1020 712.5,1010 L712.5,973 " fill="#FEFECE" style="stroke: #000000; stroke-width: 1.5;"/><path d="M712.5,973 C712.5,983 760,983 760,983 C760,983 807.5,983 807.5,973 " fill="none" style="stroke: #000000; stroke-width: 1.5;"/><text fill="#000000" font-family="Helvetica" font-size="14" lengthAdjust="spacingAndGlyphs" textLength="75" x="722.5" y="997.7803">Queue/Blob</text><text fill="#000000" font-family="Helvetica" font-size="14" lengthAdjust="spacingAndGlyphs" textLength="50" x="722.5" y="1011.7803">Storage</text><!--entity pagopaipwallet--><ellipse cx="71" cy="659" fill="#FEFECE" rx="8" ry="8" style="stroke: #A80036; stroke-width: 2.0;"/><text fill="#000000" font-family="Helvetica" font-size="14" lengthAdjust="spacingAndGlyphs" textLength="82" x="30" y="686.7803">IP API Wallet</text><!--entity pagopawalletfw--><rect fill="#FEFECE" height="34" style="stroke: #000000; stroke-width: 1.5;" width="69" x="111.5" y="756"/><text fill="#000000" font-family="Helvetica" font-size="14" lengthAdjust="spacingAndGlyphs" textLength="49" x="121.5" y="776.7803">Firewall</text><!--entity pagopavpngw--><rect fill="#FEFECE" height="34" style="stroke: #000000; stroke-width: 1.5;" width="108" x="178" y="310"/><text fill="#000000" font-family="Helvetica" font-size="14" lengthAdjust="spacingAndGlyphs" textLength="88" x="188" y="330.7803">VPN Gateway</text><!--entity pagopavpnfw--><rect fill="#FEFECE" height="34" style="stroke: #000000; stroke-width: 1.5;" width="69" x="191.5" y="424"/><text fill="#000000" font-family="Helvetica" font-size="14" lengthAdjust="spacingAndGlyphs" textLength="49" x="201.5" y="444.7803">Firewall</text><!--entity pagopawallet--><polygon fill="#FEFECE" points="155,647,165,637,289,637,289,671,279,681,155,681,155,647" style="stroke: #000000; stroke-width: 1.5;"/><line style="stroke: #000000; stroke-width: 1.5;" x1="279" x2="288" y1="647" y2="638"/><line style="stroke: #000000; stroke-width: 1.5;" x1="155" x2="279" y1="647" y2="647"/><line style="stroke: #000000; stroke-width: 1.5;" x1="279" x2="279" y1="647" y2="681"/><text fill="#000000" font-family="Helvetica" font-size="14" lengthAdjust="spacingAndGlyphs" textLength="94" x="170" y="667.7803">Wallet PagoPA</text><!--entity pagopanodo--><polygon fill="#FEFECE" points="158.5,538,168.5,528,287.5,528,287.5,562,277.5,572,158.5,572,158.5,538" style="stroke: #000000; stroke-width: 1.5;"/><line style="stroke: #000000; stroke-width: 1.5;" x1="277.5" x2="286.5" y1="538" y2="529"/><line style="stroke: #000000; stroke-width: 1.5;" x1="158.5" x2="277.5" y1="538" y2="538"/><line style="stroke: #000000; stroke-width: 1.5;" x1="277.5" x2="277.5" y1="538" y2="572"/><text fill="#000000" font-family="Helvetica" font-size="14" lengthAdjust="spacingAndGlyphs" textLength="89" x="173.5" y="558.7803">Nodo PagoPA</text><!--entity serviziovm--><polygon fill="#FEFECE" points="867,201,877,191,1003,191,1003,225,993,235,867,235,867,201" style="stroke: #000000; stroke-width: 1.5;"/><line style="stroke: #000000; stroke-width: 1.5;" x1="993" x2="1002" y1="201" y2="192"/><line style="stroke: #000000; stroke-width: 1.5;" x1="867" x2="993" y1="201" y2="201"/><line style="stroke: #000000; stroke-width: 1.5;" x1="993" x2="993" y1="201" y2="235"/><text fill="#000000" font-family="Helvetica" font-size="14" lengthAdjust="spacingAndGlyphs" textLength="96" x="882" y="221.7803">Server Servizio</text><!--entity Cittadino--><ellipse cx="161" cy="59" fill="#FEFECE" rx="8" ry="8" style="stroke: #A80036; stroke-width: 2.0;"/><path d="M161,67 L161,94 M148,75 L174,75 M161,94 L148,109 M161,94 L174,109 " fill="#FEFECE" style="stroke: #A80036; stroke-width: 2.0;"/><text fill="#000000" font-family="Helvetica" font-size="14" lengthAdjust="spacingAndGlyphs" textLength="56" x="133" y="122.7803">Cittadino</text><!--entity Smartphone--><rect fill="#FEFECE" height="34" style="stroke: #A80036; stroke-width: 1.5;" width="98" x="112" y="196"/><text fill="#000000" font-family="Helvetica" font-size="14" lengthAdjust="spacingAndGlyphs" textLength="78" x="122" y="216.7803">Smartphone</text><!--link Cittadino to Smartphone--><path d="M161,126.1782 C161,149.5131 161,178.0827 161,195.9173 " fill="none" id="Cittadino-Smartphone" style="stroke: #A80036; stroke-width: 1.0; stroke-dasharray: 7.0,7.0;"/><!--link Smartphone to azureipk8s--><path d="M196.8673,230.0629 C226.2221,244.2351 268.6753,265.2069 305,285 C325.3375,296.0818 348.3135,309.9232 362.4785,318.6153 " fill="none" id="Smartphone-azureipk8s" style="stroke: #A80036; stroke-width: 1.0;"/><polygon fill="#A80036" points="366.9279,321.3542,361.3603,313.23,362.6699,318.7332,357.1667,320.0428,366.9279,321.3542" style="stroke: #A80036; stroke-width: 1.0;"/><!--link azureipk8s to azurek8sfw--><path d="M385.2774,333.9944 C402.8396,339.6636 441.7536,341.1447 470.4728,338.4379 " fill="none" id="azureipk8s-azurek8sfw" style="stroke: #A80036; stroke-width: 1.0;"/><polygon fill="#A80036" points="470.4728,338.4379,461.1372,335.3001,465.4949,338.9071,461.8878,343.2648,470.4728,338.4379" style="stroke: #A80036; stroke-width: 1.0;"/><!--link azurek8sfw to appbackend--><path d="M539.541,327 C549.3808,327 559.2206,327 569.0604,327 " fill="none" id="azurek8sfw-appbackend" style="stroke: #A80036; stroke-width: 1.0;"/><polygon fill="#A80036" points="574.206,327,565.206,323,569.206,327,565.206,331,574.206,327" style="stroke: #A80036; stroke-width: 1.0;"/><!--link azureipredis to appbackend--><path d="M759.6816,224.0824 C737.2902,242.7147 691.6985,280.6523 662.5622,304.8972 " fill="none" id="azureipredis-appbackend" style="stroke: #A80036; stroke-width: 1.0;"/><polygon fill="#A80036" points="763.5834,220.8357,754.1068,223.5178,759.74,224.0339,759.2239,229.6672,763.5834,220.8357" style="stroke: #A80036; stroke-width: 1.0;"/><!--link azureredisfw to azureipredis--><path d="M710.8366,108.9799 C727.4702,136.8135 755.7366,184.1126 767.5538,203.8867 " fill="none" id="azureredisfw-azureipredis" style="stroke: #A80036; stroke-width: 1.0;"/><polygon fill="#A80036" points="708.2712,104.6871,709.4546,114.4646,710.8362,108.9791,716.3217,110.3606,708.2712,104.6871" style="stroke: #A80036; stroke-width: 1.0;"/><!--link azureredisfw to dbredis--><path d="M732.8359,87.5 C742.7811,87.5 752.7263,87.5 762.6716,87.5 " fill="none" id="azureredisfw-dbredis" style="stroke: #A80036; stroke-width: 1.0;"/><polygon fill="#A80036" points="767.8723,87.5,758.8723,83.5,762.8723,87.5,758.8723,91.5,767.8723,87.5" style="stroke: #A80036; stroke-width: 1.0;"/><!--link pagopaproxy to appbackend--><path d="M620.0422,240.3719 C623.676,260.0983 628.5177,286.3818 631.9115,304.8051 " fill="none" id="pagopaproxy-appbackend" style="stroke: #A80036; stroke-width: 1.0;"/><polygon fill="#A80036" points="619.0989,235.251,616.7956,244.8267,620.0048,240.1683,624.6632,243.3774,619.0989,235.251" style="stroke: #A80036; stroke-width: 1.0;"/><!--link pagopaproxy to azureipredis--><path d="M679.2646,213 C711.7303,213 747.6381,213 763.9952,213 " fill="none" id="pagopaproxy-azureipredis" style="stroke: #A80036; stroke-width: 1.0;"/><polygon fill="#A80036" points="763.9952,213,754.9952,209,758.9952,213,754.9952,217,763.9952,213" style="stroke: #A80036; stroke-width: 1.0;"/><!--link azurevpnfw to pagopaproxy--><path d="M432.3912,107.3899 C470.3683,129.3536 531.5448,164.7345 572.4953,188.4178 " fill="none" id="azurevpnfw-pagopaproxy" style="stroke: #A80036; stroke-width: 1.0;"/><polygon fill="#A80036" points="576.8891,190.9589,571.1009,182.9904,572.5609,188.4556,567.0957,189.9156,576.8891,190.9589" style="stroke: #A80036; stroke-width: 1.0;"/><polygon fill="#A80036" points="427.7179,104.6871,433.5063,112.6554,432.0462,107.1903,437.5114,105.7301,427.7179,104.6871" style="stroke: #A80036; stroke-width: 1.0;"/><!--link azurevpnfw to azurevpngw--><path d="M395.8782,109.6901 C393.7071,132.3965 390.3505,167.501 388.1641,190.367 " fill="none" id="azurevpnfw-azurevpngw" style="stroke: #A80036; stroke-width: 1.0;"/><polygon fill="#A80036" points="387.662,195.6178,392.5006,187.0395,388.138,190.6405,384.537,186.2779,387.662,195.6178" style="stroke: #A80036; stroke-width: 1.0;"/><polygon fill="#A80036" points="396.3566,104.6871,391.518,113.2654,395.8806,109.6644,399.4816,114.027,396.3566,104.6871" style="stroke: #A80036; stroke-width: 1.0;"/><!--link azurevpngw to pagopavpngw--><path d="M358.7307,233.1864 C330.6873,253.9457 287.2633,286.0908 259.2332,306.8404 " fill="none" id="azurevpngw-pagopavpngw" style="stroke: #A80036; stroke-width: 1.0;"/><polygon fill="#A80036" points="255.213,309.8164,264.8266,307.6766,259.2317,306.8415,260.0668,301.2467,255.213,309.8164" style="stroke: #A80036; stroke-width: 1.0;"/><polygon fill="#A80036" points="362.9446,230.067,353.331,232.2068,358.9259,233.0419,358.0908,238.6367,362.9446,230.067" style="stroke: #A80036; stroke-width: 1.0;"/><!--link Smartphone to pagopaipwallet--><path d="M157.527,230.2104 C143.0104,302.1483 87.3232,578.1095 73.916,644.5495 " fill="none" id="Smartphone-pagopaipwallet" style="stroke: #A80036; stroke-width: 1.0;"/><polygon fill="#A80036" points="72.8874,649.6469,78.5888,641.6161,73.8766,644.7457,70.7469,640.0335,72.8874,649.6469" style="stroke: #A80036; stroke-width: 1.0;"/><!--link pagopaipwallet to pagopawalletfw--><path d="M77.1376,668.3291 C88.9941,686.3511 115.3262,726.3758 131.7754,751.3786 " fill="none" id="pagopaipwallet-pagopawalletfw" style="stroke: #A80036; stroke-width: 1.0;"/><polygon fill="#A80036" points="134.7261,755.8637,133.1212,746.1465,131.978,751.6866,126.4379,750.5434,134.7261,755.8637" style="stroke: #A80036; stroke-width: 1.0;"/><!--link pagopawallet to pagopawalletfw--><path d="M204.363,685.4556 C189.959,707.0615 170.0155,736.9768 157.5686,755.6471 " fill="none" id="pagopawallet-pagopawalletfw" style="stroke: #A80036; stroke-width: 1.0;"/><polygon fill="#A80036" points="207.166,681.251,198.8455,686.5206,204.3925,685.4112,205.5018,690.9582,207.166,681.251" style="stroke: #A80036; stroke-width: 1.0;"/><!--link pagopanodo to pagopawallet--><path d="M222.7513,577.1044 C222.5978,593.836 222.4016,615.2231 222.2482,631.9454 " fill="none" id="pagopanodo-pagopawallet" style="stroke: #A80036; stroke-width: 1.0;"/><polygon fill="#A80036" points="222.2021,636.975,226.2847,628.0122,222.2481,631.9752,218.2851,627.9386,222.2021,636.975" style="stroke: #A80036; stroke-width: 1.0;"/><polygon fill="#A80036" points="222.7976,572.0578,218.715,581.0206,222.7516,577.0576,226.7146,581.0942,222.7976,572.0578" style="stroke: #A80036; stroke-width: 1.0;"/><!--link pagopavpngw to pagopavpnfw--><path d="M230.8238,349.3487 C229.7675,369.4183 228.225,398.7242 227.1705,418.7603 " fill="none" id="pagopavpngw-pagopavpnfw" style="stroke: #A80036; stroke-width: 1.0;"/><polygon fill="#A80036" points="226.9002,423.8964,231.3681,415.1193,227.1632,418.9033,223.3791,414.6985,226.9002,423.8964" style="stroke: #A80036; stroke-width: 1.0;"/><polygon fill="#A80036" points="231.0887,344.3141,226.6211,353.0914,230.8258,349.3072,234.61,353.5119,231.0887,344.3141" style="stroke: #A80036; stroke-width: 1.0;"/><!--link pagopavpnfw to pagopanodo--><path d="M225.3912,463.1204 C224.9169,480.3536 224.2561,504.3632 223.7493,522.7761 " fill="none" id="pagopavpnfw-pagopanodo" style="stroke: #A80036; stroke-width: 1.0;"/><polygon fill="#A80036" points="223.6107,527.8108,227.8568,518.9243,223.7483,522.8127,219.8598,518.7042,223.6107,527.8108" style="stroke: #A80036; stroke-width: 1.0;"/><polygon fill="#A80036" points="225.5313,458.0312,221.2852,466.9177,225.3937,463.0293,229.2822,467.1379,225.5313,458.0312" style="stroke: #A80036; stroke-width: 1.0;"/><!--link serviziovm to azureipapigw--><path d="M906.0589,235.0688 C842.7369,283.3545 693.9719,396.794 649.0626,431.0392 " fill="none" id="serviziovm-azureipapigw" style="stroke: #A80036; stroke-width: 1.0;"/><polygon fill="#A80036" points="645.0472,434.1012,654.6293,431.8247,649.0231,431.0694,649.7784,425.4632,645.0472,434.1012" style="stroke: #A80036; stroke-width: 1.0;"/><!--link azureipapigw to azureapigwfw--><path d="M635.8295,450.2933 C635.5168,467.3325 634.8439,504.0064 634.4072,527.8103 " fill="none" id="azureipapigw-azureapigwfw" style="stroke: #A80036; stroke-width: 1.0;"/><polygon fill="#A80036" points="634.3124,532.9762,638.4771,524.0512,634.4043,527.977,630.4784,523.9042,634.3124,532.9762" style="stroke: #A80036; stroke-width: 1.0;"/><!--link azureapigateway to azureapigwfw--><path d="M569.2793,550 C579.2851,550 589.2909,550 599.2967,550 " fill="none" id="azureapigateway-azureapigwfw" style="stroke: #A80036; stroke-width: 1.0;"/><polygon fill="#A80036" points="564.0469,550,573.0469,554,569.0469,550,573.0469,546,564.0469,550" style="stroke: #A80036; stroke-width: 1.0;"/><!--link appbackend to azureipapigw--><path d="M636,349.251 C636,372.2316 636,407.3982 636,426.842 " fill="none" id="appbackend-azureipapigw" style="stroke: #A80036; stroke-width: 1.0;"/><polygon fill="#A80036" points="636,431.8861,640,422.8861,636,426.8861,632,422.8861,636,431.8861" style="stroke: #A80036; stroke-width: 1.0;"/><!--link azureapigateway to azureipfunctions--><path d="M512.5313,567.0312 C511.9438,588.3759 510.9473,624.582 510.3961,644.6074 " fill="none" id="azureapigateway-azureipfunctions" style="stroke: #A80036; stroke-width: 1.0;"/><polygon fill="#A80036" points="510.2532,649.8007,514.4993,640.9142,510.3908,644.8026,506.5023,640.6941,510.2532,649.8007" style="stroke: #A80036; stroke-width: 1.0;"/><!--link azureipfunctions to azurefunctionsfw--><path d="M519.1808,666.259 C534.7493,671.4739 567.0945,672.9743 592.3167,670.7602 " fill="none" id="azureipfunctions-azurefunctionsfw" style="stroke: #A80036; stroke-width: 1.0;"/><polygon fill="#A80036" points="592.3167,670.7602,583.0014,667.5626,587.3359,671.1974,583.701,675.5319,592.3167,670.7602" style="stroke: #A80036; stroke-width: 1.0;"/><!--link azurefunctionsfw to apimessaggi--><path d="M661.5488,659 C671.3735,659 681.1982,659 691.0229,659 " fill="none" id="azurefunctionsfw-apimessaggi" style="stroke: #A80036; stroke-width: 1.0;"/><polygon fill="#A80036" points="696.1606,659,687.1606,655,691.1606,659,687.1606,663,696.1606,659" style="stroke: #A80036; stroke-width: 1.0;"/><!--link apimessaggi to azureipcosmos--><path d="M735.7996,636.9452 C717.0523,621.4361 689.612,601.9936 661.5,593.5 C619.3805,580.7742 505.2484,579.6051 463.5,593.5 C432.2956,603.8856 403.2381,630.2298 387.7225,646.1645 " fill="none" id="apimessaggi-azureipcosmos" style="stroke: #A80036; stroke-width: 1.0;"/><polygon fill="#A80036" points="384.0766,649.9754,393.1886,646.2376,387.5331,646.3626,387.4081,640.7071,384.0766,649.9754" style="stroke: #A80036; stroke-width: 1.0;"/><!--link azureipcosmos to azurecosmosfw--><path d="M376,668.3291 C376,686.2015 376,725.713 376,750.753 " fill="none" id="azureipcosmos-azurecosmosfw" style="stroke: #A80036; stroke-width: 1.0;"/><polygon fill="#A80036" points="376,755.8637,380,746.8637,376,750.8637,372,746.8637,376,755.8637" style="stroke: #A80036; stroke-width: 1.0;"/><!--link azurecosmosfw to dbcosmos--><path d="M376,790.4324 C376,807.699 376,834.3872 376,854.4163 " fill="none" id="azurecosmosfw-dbcosmos" style="stroke: #A80036; stroke-width: 1.0;"/><polygon fill="#A80036" points="376,859.6148,380,850.6148,376,854.6148,372,850.6148,376,859.6148" style="stroke: #A80036; stroke-width: 1.0;"/><!--link apimessaggi to azureipstorage--><path d="M760,681.251 C760,704.2316 760,739.3982 760,758.842 " fill="none" id="apimessaggi-azureipstorage" style="stroke: #A80036; stroke-width: 1.0;"/><polygon fill="#A80036" points="760,763.8861,764,754.8861,760,758.8861,756,754.8861,760,763.8861" style="stroke: #A80036; stroke-width: 1.0;"/><!--link azureipstorage to azurestoragefw--><path d="M760,782.2506 C760,799.1164 760,835.3078 760,859.0115 " fill="none" id="azureipstorage-azurestoragefw" style="stroke: #A80036; stroke-width: 1.0;"/><polygon fill="#A80036" points="760,864.1616,764,855.1616,760,859.1616,756,855.1616,760,864.1616" style="stroke: #A80036; stroke-width: 1.0;"/><!--link azurestoragefw to dbstorage--><path d="M760,898.6875 C760,914.3734 760,938.0124 760,957.5073 " fill="none" id="azurestoragefw-dbstorage" style="stroke: #A80036; stroke-width: 1.0;"/><polygon fill="#A80036" points="760,962.8859,764,953.8859,760,957.8859,756,953.8859,760,962.8859" style="stroke: #A80036; stroke-width: 1.0;"/><!--
@startuml
skinparamlocked shadowing false
skinparamlocked DefaultFontName Helvetica

actor Cittadino

agent Smartphone

cloud "Regione Azure" {
  interface "IP kubernetes" as azureipk8s
  interface "IP API gateway" as azureipapigw
  interface "IP Functions" as azureipfunctions
  interface "IP CosmosDB" as azureipcosmos
  interface "IP Redis Cluster" as azureipredis
  interface "IP Storage" as azureipstorage

  rectangle "VNet API Gateway" {
    rectangle "Firewall" as azureapigwfw
    agent "API Gateway" as azureapigateway
  }

  rectangle "VNet Functions" {
    rectangle "Firewall" as azurefunctionsfw
    node "API Messaggi" as apimessaggi
  }

  rectangle "VNet Kubernetes" {
    rectangle "Firewall" as azurek8sfw
    node "App backend" as appbackend
    node "Pagopa proxy" as pagopaproxy
  }

  rectangle "VNet Pagopa VPN" {
    rectangle "Firewall" as azurevpnfw
    rectangle "VPN gateway" as azurevpngw
  }

  rectangle "VNet CosmosDB" {
    rectangle "Firewall" as azurecosmosfw
    database "CosmosDB" as dbcosmos
  }

  rectangle "VNet Redis cluster" {
    rectangle "Firewall" as azureredisfw
    database "Redis" as dbredis
  }

  rectangle "VNet storage" {
    rectangle "Firewall" as azurestoragefw
    database "Queue/Blob\nStorage" as dbstorage
  }

}

cloud "PagoPA" {
  interface "IP API Wallet" as pagopaipwallet
  rectangle "Firewall" as pagopawalletfw
  rectangle "VPN Gateway" as pagopavpngw
  rectangle "Firewall" as pagopavpnfw
  node "Wallet PagoPA" as pagopawallet
  node "Nodo PagoPA" as pagopanodo
}

cloud "Ente" {
  node "Server Servizio" as serviziovm
}


Cittadino .. Smartphone

Smartphone - -> azureipk8s
azureipk8s -r-> azurek8sfw
azurek8sfw -r-> appbackend
appbackend -up-> azureipredis
azureipredis -u-> azureredisfw
azureredisfw -r-> dbredis
appbackend -u-> pagopaproxy
pagopaproxy -r-> azureipredis
pagopaproxy <-u-> azurevpnfw
azurevpnfw <-d-> azurevpngw
azurevpngw <- -> pagopavpngw

Smartphone - -> pagopaipwallet
pagopaipwallet -d-> pagopawalletfw
pagopawalletfw -u-> pagopawallet
pagopawallet <-u-> pagopanodo
pagopavpngw <-d-> pagopavpnfw
pagopavpnfw <-d-> pagopanodo

serviziovm -down- -> azureipapigw
azureipapigw -d-> azureapigwfw
azureapigwfw -l-> azureapigateway
appbackend - -> azureipapigw

azureapigateway -d-> azureipfunctions
azureipfunctions -r-> azurefunctionsfw
azurefunctionsfw -r-> apimessaggi

apimessaggi -r-> azureipcosmos
azureipcosmos -d-> azurecosmosfw
azurecosmosfw -d-> dbcosmos

apimessaggi -d-> azureipstorage
azureipstorage -d-> azurestoragefw
azurestoragefw -d-> dbstorage

@enduml

PlantUML version 1.2018.00(Thu Jan 04 20:42:56 CET 2018)
(GPL source distribution)
Java Runtime: Java(TM) SE Runtime Environment
JVM: Java HotSpot(TM) 64-Bit Server VM
Java Version: 1.8.0_66-b17
Operating System: Mac OS X
OS Version: 10.13.4
Default Encoding: UTF-8
Language: en
Country: US
--></g></svg>