<?xml version="1.0" encoding="UTF-8" standalone="no"?><svg xmlns="http://www.w3.org/2000/svg" xmlns:xlink="http://www.w3.org/1999/xlink" contentScriptType="application/ecmascript" contentStyleType="text/css" height="440px" preserveAspectRatio="none" style="width:808px;height:440px;" version="1.1" viewBox="0 0 808 440" width="808px" zoomAndPan="magnify"><defs/><g><!--cluster Azure--><path d="M17,23 C17,20 19,18 22,18 C25,18 27,20 27,23 C27,20 29,18 32,18 C35,18 37,20 37,23 C37,20 39,18 42,18 C45,18 47,20 47,23 C47,20 49,18 52,18 C55,18 57,20 57,23 C57,20 59,18 62,18 C65,18 67,20 67,23 C67,20 69,18 72,18 C75,18 77,20 77,23 C77,20 79,18 82,18 C85,18 87,20 87,23 C87,20 89,18 92,18 C95,18 97,20 97,23 C97,20 99,18 102,18 C105,18 107,20 107,23 C107,20 109,18 112,18 C115,18 117,20 117,23 C117,20 119,18 122,18 C125,18 127,20 127,23 C127,20 129,18 132,18 C135,18 137,20 137,23 C137,20 139,18 142,18 C145,18 147,20 147,23 C147,20 149,18 152,18 C155,18 157,20 157,23 C157,20 159,18 162,18 C165,18 167,20 167,23 C167,20 169,18 172,18 C175,18 177,20 177,23 C177,20 179,18 182,18 C185,18 187,20 187,23 C187,20 189,18 192,18 C195,18 197,20 197,23 C197,20 199,18 202,18 C205,18 207,20 207,23 C207,20 209,18 212,18 C215,18 217,20 217,23 C217,20 219,18 222,18 C225,18 227,20 227,23 C227,20 229,18 232,18 C235,18 237,20 237,23 C237,20 239,18 242,18 C245,18 247,20 247,23 C247,20 249,18 252,18 C255,18 257,20 257,23 C257,20 259,18 262,18 C265,18 267,20 267,23 C267,20 269,18 272,18 C275,18 277,20 277,23 C277,20 279,18 282,18 C285,18 287,20 287,23 C287,20 289,18 292,18 C295,18 297,20 297,23 C297,20 299,18 302,18 C305,18 307,20 307,23 C307,20 309,18 312,18 C315,18 317,20 317,23 C317,20 319,18 322,18 C325,18 327,20 327,23 C327,20 329,18 332,18 C335,18 337,20 337,23 C337,20 339,18 342,18 C345,18 347,20 347,23 C347,20 349,18 352,18 C355,18 357,20 357,23 C357,20 359,18 362,18 C365,18 367,20 367,23 C367,20 369,18 372,18 C375,18 377,20 377,23 C377,20 379,18 382,18 C385,18 387,20 387,23 C387,20 389,18 392,18 C395,18 397,20 397,23 C397,20 399,18 402,18 C405,18 407,20 407,23 C407,20 409,18 412,18 C415,18 417,20 417,23 C417,20 419,18 422,18 C425,18 427,20 427,23 C427,20 429,18 432,18 C435,18 437,20 437,23 C437,20 439,18 442,18 C445,18 447,20 447,23 C447,20 449,18 452,18 C455,18 457,20 457,23 C457,20 459,18 462,18 C465,18 467,20 467,23 C467,20 469,18 472,18 C475,18 477,20 477,23 C477,20 479,18 482,18 C485,18 487,20 487,23 C487,20 489,18 492,18 C495,18 497,20 497,23 C497,20 499,18 502,18 C505,18 507,20 507,23 C507,20 509,18 512,18 C515,18 517,20 517,23 C517,20 519,18 522,18 C525,18 527,20 527,23 C527,20 529,18 532,18 C535,18 537,20 537,23 C540,23 542,25 542,28 C542,31 540,33 537,33 C540,33 542,35 542,38 C542,41 540,43 537,43 C540,43 542,45 542,48 C542,51 540,53 537,53 C540,53 542,55 542,58 C542,61 540,63 537,63 C540,63 542,65 542,68 C542,71 540,73 537,73 C540,73 542,75 542,78 C542,81 540,83 537,83 C540,83 542,85 542,88 C542,91 540,93 537,93 C540,93 542,95 542,98 C542,101 540,103 537,103 C540,103 542,105 542,108 C542,111 540,113 537,113 C540,113 542,115 542,118 C542,121 540,123 537,123 C540,123 542,125 542,128 C542,131 540,133 537,133 C540,133 542,135 542,138 C542,141 540,143 537,143 C540,143 542,145 542,148 C542,151 540,153 537,153 C540,153 542,155 542,158 C542,161 540,163 537,163 C540,163 542,165 542,168 C542,171 540,173 537,173 C540,173 542,175 542,178 C542,181 540,183 537,183 C540,183 542,185 542,188 C542,191 540,193 537,193 C540,193 542,195 542,198 C542,201 540,203 537,203 C540,203 542,205 542,208 C542,211 540,213 537,213 C540,213 542,215 542,218 C542,221 540,223 537,223 C540,223 542,225 542,228 C542,231 540,233 537,233 C540,233 542,235 542,238 C542,241 540,243 537,243 C540,243 542,245 542,248 C542,251 540,253 537,253 C540,253 542,255 542,258 C542,261 540,263 537,263 C540,263 542,265 542,268 C542,271 540,273 537,273 C540,273 542,275 542,278 C542,281 540,283 537,283 C540,283 542,285 542,288 C542,291 540,293 537,293 C540,293 542,295 542,298 C542,301 540,303 537,303 C540,303 542,305 542,308 C542,311 540,313 537,313 C540,313 542,315 542,318 C542,321 540,323 537,323 C540,323 542,325 542,328 C542,331 540,333 537,333 C540,333 542,335 542,338 C542,341 540,343 537,343 C540,343 542,345 542,348 C542,351 540,353 537,353 C540,353 542,355 542,358 C542,361 540,363 537,363 C540,363 542,365 542,368 C542,371 540,373 537,373 C540,373 542,375 542,378 C542,381 540,383 537,383 C540,383 542,385 542,388 C542,391 540,393 537,393 C540,393 542,395 542,398 C542,401 540,403 537,403 C540,403 542,405 542,408 C542,411 540,413 537,413 C540,413 542,415 542,418 C542,421 540,423 537,423 C537,426 534,428 532,428 C529,428 527,426 527,423 C527,426 524,428 522,428 C519,428 517,426 517,423 C517,426 514,428 512,428 C509,428 507,426 507,423 C507,426 504,428 502,428 C499,428 497,426 497,423 C497,426 494,428 492,428 C489,428 487,426 487,423 C487,426 484,428 482,428 C479,428 477,426 477,423 C477,426 474,428 472,428 C469,428 467,426 467,423 C467,426 464,428 462,428 C459,428 457,426 457,423 C457,426 454,428 452,428 C449,428 447,426 447,423 C447,426 444,428 442,428 C439,428 437,426 437,423 C437,426 434,428 432,428 C429,428 427,426 427,423 C427,426 424,428 422,428 C419,428 417,426 417,423 C417,426 414,428 412,428 C409,428 407,426 407,423 C407,426 404,428 402,428 C399,428 397,426 397,423 C397,426 394,428 392,428 C389,428 387,426 387,423 C387,426 384,428 382,428 C379,428 377,426 377,423 C377,426 374,428 372,428 C369,428 367,426 367,423 C367,426 364,428 362,428 C359,428 357,426 357,423 C357,426 354,428 352,428 C349,428 347,426 347,423 C347,426 344,428 342,428 C339,428 337,426 337,423 C337,426 334,428 332,428 C329,428 327,426 327,423 C327,426 324,428 322,428 C319,428 317,426 317,423 C317,426 314,428 312,428 C309,428 307,426 307,423 C307,426 304,428 302,428 C299,428 297,426 297,423 C297,426 294,428 292,428 C289,428 287,426 287,423 C287,426 284,428 282,428 C279,428 277,426 277,423 C277,426 274,428 272,428 C269,428 267,426 267,423 C267,426 264,428 262,428 C259,428 257,426 257,423 C257,426 254,428 252,428 C249,428 247,426 247,423 C247,426 244,428 242,428 C239,428 237,426 237,423 C237,426 234,428 232,428 C229,428 227,426 227,423 C227,426 224,428 222,428 C219,428 217,426 217,423 C217,426 214,428 212,428 C209,428 207,426 207,423 C207,426 204,428 202,428 C199,428 197,426 197,423 C197,426 194,428 192,428 C189,428 187,426 187,423 C187,426 184,428 182,428 C179,428 177,426 177,423 C177,426 174,428 172,428 C169,428 167,426 167,423 C167,426 164,428 162,428 C159,428 157,426 157,423 C157,426 154,428 152,428 C149,428 147,426 147,423 C147,426 144,428 142,428 C139,428 137,426 137,423 C137,426 134,428 132,428 C129,428 127,426 127,423 C127,426 124,428 122,428 C119,428 117,426 117,423 C117,426 114,428 112,428 C109,428 107,426 107,423 C107,426 104,428 102,428 C99,428 97,426 97,423 C97,426 94,428 92,428 C89,428 87,426 87,423 C87,426 84,428 82,428 C79,428 77,426 77,423 C77,426 74,428 72,428 C69,428 67,426 67,423 C67,426 64,428 62,428 C59,428 57,426 57,423 C57,426 54,428 52,428 C49,428 47,426 47,423 C47,426 44,428 42,428 C39,428 37,426 37,423 C37,426 34,428 32,428 C29,428 27,426 27,423 C27,426 24,428 22,428 C19,428 17,426 17,423 C14,423 12,421 12,418 C12,415 14,413 17,413 C14,413 12,411 12,408 C12,405 14,403 17,403 C14,403 12,401 12,398 C12,395 14,393 17,393 C14,393 12,391 12,388 C12,385 14,383 17,383 C14,383 12,381 12,378 C12,375 14,373 17,373 C14,373 12,371 12,368 C12,365 14,363 17,363 C14,363 12,361 12,358 C12,355 14,353 17,353 C14,353 12,351 12,348 C12,345 14,343 17,343 C14,343 12,341 12,338 C12,335 14,333 17,333 C14,333 12,331 12,328 C12,325 14,323 17,323 C14,323 12,321 12,318 C12,315 14,313 17,313 C14,313 12,311 12,308 C12,305 14,303 17,303 C14,303 12,301 12,298 C12,295 14,293 17,293 C14,293 12,291 12,288 C12,285 14,283 17,283 C14,283 12,281 12,278 C12,275 14,273 17,273 C14,273 12,271 12,268 C12,265 14,263 17,263 C14,263 12,261 12,258 C12,255 14,253 17,253 C14,253 12,251 12,248 C12,245 14,243 17,243 C14,243 12,241 12,238 C12,235 14,233 17,233 C14,233 12,231 12,228 C12,225 14,223 17,223 C14,223 12,221 12,218 C12,215 14,213 17,213 C14,213 12,211 12,208 C12,205 14,203 17,203 C14,203 12,201 12,198 C12,195 14,193 17,193 C14,193 12,191 12,188 C12,185 14,183 17,183 C14,183 12,181 12,178 C12,175 14,173 17,173 C14,173 12,171 12,168 C12,165 14,163 17,163 C14,163 12,161 12,158 C12,155 14,153 17,153 C14,153 12,151 12,148 C12,145 14,143 17,143 C14,143 12,141 12,138 C12,135 14,133 17,133 C14,133 12,131 12,128 C12,125 14,123 17,123 C14,123 12,121 12,118 C12,115 14,113 17,113 C14,113 12,111 12,108 C12,105 14,103 17,103 C14,103 12,101 12,98 C12,95 14,93 17,93 C14,93 12,91 12,88 C12,85 14,83 17,83 C14,83 12,81 12,78 C12,75 14,73 17,73 C14,73 12,71 12,68 C12,65 14,63 17,63 C14,63 12,61 12,58 C12,55 14,53 17,53 C14,53 12,51 12,48 C12,45 14,43 17,43 C14,43 12,41 12,38 C12,35 14,33 17,33 C14,33 12,31 12,28 C12,25 14,23 17,23 " fill="#FFFFFF" style="stroke: #000000; stroke-width: 1.5;"/><text fill="#000000" font-family="Helvetica" font-size="14" font-weight="bold" lengthAdjust="spacingAndGlyphs" textLength="39" x="257.5" y="39.7803">Azure</text><!--entity azureapigateway--><rect fill="#FEFECE" height="34" style="stroke: #A80036; stroke-width: 1.5;" width="102" x="420" y="163"/><text fill="#000000" font-family="Helvetica" font-size="14" lengthAdjust="spacingAndGlyphs" textLength="82" x="430" y="183.7803">API Gateway</text><!--entity azurefunctions--><polygon fill="#FEFECE" points="289,272,299,262,391,262,391,296,381,306,289,306,289,272" style="stroke: #000000; stroke-width: 1.5;"/><line style="stroke: #000000; stroke-width: 1.5;" x1="381" x2="390" y1="272" y2="263"/><line style="stroke: #000000; stroke-width: 1.5;" x1="289" x2="381" y1="272" y2="272"/><line style="stroke: #000000; stroke-width: 1.5;" x1="381" x2="381" y1="272" y2="306"/><text fill="#000000" font-family="Helvetica" font-size="14" lengthAdjust="spacingAndGlyphs" textLength="62" x="304" y="292.7803">Functions</text><!--entity azureaks--><polygon fill="#FEFECE" points="231,168,241,158,385,158,385,192,375,202,231,202,231,168" style="stroke: #000000; stroke-width: 1.5;"/><line style="stroke: #000000; stroke-width: 1.5;" x1="375" x2="384" y1="168" y2="159"/><line style="stroke: #000000; stroke-width: 1.5;" x1="231" x2="375" y1="168" y2="168"/><line style="stroke: #000000; stroke-width: 1.5;" x1="375" x2="375" y1="168" y2="202"/><text fill="#000000" font-family="Helvetica" font-size="14" lengthAdjust="spacingAndGlyphs" textLength="114" x="246" y="188.7803">Kubernetes (AKS)</text><!--entity azurevpngw--><rect fill="#FEFECE" height="34" style="stroke: #000000; stroke-width: 1.5;" width="105" x="426.5" y="267"/><text fill="#000000" font-family="Helvetica" font-size="14" lengthAdjust="spacingAndGlyphs" textLength="85" x="436.5" y="287.7803">VPN gateway</text><!--entity notificationhubs--><rect fill="#FEFECE" height="34" style="stroke: #000000; stroke-width: 1.5;" width="127" x="314.5" y="52.5"/><text fill="#000000" font-family="Helvetica" font-size="14" lengthAdjust="spacingAndGlyphs" textLength="107" x="324.5" y="73.2803">Notification Hubs</text><!--entity dbcosmos--><path d="M162.5,272.5 C162.5,262.5 208,262.5 208,262.5 C208,262.5 253.5,262.5 253.5,272.5 L253.5,295.5 C253.5,305.5 208,305.5 208,305.5 C208,305.5 162.5,305.5 162.5,295.5 L162.5,272.5 " fill="#FEFECE" style="stroke: #000000; stroke-width: 1.5;"/><path d="M162.5,272.5 C162.5,282.5 208,282.5 208,282.5 C208,282.5 253.5,282.5 253.5,272.5 " fill="none" style="stroke: #000000; stroke-width: 1.5;"/><text fill="#000000" font-family="Helvetica" font-size="14" lengthAdjust="spacingAndGlyphs" textLength="71" x="172.5" y="297.2803">CosmosDB</text><!--entity dbredis--><path d="M22.5,272.5 C22.5,262.5 75,262.5 75,262.5 C75,262.5 127.5,262.5 127.5,272.5 L127.5,295.5 C127.5,305.5 75,305.5 75,305.5 C75,305.5 22.5,305.5 22.5,295.5 L22.5,272.5 " fill="#FEFECE" style="stroke: #000000; stroke-width: 1.5;"/><path d="M22.5,272.5 C22.5,282.5 75,282.5 75,282.5 C75,282.5 127.5,282.5 127.5,272.5 " fill="none" style="stroke: #000000; stroke-width: 1.5;"/><text fill="#000000" font-family="Helvetica" font-size="14" lengthAdjust="spacingAndGlyphs" textLength="85" x="32.5" y="297.2803">Redis Cluster</text><!--entity dbstorage--><path d="M292.5,376 C292.5,366 340,366 340,366 C340,366 387.5,366 387.5,376 L387.5,413 C387.5,423 340,423 340,423 C340,423 292.5,423 292.5,413 L292.5,376 " fill="#FEFECE" style="stroke: #000000; stroke-width: 1.5;"/><path d="M292.5,376 C292.5,386 340,386 340,386 C340,386 387.5,386 387.5,376 " fill="none" style="stroke: #000000; stroke-width: 1.5;"/><text fill="#000000" font-family="Helvetica" font-size="14" lengthAdjust="spacingAndGlyphs" textLength="75" x="302.5" y="400.7803">Queue/Blob</text><text fill="#000000" font-family="Helvetica" font-size="14" lengthAdjust="spacingAndGlyphs" textLength="50" x="302.5" y="414.7803">Storage</text><!--entity appinsights--><path d="M146.5,51 C146.5,41 191,41 191,41 C191,41 235.5,41 235.5,51 L235.5,88 C235.5,98 191,98 191,98 C191,98 146.5,98 146.5,88 L146.5,51 " fill="#FEFECE" style="stroke: #000000; stroke-width: 1.5;"/><path d="M146.5,51 C146.5,61 191,61 191,61 C191,61 235.5,61 235.5,51 " fill="none" style="stroke: #000000; stroke-width: 1.5;"/><text fill="#000000" font-family="Helvetica" font-size="14" lengthAdjust="spacingAndGlyphs" textLength="69" x="156.5" y="75.7803">Application</text><text fill="#000000" font-family="Helvetica" font-size="14" lengthAdjust="spacingAndGlyphs" textLength="49" x="156.5" y="89.7803">Insights</text><!--entity Smartphone--><rect fill="#FEFECE" height="34" style="stroke: #A80036; stroke-width: 1.5;" width="90" x="548" y="52.5"/><text fill="#000000" font-family="Helvetica" font-size="14" lengthAdjust="spacingAndGlyphs" textLength="70" x="558" y="73.2803">ios/android</text><!--entity PagoPA--><polygon fill="#FEFECE" points="695.5,168,705.5,158,786.5,158,786.5,192,776.5,202,695.5,202,695.5,168" style="stroke: #000000; stroke-width: 1.5;"/><line style="stroke: #000000; stroke-width: 1.5;" x1="776.5" x2="785.5" y1="168" y2="159"/><line style="stroke: #000000; stroke-width: 1.5;" x1="695.5" x2="776.5" y1="168" y2="168"/><line style="stroke: #000000; stroke-width: 1.5;" x1="776.5" x2="776.5" y1="168" y2="202"/><text fill="#000000" font-family="Helvetica" font-size="14" lengthAdjust="spacingAndGlyphs" textLength="51" x="710.5" y="188.7803">PagoPA</text><!--entity servizio--><rect fill="#FEFECE" height="34" style="stroke: #A80036; stroke-width: 1.5;" width="103" x="557.5" y="163"/><text fill="#000000" font-family="Helvetica" font-size="14" lengthAdjust="spacingAndGlyphs" textLength="83" x="567.5" y="183.7803">Servizio Ente</text><!--entity MixPanel--><polygon fill="#FEFECE" points="673,57.5,683,47.5,771,47.5,771,81.5,761,91.5,673,91.5,673,57.5" style="stroke: #000000; stroke-width: 1.5;"/><line style="stroke: #000000; stroke-width: 1.5;" x1="761" x2="770" y1="57.5" y2="48.5"/><line style="stroke: #000000; stroke-width: 1.5;" x1="673" x2="761" y1="57.5" y2="57.5"/><line style="stroke: #000000; stroke-width: 1.5;" x1="761" x2="761" y1="57.5" y2="91.5"/><text fill="#000000" font-family="Helvetica" font-size="14" lengthAdjust="spacingAndGlyphs" textLength="58" x="688" y="78.2803">MixPanel</text><!--entity MailUp--><polygon fill="#FEFECE" points="548,382.5,558,372.5,632,372.5,632,406.5,622,416.5,548,416.5,548,382.5" style="stroke: #000000; stroke-width: 1.5;"/><line style="stroke: #000000; stroke-width: 1.5;" x1="622" x2="631" y1="382.5" y2="373.5"/><line style="stroke: #000000; stroke-width: 1.5;" x1="548" x2="622" y1="382.5" y2="382.5"/><line style="stroke: #000000; stroke-width: 1.5;" x1="622" x2="622" y1="382.5" y2="416.5"/><text fill="#000000" font-family="Helvetica" font-size="14" lengthAdjust="spacingAndGlyphs" textLength="44" x="563" y="403.2803">MailUp</text><!--link Smartphone to azureaks--><path d="M565.7673,86.5812 C558.8091,90.5975 551.2437,94.6726 544,98 C493.5156,121.1903 434.4717,141.7018 388.071,156.41 " fill="none" id="Smartphone-azureaks" style="stroke: #A80036; stroke-width: 1.0;"/><polygon fill="#A80036" points="383.0502,157.9946,392.8368,159.1005,387.8184,156.4898,390.4291,151.4714,383.0502,157.9946" style="stroke: #A80036; stroke-width: 1.0;"/><!--link azureaks to dbredis--><path d="M258.5867,202.0557 C220.3336,219.13 167.4421,242.7383 128.2525,260.2306 " fill="none" id="azureaks-dbredis" style="stroke: #A80036; stroke-width: 1.0;"/><polygon fill="#A80036" points="123.5431,262.3327,133.3919,262.317,128.1089,260.2947,130.1312,255.0117,123.5431,262.3327" style="stroke: #A80036; stroke-width: 1.0;"/><!--link azureaks to azureapigateway--><path d="M385.043,180 C394.9552,180 404.8674,180 414.7796,180 " fill="none" id="azureaks-azureapigateway" style="stroke: #A80036; stroke-width: 1.0;"/><polygon fill="#A80036" points="419.963,180,410.963,176,414.963,180,410.963,184,419.963,180" style="stroke: #A80036; stroke-width: 1.0;"/><!--link notificationhubs to azureaks--><path d="M364.0839,91.4675 C351.8802,110.7319 334.2251,138.6018 321.9973,157.9043 " fill="none" id="notificationhubs-azureaks" style="stroke: #A80036; stroke-width: 1.0;"/><polygon fill="#A80036" points="367.0625,86.7656,358.8671,92.2277,364.3867,90.9894,365.6251,96.509,367.0625,86.7656" style="stroke: #A80036; stroke-width: 1.0;"/><!--link azureapigateway to azurefunctions--><path d="M449.368,197.1735 C428.3467,213.8621 396.1688,239.408 372.1504,258.476 " fill="none" id="azureapigateway-azurefunctions" style="stroke: #A80036; stroke-width: 1.0;"/><polygon fill="#A80036" points="368.0676,261.7173,377.6035,259.2542,371.9836,258.6084,372.6293,252.9886,368.0676,261.7173" style="stroke: #A80036; stroke-width: 1.0;"/><!--link dbcosmos to azurefunctions--><path d="M258.841,284 C268.8005,284 278.76,284 288.7195,284 " fill="none" id="dbcosmos-azurefunctions" style="stroke: #A80036; stroke-width: 1.0;"/><polygon fill="#A80036" points="253.6328,284,262.6328,288,258.6328,284,262.6328,280,253.6328,284" style="stroke: #A80036; stroke-width: 1.0;"/><!--link azurefunctions to dbstorage--><path d="M340,306.0957 C340,321.6208 340,342.6881 340,360.3625 " fill="none" id="azurefunctions-dbstorage" style="stroke: #A80036; stroke-width: 1.0;"/><polygon fill="#A80036" points="340,365.7289,344,356.7289,340,360.7289,336,356.7289,340,365.7289" style="stroke: #A80036; stroke-width: 1.0;"/><!--link azurefunctions to azureaks--><path d="M333.2234,261.9761 C328.3043,245.9891 321.619,224.2616 316.3668,207.1921 " fill="none" id="azurefunctions-azureaks" style="stroke: #A80036; stroke-width: 1.0;"/><polygon fill="#A80036" points="314.7864,202.0557,313.6101,211.8341,316.2568,206.8346,321.2563,209.4814,314.7864,202.0557" style="stroke: #A80036; stroke-width: 1.0;"/><!--link azureaks to azurevpngw--><path d="M348.8334,204.8344 C378.7734,223.0435 418.8737,247.4319 446.6172,264.3052 " fill="none" id="azureaks-azurevpngw" style="stroke: #A80036; stroke-width: 1.0;"/><polygon fill="#A80036" points="450.9603,266.9466,445.3494,258.8523,446.6884,264.3484,441.1923,265.6873,450.9603,266.9466" style="stroke: #A80036; stroke-width: 1.0;"/><polygon fill="#A80036" points="344.2647,202.0557,349.8757,210.1499,348.5367,204.6538,354.0327,203.3147,344.2647,202.0557" style="stroke: #A80036; stroke-width: 1.0;"/><!--link PagoPA to azurevpngw--><path d="M690.7057,199.9641 C643.3926,218.7449 573.068,246.66 526.6401,265.0894 " fill="none" id="PagoPA-azurevpngw" style="stroke: #A80036; stroke-width: 1.0;"/><polygon fill="#A80036" points="521.9431,266.9539,531.784,267.3509,526.5903,265.109,528.8321,259.9154,521.9431,266.9539" style="stroke: #A80036; stroke-width: 1.0;"/><polygon fill="#A80036" points="695.3631,198.1154,685.5222,197.7184,690.7159,199.9603,688.4741,205.1539,695.3631,198.1154" style="stroke: #A80036; stroke-width: 1.0;"/><!--link servizio to azureapigateway--><path d="M557.469,180 C547.4608,180 537.4527,180 527.4446,180 " fill="none" id="servizio-azureapigateway" style="stroke: #A80036; stroke-width: 1.0;"/><polygon fill="#A80036" points="522.2109,180,531.2109,184,527.2109,180,531.2109,176,522.2109,180" style="stroke: #A80036; stroke-width: 1.0;"/><!--link Smartphone to PagoPA--><path d="M615.8007,86.5235 C640.2222,104.7572 679.2362,133.8858 707.2235,154.7817 " fill="none" id="Smartphone-PagoPA" style="stroke: #A80036; stroke-width: 1.0;"/><polygon fill="#A80036" points="711.2697,157.8027,706.4513,149.213,707.2633,154.8113,701.665,155.6233,711.2697,157.8027" style="stroke: #A80036; stroke-width: 1.0;"/><!--link notificationhubs to Smartphone--><path d="M441.8281,69.5 C475.3664,69.5 508.9046,69.5 542.4429,69.5 " fill="none" id="notificationhubs-Smartphone" style="stroke: #A80036; stroke-width: 1.0;"/><polygon fill="#A80036" points="547.8256,69.5,538.8256,65.5,542.8256,69.5,538.8256,73.5,547.8256,69.5" style="stroke: #A80036; stroke-width: 1.0;"/><!--link Smartphone to MixPanel--><path d="M638.0996,69.5 C647.9607,69.5 657.8218,69.5 667.6829,69.5 " fill="none" id="Smartphone-MixPanel" style="stroke: #A80036; stroke-width: 1.0;"/><polygon fill="#A80036" points="672.8396,69.5,663.8396,65.5,667.8396,69.5,663.8396,73.5,672.8396,69.5" style="stroke: #A80036; stroke-width: 1.0;"/><!--link azurefunctions to MailUp--><path d="M391.3742,301.8502 C433.2865,317.0725 493.593,340.4939 544,366 C546.41,367.2195 548.8589,368.5245 551.3075,369.8805 " fill="none" id="azurefunctions-MailUp" style="stroke: #A80036; stroke-width: 1.0;"/><polygon fill="#A80036" points="555.7062,372.3688,549.8422,364.456,551.3543,369.907,545.9032,371.4191,555.7062,372.3688" style="stroke: #A80036; stroke-width: 1.0;"/><!--
@startuml
skinparamlocked shadowing false
skinparamlocked DefaultFontName Helvetica

agent "ios/android" as Smartphone

cloud "Azure" {

  agent "API Gateway" as azureapigateway

  node "Functions" as azurefunctions

  node "Kubernetes (AKS)" as azureaks

  rectangle "VPN gateway" as azurevpngw

  rectangle "Notification Hubs" as notificationhubs

  database "CosmosDB" as dbcosmos

  database "Redis Cluster" as dbredis

  database "Queue/Blob\nStorage" as dbstorage

  database "Application\nInsights" as appinsights
}

node "PagoPA"

agent "Servizio Ente" as servizio

node MixPanel

node MailUp

Smartphone - -> azureaks
azureaks -d-> dbredis
azureaks -> azureapigateway
azureaks -u-> notificationhubs
azureapigateway -> azurefunctions
azurefunctions -l-> dbcosmos
azurefunctions -d-> dbstorage
azurefunctions - -> azureaks
azureaks <- -> azurevpngw
PagoPA <- -> azurevpngw
servizio -r-> azureapigateway

Smartphone - -> PagoPA

notificationhubs -> Smartphone

Smartphone -> MixPanel

azurefunctions -d-> MailUp

@enduml

PlantUML version 1.2018.00(Thu Jan 04 20:42:56 CET 2018)
(GPL source distribution)
Java Runtime: Java(TM) SE Runtime Environment
JVM: Java HotSpot(TM) 64-Bit Server VM
Java Version: 1.8.0_66-b17
Operating System: Mac OS X
OS Version: 10.13.4
Default Encoding: UTF-8
Language: en
Country: US
--></g></svg>