<?xml version="1.0" encoding="UTF-8" standalone="no"?><svg xmlns="http://www.w3.org/2000/svg" xmlns:xlink="http://www.w3.org/1999/xlink" contentScriptType="application/ecmascript" contentStyleType="text/css" height="272px" preserveAspectRatio="none" style="width:603px;height:272px;" version="1.1" viewBox="0 0 603 272" width="603px" zoomAndPan="magnify"><defs/><g><path d="M317,205 C317,202 319,200 322,200 C325,200 327,202 327,205 C327,202 329,200 332,200 C335,200 337,202 337,205 C337,202 339,200 342,200 C345,200 347,202 347,205 C347,202 349,200 352,200 C355,200 357,202 357,205 C357,202 359,200 362,200 C365,200 367,202 367,205 C367,202 369,200 372,200 C375,200 377,202 377,205 C377,202 379,200 382,200 C385,200 387,202 387,205 C387,202 389,200 392,200 C395,200 397,202 397,205 C397,202 399,200 402,200 C405,200 407,202 407,205 C407,202 409,200 412,200 C415,200 417,202 417,205 C417,202 419,200 422,200 C425,200 427,202 427,205 C427,202 429,200 432,200 C435,200 437,202 437,205 C437,202 439,200 442,200 C445,200 447,202 447,205 C447,202 449,200 452,200 C455,200 457,202 457,205 C457,202 459,200 462,200 C465,200 467,202 467,205 C467,202 469,200 472,200 C475,200 477,202 477,205 C477,202 479,200 482,200 C485,200 487,202 487,205 C487,202 489,200 492,200 C495,200 497,202 497,205 C497,202 499,200 502,200 C505,200 507,202 507,205 C507,202 509,200 512,200 C515,200 517,202 517,205 C520,205 522,207 522,210 C522,213 520,215 517,215 C520,215 522,217 522,220 C522,223 520,225 517,225 C520,225 522,227 522,230 C522,233 520,235 517,235 C520,235 522,237 522,240 C522,243 520,245 517,245 C520,245 522,247 522,250 C522,253 520,255 517,255 C517,258 514,260 512,260 C509,260 507,258 507,255 C507,258 504,260 502,260 C499,260 497,258 497,255 C497,258 494,260 492,260 C489,260 487,258 487,255 C487,258 484,260 482,260 C479,260 477,258 477,255 C477,258 474,260 472,260 C469,260 467,258 467,255 C467,258 464,260 462,260 C459,260 457,258 457,255 C457,258 454,260 452,260 C449,260 447,258 447,255 C447,258 444,260 442,260 C439,260 437,258 437,255 C437,258 434,260 432,260 C429,260 427,258 427,255 C427,258 424,260 422,260 C419,260 417,258 417,255 C417,258 414,260 412,260 C409,260 407,258 407,255 C407,258 404,260 402,260 C399,260 397,258 397,255 C397,258 394,260 392,260 C389,260 387,258 387,255 C387,258 384,260 382,260 C379,260 377,258 377,255 C377,258 374,260 372,260 C369,260 367,258 367,255 C367,258 364,260 362,260 C359,260 357,258 357,255 C357,258 354,260 352,260 C349,260 347,258 347,255 C347,258 344,260 342,260 C339,260 337,258 337,255 C337,258 334,260 332,260 C329,260 327,258 327,255 C327,258 324,260 322,260 C319,260 317,258 317,255 C314,255 312,253 312,250 C312,247 314,245 317,245 C314,245 312,243 312,240 C312,237 314,235 317,235 C314,235 312,233 312,230 C312,227 314,225 317,225 C314,225 312,223 312,220 C312,217 314,215 317,215 C314,215 312,213 312,210 C312,207 314,205 317,205 " fill="#FFFFFF" style="stroke: #000000; stroke-width: 1.5;"/><path d="M74,205 C74,202 76,200 79,200 C82,200 84,202 84,205 C84,202 86,200 89,200 C92,200 94,202 94,205 C94,202 96,200 99,200 C102,200 104,202 104,205 C104,202 106,200 109,200 C112,200 114,202 114,205 C114,202 116,200 119,200 C122,200 124,202 124,205 C124,202 126,200 129,200 C132,200 134,202 134,205 C134,202 136,200 139,200 C142,200 144,202 144,205 C144,202 146,200 149,200 C152,200 154,202 154,205 C154,202 156,200 159,200 C162,200 164,202 164,205 C164,202 166,200 169,200 C172,200 174,202 174,205 C174,202 176,200 179,200 C182,200 184,202 184,205 C184,202 186,200 189,200 C192,200 194,202 194,205 C194,202 196,200 199,200 C202,200 204,202 204,205 C204,202 206,200 209,200 C212,200 214,202 214,205 C214,202 216,200 219,200 C222,200 224,202 224,205 C224,202 226,200 229,200 C232,200 234,202 234,205 C234,202 236,200 239,200 C242,200 244,202 244,205 C244,202 246,200 249,200 C252,200 254,202 254,205 C254,202 256,200 259,200 C262,200 264,202 264,205 C264,202 266,200 269,200 C272,200 274,202 274,205 C274,202 276,200 279,200 C282,200 284,202 284,205 C284,202 286,200 289,200 C292,200 294,202 294,205 C297,205 299,207 299,210 C299,213 297,215 294,215 C297,215 299,217 299,220 C299,223 297,225 294,225 C297,225 299,227 299,230 C299,233 297,235 294,235 C297,235 299,237 299,240 C299,243 297,245 294,245 C297,245 299,247 299,250 C299,253 297,255 294,255 C294,258 291,260 289,260 C286,260 284,258 284,255 C284,258 281,260 279,260 C276,260 274,258 274,255 C274,258 271,260 269,260 C266,260 264,258 264,255 C264,258 261,260 259,260 C256,260 254,258 254,255 C254,258 251,260 249,260 C246,260 244,258 244,255 C244,258 241,260 239,260 C236,260 234,258 234,255 C234,258 231,260 229,260 C226,260 224,258 224,255 C224,258 221,260 219,260 C216,260 214,258 214,255 C214,258 211,260 209,260 C206,260 204,258 204,255 C204,258 201,260 199,260 C196,260 194,258 194,255 C194,258 191,260 189,260 C186,260 184,258 184,255 C184,258 181,260 179,260 C176,260 174,258 174,255 C174,258 171,260 169,260 C166,260 164,258 164,255 C164,258 161,260 159,260 C156,260 154,258 154,255 C154,258 151,260 149,260 C146,260 144,258 144,255 C144,258 141,260 139,260 C136,260 134,258 134,255 C134,258 131,260 129,260 C126,260 124,258 124,255 C124,258 121,260 119,260 C116,260 114,258 114,255 C114,258 111,260 109,260 C106,260 104,258 104,255 C104,258 101,260 99,260 C96,260 94,258 94,255 C94,258 91,260 89,260 C86,260 84,258 84,255 C84,258 81,260 79,260 C76,260 74,258 74,255 C71,255 69,253 69,250 C69,247 71,245 74,245 C71,245 69,243 69,240 C69,237 71,235 74,235 C71,235 69,233 69,230 C69,227 71,225 74,225 C71,225 69,223 69,220 C69,217 71,215 74,215 C71,215 69,213 69,210 C69,207 71,205 74,205 " fill="#FFFFFF" style="stroke: #000000; stroke-width: 1.5;"/><path d="M225,23.5 C225,20.5 227,18.5 230,18.5 C233,18.5 235,20.5 235,23.5 C235,20.5 237,18.5 240,18.5 C243,18.5 245,20.5 245,23.5 C245,20.5 247,18.5 250,18.5 C253,18.5 255,20.5 255,23.5 C255,20.5 257,18.5 260,18.5 C263,18.5 265,20.5 265,23.5 C265,20.5 267,18.5 270,18.5 C273,18.5 275,20.5 275,23.5 C275,20.5 277,18.5 280,18.5 C283,18.5 285,20.5 285,23.5 C285,20.5 287,18.5 290,18.5 C293,18.5 295,20.5 295,23.5 C295,20.5 297,18.5 300,18.5 C303,18.5 305,20.5 305,23.5 C305,20.5 307,18.5 310,18.5 C313,18.5 315,20.5 315,23.5 C315,20.5 317,18.5 320,18.5 C323,18.5 325,20.5 325,23.5 C325,20.5 327,18.5 330,18.5 C333,18.5 335,20.5 335,23.5 C335,20.5 337,18.5 340,18.5 C343,18.5 345,20.5 345,23.5 C345,20.5 347,18.5 350,18.5 C353,18.5 355,20.5 355,23.5 C355,20.5 357,18.5 360,18.5 C363,18.5 365,20.5 365,23.5 C365,20.5 367,18.5 370,18.5 C373,18.5 375,20.5 375,23.5 C375,20.5 377,18.5 380,18.5 C383,18.5 385,20.5 385,23.5 C385,20.5 387,18.5 390,18.5 C393,18.5 395,20.5 395,23.5 C395,20.5 397,18.5 400,18.5 C403,18.5 405,20.5 405,23.5 C408,23.5 410,25.5 410,28.5 C410,31.5 408,33.5 405,33.5 C408,33.5 410,35.5 410,38.5 C410,41.5 408,43.5 405,43.5 C408,43.5 410,45.5 410,48.5 C410,51.5 408,53.5 405,53.5 C408,53.5 410,55.5 410,58.5 C410,61.5 408,63.5 405,63.5 C408,63.5 410,65.5 410,68.5 C410,71.5 408,73.5 405,73.5 C405,76.5 402,78.5 400,78.5 C397,78.5 395,76.5 395,73.5 C395,76.5 392,78.5 390,78.5 C387,78.5 385,76.5 385,73.5 C385,76.5 382,78.5 380,78.5 C377,78.5 375,76.5 375,73.5 C375,76.5 372,78.5 370,78.5 C367,78.5 365,76.5 365,73.5 C365,76.5 362,78.5 360,78.5 C357,78.5 355,76.5 355,73.5 C355,76.5 352,78.5 350,78.5 C347,78.5 345,76.5 345,73.5 C345,76.5 342,78.5 340,78.5 C337,78.5 335,76.5 335,73.5 C335,76.5 332,78.5 330,78.5 C327,78.5 325,76.5 325,73.5 C325,76.5 322,78.5 320,78.5 C317,78.5 315,76.5 315,73.5 C315,76.5 312,78.5 310,78.5 C307,78.5 305,76.5 305,73.5 C305,76.5 302,78.5 300,78.5 C297,78.5 295,76.5 295,73.5 C295,76.5 292,78.5 290,78.5 C287,78.5 285,76.5 285,73.5 C285,76.5 282,78.5 280,78.5 C277,78.5 275,76.5 275,73.5 C275,76.5 272,78.5 270,78.5 C267,78.5 265,76.5 265,73.5 C265,76.5 262,78.5 260,78.5 C257,78.5 255,76.5 255,73.5 C255,76.5 252,78.5 250,78.5 C247,78.5 245,76.5 245,73.5 C245,76.5 242,78.5 240,78.5 C237,78.5 235,76.5 235,73.5 C235,76.5 232,78.5 230,78.5 C227,78.5 225,76.5 225,73.5 C222,73.5 220,71.5 220,68.5 C220,65.5 222,63.5 225,63.5 C222,63.5 220,61.5 220,58.5 C220,55.5 222,53.5 225,53.5 C222,53.5 220,51.5 220,48.5 C220,45.5 222,43.5 225,43.5 C222,43.5 220,41.5 220,38.5 C220,35.5 222,33.5 225,33.5 C222,33.5 220,31.5 220,28.5 C220,25.5 222,23.5 225,23.5 " fill="#FFFFFF" style="stroke: #000000; stroke-width: 1.5;"/><path d="M426,23.5 C426,20.5 428,18.5 431,18.5 C434,18.5 436,20.5 436,23.5 C436,20.5 438,18.5 441,18.5 C444,18.5 446,20.5 446,23.5 C446,20.5 448,18.5 451,18.5 C454,18.5 456,20.5 456,23.5 C456,20.5 458,18.5 461,18.5 C464,18.5 466,20.5 466,23.5 C466,20.5 468,18.5 471,18.5 C474,18.5 476,20.5 476,23.5 C476,20.5 478,18.5 481,18.5 C484,18.5 486,20.5 486,23.5 C486,20.5 488,18.5 491,18.5 C494,18.5 496,20.5 496,23.5 C496,20.5 498,18.5 501,18.5 C504,18.5 506,20.5 506,23.5 C506,20.5 508,18.5 511,18.5 C514,18.5 516,20.5 516,23.5 C516,20.5 518,18.5 521,18.5 C524,18.5 526,20.5 526,23.5 C526,20.5 528,18.5 531,18.5 C534,18.5 536,20.5 536,23.5 C536,20.5 538,18.5 541,18.5 C544,18.5 546,20.5 546,23.5 C546,20.5 548,18.5 551,18.5 C554,18.5 556,20.5 556,23.5 C556,20.5 558,18.5 561,18.5 C564,18.5 566,20.5 566,23.5 C566,20.5 568,18.5 571,18.5 C574,18.5 576,20.5 576,23.5 C576,20.5 578,18.5 581,18.5 C584,18.5 586,20.5 586,23.5 C589,23.5 591,25.5 591,28.5 C591,31.5 589,33.5 586,33.5 C589,33.5 591,35.5 591,38.5 C591,41.5 589,43.5 586,43.5 C589,43.5 591,45.5 591,48.5 C591,51.5 589,53.5 586,53.5 C589,53.5 591,55.5 591,58.5 C591,61.5 589,63.5 586,63.5 C589,63.5 591,65.5 591,68.5 C591,71.5 589,73.5 586,73.5 C586,76.5 583,78.5 581,78.5 C578,78.5 576,76.5 576,73.5 C576,76.5 573,78.5 571,78.5 C568,78.5 566,76.5 566,73.5 C566,76.5 563,78.5 561,78.5 C558,78.5 556,76.5 556,73.5 C556,76.5 553,78.5 551,78.5 C548,78.5 546,76.5 546,73.5 C546,76.5 543,78.5 541,78.5 C538,78.5 536,76.5 536,73.5 C536,76.5 533,78.5 531,78.5 C528,78.5 526,76.5 526,73.5 C526,76.5 523,78.5 521,78.5 C518,78.5 516,76.5 516,73.5 C516,76.5 513,78.5 511,78.5 C508,78.5 506,76.5 506,73.5 C506,76.5 503,78.5 501,78.5 C498,78.5 496,76.5 496,73.5 C496,76.5 493,78.5 491,78.5 C488,78.5 486,76.5 486,73.5 C486,76.5 483,78.5 481,78.5 C478,78.5 476,76.5 476,73.5 C476,76.5 473,78.5 471,78.5 C468,78.5 466,76.5 466,73.5 C466,76.5 463,78.5 461,78.5 C458,78.5 456,76.5 456,73.5 C456,76.5 453,78.5 451,78.5 C448,78.5 446,76.5 446,73.5 C446,76.5 443,78.5 441,78.5 C438,78.5 436,76.5 436,73.5 C436,76.5 433,78.5 431,78.5 C428,78.5 426,76.5 426,73.5 C423,73.5 421,71.5 421,68.5 C421,65.5 423,63.5 426,63.5 C423,63.5 421,61.5 421,58.5 C421,55.5 423,53.5 426,53.5 C423,53.5 421,51.5 421,48.5 C421,45.5 423,43.5 426,43.5 C423,43.5 421,41.5 421,38.5 C421,35.5 423,33.5 426,33.5 C423,33.5 421,31.5 421,28.5 C421,25.5 423,23.5 426,23.5 " fill="#FFFFFF" style="stroke: #000000; stroke-width: 1.5;"/><!--entity cddcp--><polygon fill="#FEFECE" points="322,216,332,206,512,206,512,240,502,250,322,250,322,216" style="stroke: #000000; stroke-width: 1.5;"/><line style="stroke: #000000; stroke-width: 1.5;" x1="502" x2="511" y1="216" y2="207"/><line style="stroke: #000000; stroke-width: 1.5;" x1="322" x2="502" y1="216" y2="216"/><line style="stroke: #000000; stroke-width: 1.5;" x1="502" x2="502" y1="216" y2="250"/><text fill="#000000" font-family="Helvetica" font-size="14" lengthAdjust="spacingAndGlyphs" textLength="150" x="337" y="236.7803">Datacenter CD primario</text><!--entity cddcs--><polygon fill="#FEFECE" points="79,216,89,206,287,206,287,240,277,250,79,250,79,216" style="stroke: #000000; stroke-width: 1.5;"/><line style="stroke: #000000; stroke-width: 1.5;" x1="277" x2="286" y1="216" y2="207"/><line style="stroke: #000000; stroke-width: 1.5;" x1="79" x2="277" y1="216" y2="216"/><line style="stroke: #000000; stroke-width: 1.5;" x1="277" x2="277" y1="216" y2="250"/><text fill="#000000" font-family="Helvetica" font-size="14" lengthAdjust="spacingAndGlyphs" textLength="168" x="94" y="236.7803">Datacenter CD secondario</text><!--entity siadc--><polygon fill="#FEFECE" points="230,34.5,240,24.5,396,24.5,396,58.5,386,68.5,230,68.5,230,34.5" style="stroke: #000000; stroke-width: 1.5;"/><line style="stroke: #000000; stroke-width: 1.5;" x1="386" x2="395" y1="34.5" y2="25.5"/><line style="stroke: #000000; stroke-width: 1.5;" x1="230" x2="386" y1="34.5" y2="34.5"/><line style="stroke: #000000; stroke-width: 1.5;" x1="386" x2="386" y1="34.5" y2="68.5"/><text fill="#000000" font-family="Helvetica" font-size="14" lengthAdjust="spacingAndGlyphs" textLength="126" x="245" y="55.2803">Datacenter SIA SpA</text><!--entity entedc--><polygon fill="#FEFECE" points="431.5,34.5,441.5,24.5,574.5,24.5,574.5,58.5,564.5,68.5,431.5,68.5,431.5,34.5" style="stroke: #000000; stroke-width: 1.5;"/><line style="stroke: #000000; stroke-width: 1.5;" x1="564.5" x2="573.5" y1="34.5" y2="25.5"/><line style="stroke: #000000; stroke-width: 1.5;" x1="431.5" x2="564.5" y1="34.5" y2="34.5"/><line style="stroke: #000000; stroke-width: 1.5;" x1="564.5" x2="564.5" y1="34.5" y2="68.5"/><text fill="#000000" font-family="Helvetica" font-size="14" lengthAdjust="spacingAndGlyphs" textLength="103" x="446.5" y="55.2803">Datacenter Ente</text><!--entity Cittadino--><ellipse cx="34" cy="18" fill="#FEFECE" rx="8" ry="8" style="stroke: #A80036; stroke-width: 2.0;"/><path d="M34,26 L34,53 M21,34 L47,34 M34,53 L21,68 M34,53 L47,68 " fill="#FEFECE" style="stroke: #A80036; stroke-width: 2.0;"/><text fill="#000000" font-family="Helvetica" font-size="14" lengthAdjust="spacingAndGlyphs" textLength="56" x="6" y="81.7803">Cittadino</text><!--entity Smartphone--><rect fill="#FEFECE" height="34" style="stroke: #A80036; stroke-width: 1.5;" width="98" x="97" y="29.5"/><text fill="#000000" font-family="Helvetica" font-size="14" lengthAdjust="spacingAndGlyphs" textLength="78" x="107" y="50.2803">Smartphone</text><!--link Cittadino to Smartphone--><path d="M62,46.5 C73.5938,46.5 85.1875,46.5 96.7813,46.5 " fill="none" id="Cittadino-Smartphone" style="stroke: #A80036; stroke-width: 1.0; stroke-dasharray: 7.0,7.0;"/><!--link Smartphone to cddcp--><path d="M171.495,63.5751 C219.5225,95.7411 323.5963,165.4436 379.5733,202.9338 " fill="none" id="Smartphone-cddcp" style="stroke: #A80036; stroke-width: 1.0;"/><polygon fill="#A80036" points="383.8485,205.797,378.5966,197.4653,379.6942,203.0146,374.1448,204.1122,383.8485,205.797" style="stroke: #A80036; stroke-width: 1.0;"/><!--link Smartphone to cddcs--><path d="M149.4809,63.5751 C155.9199,95.1609 169.7374,162.9415 177.4702,200.8742 " fill="none" id="Smartphone-cddcs" style="stroke: #A80036; stroke-width: 1.0;"/><polygon fill="#A80036" points="178.4738,205.797,180.5953,196.1793,177.475,200.8978,172.7565,197.7775,178.4738,205.797" style="stroke: #A80036; stroke-width: 1.0;"/><!--link Smartphone to siadc--><path d="M195.252,46.5 C205.0439,46.5 214.8359,46.5 224.6279,46.5 " fill="none" id="Smartphone-siadc" style="stroke: #A80036; stroke-width: 1.0;"/><polygon fill="#A80036" points="229.7485,46.5,220.7485,42.5,224.7485,46.5,220.7485,50.5,229.7485,46.5" style="stroke: #A80036; stroke-width: 1.0;"/><!--link cddcp to cddcs--><path d="M316.8506,228 C308.6866,228 300.5225,228 292.3585,228 " fill="none" id="cddcp-cddcs" style="stroke: #A80036; stroke-width: 2.0;"/><polygon fill="#A80036" points="287.2031,228,296.2031,232,292.2031,228,296.2031,224,287.2031,228" style="stroke: #A80036; stroke-width: 1.0;"/><polygon fill="#A80036" points="321.9339,228,312.9339,224,316.9339,228,312.9339,232,321.9339,228" style="stroke: #A80036; stroke-width: 1.0;"/><!--link siadc to cddcp--><path d="M328.4322,73.4322 C348.1608,107.8624 382.109,167.1086 401.7497,201.3853 " fill="none" id="siadc-cddcp" style="stroke: #A80036; stroke-width: 2.0;"/><polygon fill="#A80036" points="404.3061,205.8467,403.3019,196.0492,401.8201,201.5085,396.3608,200.0267,404.3061,205.8467" style="stroke: #A80036; stroke-width: 1.0;"/><polygon fill="#A80036" points="325.7524,68.7555,326.7563,78.5531,328.2382,73.0938,333.6975,74.5757,325.7524,68.7555" style="stroke: #A80036; stroke-width: 1.0;"/><!--link siadc to cddcs--><path d="M294.0243,72.9931 C269.4158,107.3503 226.734,166.9406 202.0764,201.3665 " fill="none" id="siadc-cddcs" style="stroke: #A80036; stroke-width: 2.0;"/><polygon fill="#A80036" points="198.8674,205.8467,207.3601,200.8592,201.779,201.7819,200.8563,196.2008,198.8674,205.8467" style="stroke: #A80036; stroke-width: 1.0;"/><polygon fill="#A80036" points="297.0594,68.7555,288.5667,73.743,294.1478,72.8203,295.0705,78.4014,297.0594,68.7555" style="stroke: #A80036; stroke-width: 1.0;"/><!--link entedc to cddcp--><path d="M492.9002,68.6923 C483.6667,88.8974 469.5746,119.5269 457,146 C448.2544,164.412 438.1936,185.034 430.3499,200.9914 " fill="none" id="entedc-cddcp" style="stroke: #A80036; stroke-width: 1.0;"/><polygon fill="#A80036" points="427.9907,205.7864,435.5531,199.4769,430.1981,201.3,428.3749,195.945,427.9907,205.7864" style="stroke: #A80036; stroke-width: 1.0;"/><!--link entedc to cddcs--><path d="M464.0816,68.574 C404.0602,102.6174 289.2923,167.7123 226.572,203.2865 " fill="none" id="entedc-cddcs" style="stroke: #A80036; stroke-width: 1.0;"/><polygon fill="#A80036" points="222.1476,205.796,231.9495,204.835,226.4967,203.3292,228.0025,197.8764,222.1476,205.796" style="stroke: #A80036; stroke-width: 1.0;"/><!--
@startuml
skinparamlocked shadowing false
skinparamlocked DefaultFontName Helvetica

actor Cittadino

agent Smartphone

cloud {
  node "Datacenter CD primario" as cddcp
}

cloud {
  node "Datacenter CD secondario" as cddcs
}

cloud {
  node "Datacenter SIA SpA" as siadc
}

cloud {
  node "Datacenter Ente" as entedc
}

Cittadino . Smartphone

Smartphone - - -> cddcp
Smartphone - - -> cddcs
Smartphone -> siadc

cddcp <=right=> cddcs

siadc <===> cddcp
siadc <===> cddcs

entedc - - -> cddcp
entedc - - -> cddcs


@enduml

PlantUML version 1.2018.00(Thu Jan 04 20:42:56 CET 2018)
(GPL source distribution)
Java Runtime: Java(TM) SE Runtime Environment
JVM: Java HotSpot(TM) 64-Bit Server VM
Java Version: 1.8.0_66-b17
Operating System: Mac OS X
OS Version: 10.13.4
Default Encoding: UTF-8
Language: en
Country: US
--></g></svg>