<?xml version="1.0" encoding="UTF-8" standalone="no"?><svg xmlns="http://www.w3.org/2000/svg" xmlns:xlink="http://www.w3.org/1999/xlink" contentScriptType="application/ecmascript" contentStyleType="text/css" height="295px" preserveAspectRatio="none" style="width:556px;height:295px;" version="1.1" viewBox="0 0 556 295" width="556px" zoomAndPan="magnify"><defs/><g><!--cluster Cittadinanza Digitale--><path d="M139.5,23 C139.5,20 141.5,18 144.5,18 C147.5,18 149.5,20 149.5,23 C149.5,20 151.5,18 154.5,18 C157.5,18 159.5,20 159.5,23 C159.5,20 161.5,18 164.5,18 C167.5,18 169.5,20 169.5,23 C169.5,20 171.5,18 174.5,18 C177.5,18 179.5,20 179.5,23 C179.5,20 181.5,18 184.5,18 C187.5,18 189.5,20 189.5,23 C189.5,20 191.5,18 194.5,18 C197.5,18 199.5,20 199.5,23 C199.5,20 201.5,18 204.5,18 C207.5,18 209.5,20 209.5,23 C209.5,20 211.5,18 214.5,18 C217.5,18 219.5,20 219.5,23 C219.5,20 221.5,18 224.5,18 C227.5,18 229.5,20 229.5,23 C229.5,20 231.5,18 234.5,18 C237.5,18 239.5,20 239.5,23 C239.5,20 241.5,18 244.5,18 C247.5,18 249.5,20 249.5,23 C249.5,20 251.5,18 254.5,18 C257.5,18 259.5,20 259.5,23 C259.5,20 261.5,18 264.5,18 C267.5,18 269.5,20 269.5,23 C269.5,20 271.5,18 274.5,18 C277.5,18 279.5,20 279.5,23 C279.5,20 281.5,18 284.5,18 C287.5,18 289.5,20 289.5,23 C289.5,20 291.5,18 294.5,18 C297.5,18 299.5,20 299.5,23 C299.5,20 301.5,18 304.5,18 C307.5,18 309.5,20 309.5,23 C309.5,20 311.5,18 314.5,18 C317.5,18 319.5,20 319.5,23 C319.5,20 321.5,18 324.5,18 C327.5,18 329.5,20 329.5,23 C329.5,20 331.5,18 334.5,18 C337.5,18 339.5,20 339.5,23 C339.5,20 341.5,18 344.5,18 C347.5,18 349.5,20 349.5,23 C349.5,20 351.5,18 354.5,18 C357.5,18 359.5,20 359.5,23 C359.5,20 361.5,18 364.5,18 C367.5,18 369.5,20 369.5,23 C369.5,20 371.5,18 374.5,18 C377.5,18 379.5,20 379.5,23 C379.5,20 381.5,18 384.5,18 C387.5,18 389.5,20 389.5,23 C389.5,20 391.5,18 394.5,18 C397.5,18 399.5,20 399.5,23 C399.5,20 401.5,18 404.5,18 C407.5,18 409.5,20 409.5,23 C409.5,20 411.5,18 414.5,18 C417.5,18 419.5,20 419.5,23 C419.5,20 421.5,18 424.5,18 C427.5,18 429.5,20 429.5,23 C429.5,20 431.5,18 434.5,18 C437.5,18 439.5,20 439.5,23 C439.5,20 441.5,18 444.5,18 C447.5,18 449.5,20 449.5,23 C449.5,20 451.5,18 454.5,18 C457.5,18 459.5,20 459.5,23 C459.5,20 461.5,18 464.5,18 C467.5,18 469.5,20 469.5,23 C469.5,20 471.5,18 474.5,18 C477.5,18 479.5,20 479.5,23 C479.5,20 481.5,18 484.5,18 C487.5,18 489.5,20 489.5,23 C489.5,20 491.5,18 494.5,18 C497.5,18 499.5,20 499.5,23 C499.5,20 501.5,18 504.5,18 C507.5,18 509.5,20 509.5,23 C509.5,20 511.5,18 514.5,18 C517.5,18 519.5,20 519.5,23 C519.5,20 521.5,18 524.5,18 C527.5,18 529.5,20 529.5,23 C529.5,20 531.5,18 534.5,18 C537.5,18 539.5,20 539.5,23 C542.5,23 544.5,25 544.5,28 C544.5,31 542.5,33 539.5,33 C542.5,33 544.5,35 544.5,38 C544.5,41 542.5,43 539.5,43 C542.5,43 544.5,45 544.5,48 C544.5,51 542.5,53 539.5,53 C542.5,53 544.5,55 544.5,58 C544.5,61 542.5,63 539.5,63 C542.5,63 544.5,65 544.5,68 C544.5,71 542.5,73 539.5,73 C539.5,76 536.5,78 534.5,78 C531.5,78 529.5,76 529.5,73 C529.5,76 526.5,78 524.5,78 C521.5,78 519.5,76 519.5,73 C519.5,76 516.5,78 514.5,78 C511.5,78 509.5,76 509.5,73 C509.5,76 506.5,78 504.5,78 C501.5,78 499.5,76 499.5,73 C499.5,76 496.5,78 494.5,78 C491.5,78 489.5,76 489.5,73 C489.5,76 486.5,78 484.5,78 C481.5,78 479.5,76 479.5,73 C479.5,76 476.5,78 474.5,78 C471.5,78 469.5,76 469.5,73 C469.5,76 466.5,78 464.5,78 C461.5,78 459.5,76 459.5,73 C459.5,76 456.5,78 454.5,78 C451.5,78 449.5,76 449.5,73 C449.5,76 446.5,78 444.5,78 C441.5,78 439.5,76 439.5,73 C439.5,76 436.5,78 434.5,78 C431.5,78 429.5,76 429.5,73 C429.5,76 426.5,78 424.5,78 C421.5,78 419.5,76 419.5,73 C419.5,76 416.5,78 414.5,78 C411.5,78 409.5,76 409.5,73 C409.5,76 406.5,78 404.5,78 C401.5,78 399.5,76 399.5,73 C399.5,76 396.5,78 394.5,78 C391.5,78 389.5,76 389.5,73 C389.5,76 386.5,78 384.5,78 C381.5,78 379.5,76 379.5,73 C379.5,76 376.5,78 374.5,78 C371.5,78 369.5,76 369.5,73 C369.5,76 366.5,78 364.5,78 C361.5,78 359.5,76 359.5,73 C359.5,76 356.5,78 354.5,78 C351.5,78 349.5,76 349.5,73 C349.5,76 346.5,78 344.5,78 C341.5,78 339.5,76 339.5,73 C339.5,76 336.5,78 334.5,78 C331.5,78 329.5,76 329.5,73 C329.5,76 326.5,78 324.5,78 C321.5,78 319.5,76 319.5,73 C319.5,76 316.5,78 314.5,78 C311.5,78 309.5,76 309.5,73 C309.5,76 306.5,78 304.5,78 C301.5,78 299.5,76 299.5,73 C299.5,76 296.5,78 294.5,78 C291.5,78 289.5,76 289.5,73 C289.5,76 286.5,78 284.5,78 C281.5,78 279.5,76 279.5,73 C279.5,76 276.5,78 274.5,78 C271.5,78 269.5,76 269.5,73 C269.5,76 266.5,78 264.5,78 C261.5,78 259.5,76 259.5,73 C259.5,76 256.5,78 254.5,78 C251.5,78 249.5,76 249.5,73 C249.5,76 246.5,78 244.5,78 C241.5,78 239.5,76 239.5,73 C239.5,76 236.5,78 234.5,78 C231.5,78 229.5,76 229.5,73 C229.5,76 226.5,78 224.5,78 C221.5,78 219.5,76 219.5,73 C219.5,76 216.5,78 214.5,78 C211.5,78 209.5,76 209.5,73 C209.5,76 206.5,78 204.5,78 C201.5,78 199.5,76 199.5,73 C199.5,76 196.5,78 194.5,78 C191.5,78 189.5,76 189.5,73 C189.5,76 186.5,78 184.5,78 C181.5,78 179.5,76 179.5,73 C179.5,76 176.5,78 174.5,78 C171.5,78 169.5,76 169.5,73 C169.5,76 166.5,78 164.5,78 C161.5,78 159.5,76 159.5,73 C159.5,76 156.5,78 154.5,78 C151.5,78 149.5,76 149.5,73 C149.5,76 146.5,78 144.5,78 C141.5,78 139.5,76 139.5,73 C136.5,73 134.5,71 134.5,68 C134.5,65 136.5,63 139.5,63 C136.5,63 134.5,61 134.5,58 C134.5,55 136.5,53 139.5,53 C136.5,53 134.5,51 134.5,48 C134.5,45 136.5,43 139.5,43 C136.5,43 134.5,41 134.5,38 C134.5,35 136.5,33 139.5,33 C136.5,33 134.5,31 134.5,28 C134.5,25 136.5,23 139.5,23 " fill="#FFFFFF" style="stroke: #000000; stroke-width: 1.5;"/><text fill="#000000" font-family="Helvetica" font-size="14" font-weight="bold" lengthAdjust="spacingAndGlyphs" textLength="142" x="266.5" y="39.7803">Cittadinanza Digitale</text><!--cluster PagoPA--><path d="M341.5,122 C341.5,119 343.5,117 346.5,117 C349.5,117 351.5,119 351.5,122 C351.5,119 353.5,117 356.5,117 C359.5,117 361.5,119 361.5,122 C361.5,119 363.5,117 366.5,117 C369.5,117 371.5,119 371.5,122 C371.5,119 373.5,117 376.5,117 C379.5,117 381.5,119 381.5,122 C381.5,119 383.5,117 386.5,117 C389.5,117 391.5,119 391.5,122 C391.5,119 393.5,117 396.5,117 C399.5,117 401.5,119 401.5,122 C401.5,119 403.5,117 406.5,117 C409.5,117 411.5,119 411.5,122 C411.5,119 413.5,117 416.5,117 C419.5,117 421.5,119 421.5,122 C421.5,119 423.5,117 426.5,117 C429.5,117 431.5,119 431.5,122 C431.5,119 433.5,117 436.5,117 C439.5,117 441.5,119 441.5,122 C441.5,119 443.5,117 446.5,117 C449.5,117 451.5,119 451.5,122 C451.5,119 453.5,117 456.5,117 C459.5,117 461.5,119 461.5,122 C461.5,119 463.5,117 466.5,117 C469.5,117 471.5,119 471.5,122 C471.5,119 473.5,117 476.5,117 C479.5,117 481.5,119 481.5,122 C481.5,119 483.5,117 486.5,117 C489.5,117 491.5,119 491.5,122 C491.5,119 493.5,117 496.5,117 C499.5,117 501.5,119 501.5,122 C504.5,122 506.5,124 506.5,127 C506.5,130 504.5,132 501.5,132 C504.5,132 506.5,134 506.5,137 C506.5,140 504.5,142 501.5,142 C504.5,142 506.5,144 506.5,147 C506.5,150 504.5,152 501.5,152 C504.5,152 506.5,154 506.5,157 C506.5,160 504.5,162 501.5,162 C504.5,162 506.5,164 506.5,167 C506.5,170 504.5,172 501.5,172 C501.5,175 498.5,177 496.5,177 C493.5,177 491.5,175 491.5,172 C491.5,175 488.5,177 486.5,177 C483.5,177 481.5,175 481.5,172 C481.5,175 478.5,177 476.5,177 C473.5,177 471.5,175 471.5,172 C471.5,175 468.5,177 466.5,177 C463.5,177 461.5,175 461.5,172 C461.5,175 458.5,177 456.5,177 C453.5,177 451.5,175 451.5,172 C451.5,175 448.5,177 446.5,177 C443.5,177 441.5,175 441.5,172 C441.5,175 438.5,177 436.5,177 C433.5,177 431.5,175 431.5,172 C431.5,175 428.5,177 426.5,177 C423.5,177 421.5,175 421.5,172 C421.5,175 418.5,177 416.5,177 C413.5,177 411.5,175 411.5,172 C411.5,175 408.5,177 406.5,177 C403.5,177 401.5,175 401.5,172 C401.5,175 398.5,177 396.5,177 C393.5,177 391.5,175 391.5,172 C391.5,175 388.5,177 386.5,177 C383.5,177 381.5,175 381.5,172 C381.5,175 378.5,177 376.5,177 C373.5,177 371.5,175 371.5,172 C371.5,175 368.5,177 366.5,177 C363.5,177 361.5,175 361.5,172 C361.5,175 358.5,177 356.5,177 C353.5,177 351.5,175 351.5,172 C351.5,175 348.5,177 346.5,177 C343.5,177 341.5,175 341.5,172 C338.5,172 336.5,170 336.5,167 C336.5,164 338.5,162 341.5,162 C338.5,162 336.5,160 336.5,157 C336.5,154 338.5,152 341.5,152 C338.5,152 336.5,150 336.5,147 C336.5,144 338.5,142 341.5,142 C338.5,142 336.5,140 336.5,137 C336.5,134 338.5,132 341.5,132 C338.5,132 336.5,130 336.5,127 C336.5,124 338.5,122 341.5,122 " fill="#FFFFFF" style="stroke: #000000; stroke-width: 1.5;"/><text fill="#000000" font-family="Helvetica" font-size="14" font-weight="bold" lengthAdjust="spacingAndGlyphs" textLength="54" x="394" y="138.7803">PagoPA</text><!--entity backend--><rect fill="#FEFECE" height="34" style="stroke: #A80036; stroke-width: 1.5;" width="108" x="245.5" y="41"/><text fill="#000000" font-family="Helvetica" font-size="14" lengthAdjust="spacingAndGlyphs" textLength="88" x="255.5" y="61.7803">italia-backend</text><!--entity pagopaproxy--><rect fill="#FEFECE" height="34" style="stroke: #A80036; stroke-width: 1.5;" width="142" x="388.5" y="41"/><text fill="#000000" font-family="Helvetica" font-size="14" lengthAdjust="spacingAndGlyphs" textLength="122" x="398.5" y="61.7803">italia-pagopa-proxy</text><!--entity apicd--><rect fill="#FEFECE" height="34" style="stroke: #A80036; stroke-width: 1.5;" width="66" x="144.5" y="41"/><text fill="#000000" font-family="Helvetica" font-size="14" lengthAdjust="spacingAndGlyphs" textLength="46" x="154.5" y="61.7803">API CD</text><!--entity pagopawallet--><rect fill="#FEFECE" height="34" style="stroke: #A80036; stroke-width: 1.5;" width="59" x="347" y="140"/><text fill="#000000" font-family="Helvetica" font-size="14" lengthAdjust="spacingAndGlyphs" textLength="39" x="357" y="160.7803">Wallet</text><!--entity pagopanodo--><rect fill="#FEFECE" height="34" style="stroke: #A80036; stroke-width: 1.5;" width="54" x="441.5" y="140"/><text fill="#000000" font-family="Helvetica" font-size="14" lengthAdjust="spacingAndGlyphs" textLength="34" x="451.5" y="160.7803">Nodo</text><!--entity app--><rect fill="#FEFECE" height="34" style="stroke: #A80036; stroke-width: 1.5;" width="45" x="267" y="140"/><text fill="#000000" font-family="Helvetica" font-size="14" lengthAdjust="spacingAndGlyphs" textLength="25" x="277" y="160.7803">App</text><!--entity servizio--><rect fill="#FEFECE" height="34" style="stroke: #A80036; stroke-width: 1.5;" width="103" x="6" y="41"/><text fill="#000000" font-family="Helvetica" font-size="14" lengthAdjust="spacingAndGlyphs" textLength="83" x="16" y="61.7803">Servizio Ente</text><!--entity MailUp--><polygon fill="#FEFECE" points="135.5,145,145.5,135,219.5,135,219.5,169,209.5,179,135.5,179,135.5,145" style="stroke: #000000; stroke-width: 1.5;"/><line style="stroke: #000000; stroke-width: 1.5;" x1="209.5" x2="218.5" y1="145" y2="136"/><line style="stroke: #000000; stroke-width: 1.5;" x1="135.5" x2="209.5" y1="145" y2="145"/><line style="stroke: #000000; stroke-width: 1.5;" x1="209.5" x2="209.5" y1="145" y2="179"/><text fill="#000000" font-family="Helvetica" font-size="14" lengthAdjust="spacingAndGlyphs" textLength="44" x="150.5" y="165.7803">MailUp</text><!--entity MixPanel--><polygon fill="#FEFECE" points="240.5,249,250.5,239,338.5,239,338.5,273,328.5,283,240.5,283,240.5,249" style="stroke: #000000; stroke-width: 1.5;"/><line style="stroke: #000000; stroke-width: 1.5;" x1="328.5" x2="337.5" y1="249" y2="240"/><line style="stroke: #000000; stroke-width: 1.5;" x1="240.5" x2="328.5" y1="249" y2="249"/><line style="stroke: #000000; stroke-width: 1.5;" x1="328.5" x2="328.5" y1="249" y2="283"/><text fill="#000000" font-family="Helvetica" font-size="14" lengthAdjust="spacingAndGlyphs" textLength="58" x="255.5" y="269.7803">MixPanel</text><!--link servizio to apicd--><path d="M109.0625,58 C119.0792,58 129.0958,58 139.1125,58 " fill="none" id="servizio-apicd" style="stroke: #A80036; stroke-width: 1.0;"/><polygon fill="#A80036" points="144.3506,58,135.3506,54,139.3506,58,135.3506,62,144.3506,58" style="stroke: #A80036; stroke-width: 1.0;"/><!--link apicd to backend--><path d="M215.9991,58 C224.1383,58 232.2775,58 240.4168,58 " fill="none" id="apicd-backend" style="stroke: #A80036; stroke-width: 1.0;"/><polygon fill="#A80036" points="245.4846,58,236.4846,54,240.4846,58,236.4846,62,245.4846,58" style="stroke: #A80036; stroke-width: 1.0;"/><polygon fill="#A80036" points="210.8594,58,219.8594,62,215.8594,58,219.8594,54,210.8594,58" style="stroke: #A80036; stroke-width: 1.0;"/><!--link backend to app--><path d="M297.2163,80.6089 C295.3932,98.6572 292.8784,123.5537 291.2219,139.9531 " fill="none" id="backend-app" style="stroke: #A80036; stroke-width: 1.0;"/><polygon fill="#A80036" points="297.7581,75.2445,292.8737,83.7969,297.2555,80.2192,300.8332,84.601,297.7581,75.2445" style="stroke: #A80036; stroke-width: 1.0;"/><!--link app to pagopawallet--><path d="M312.2695,157 C322.0978,157 331.926,157 341.7542,157 " fill="none" id="app-pagopawallet" style="stroke: #A80036; stroke-width: 1.0;"/><polygon fill="#A80036" points="346.8938,157,337.8938,153,341.8938,157,337.8938,161,346.8938,157" style="stroke: #A80036; stroke-width: 1.0;"/><!--link backend to pagopaproxy--><path d="M353.5625,58 C363.4295,58 373.2965,58 383.1634,58 " fill="none" id="backend-pagopaproxy" style="stroke: #A80036; stroke-width: 1.0;"/><polygon fill="#A80036" points="388.3232,58,379.3232,54,383.3232,58,379.3232,62,388.3232,58" style="stroke: #A80036; stroke-width: 1.0;"/><!--link pagopaproxy to pagopanodo--><path d="M461.5554,80.6089 C463.0295,96.8242 465.0061,118.5673 466.4736,134.7096 " fill="none" id="pagopaproxy-pagopanodo" style="stroke: #A80036; stroke-width: 1.0;"/><polygon fill="#A80036" points="466.9503,139.9531,470.119,130.6279,466.4976,134.9736,462.1518,131.3522,466.9503,139.9531" style="stroke: #A80036; stroke-width: 1.0;"/><polygon fill="#A80036" points="461.0677,75.2445,457.899,84.5697,461.5204,80.224,465.8661,83.8454,461.0677,75.2445" style="stroke: #A80036; stroke-width: 1.0;"/><!--link pagopawallet to pagopanodo--><path d="M411.5192,157 C419.7399,157 427.9606,157 436.1813,157 " fill="none" id="pagopawallet-pagopanodo" style="stroke: #A80036; stroke-width: 1.0;"/><polygon fill="#A80036" points="441.2998,157,432.2998,153,436.2998,157,432.2998,161,441.2998,157" style="stroke: #A80036; stroke-width: 1.0;"/><polygon fill="#A80036" points="406.3281,157,415.3281,161,411.3281,157,415.3281,153,406.3281,157" style="stroke: #A80036; stroke-width: 1.0;"/><!--link apicd to MailUp--><path d="M177.5,75.2445 C177.5,90.2056 177.5,112.1298 177.5,129.509 " fill="none" id="apicd-MailUp" style="stroke: #A80036; stroke-width: 1.0;"/><polygon fill="#A80036" points="177.5,134.7439,181.5,125.7439,177.5,129.7439,173.5,125.7439,177.5,134.7439" style="stroke: #A80036; stroke-width: 1.0;"/><!--link app to MixPanel--><path d="M289.5,174.1735 C289.5,190.3105 289.5,214.7287 289.5,233.5643 " fill="none" id="app-MixPanel" style="stroke: #A80036; stroke-width: 1.0;"/><polygon fill="#A80036" points="289.5,238.7173,293.5,229.7173,289.5,233.7173,285.5,229.7173,289.5,238.7173" style="stroke: #A80036; stroke-width: 1.0;"/><!--
@startuml
skinparamlocked shadowing false
skinparamlocked DefaultFontName Helvetica

agent "App" as app

cloud "Cittadinanza Digitale" {

  agent "italia-backend" as backend
  agent "italia-pagopa-proxy" as pagopaproxy
  agent "API CD" as apicd
}

cloud "PagoPA" {

  agent Wallet as pagopawallet
  agent Nodo as pagopanodo

}

agent "Servizio Ente" as servizio

node MailUp

node MixPanel

servizio -> apicd

apicd <-> backend

app -u-> backend
app -> pagopawallet

backend -> pagopaproxy
pagopaproxy <- -> pagopanodo

pagopawallet <-> pagopanodo

apicd -d-> MailUp

app -d-> MixPanel

@enduml

PlantUML version 1.2018.00(Thu Jan 04 20:42:56 CET 2018)
(GPL source distribution)
Java Runtime: Java(TM) SE Runtime Environment
JVM: Java HotSpot(TM) 64-Bit Server VM
Java Version: 1.8.0_66-b17
Operating System: Mac OS X
OS Version: 10.13.4
Default Encoding: UTF-8
Language: en
Country: US
--></g></svg>