<?xml version="1.0" encoding="UTF-8" standalone="no"?><svg xmlns="http://www.w3.org/2000/svg" xmlns:xlink="http://www.w3.org/1999/xlink" contentScriptType="application/ecmascript" contentStyleType="text/css" height="412px" preserveAspectRatio="none" style="width:496px;height:412px;" version="1.1" viewBox="0 0 496 412" width="496px" zoomAndPan="magnify"><defs/><g><!--cluster Regione Azure--><path d="M29,231 C29,228 31,226 34,226 C37,226 39,228 39,231 C39,228 41,226 44,226 C47,226 49,228 49,231 C49,228 51,226 54,226 C57,226 59,228 59,231 C59,228 61,226 64,226 C67,226 69,228 69,231 C69,228 71,226 74,226 C77,226 79,228 79,231 C79,228 81,226 84,226 C87,226 89,228 89,231 C89,228 91,226 94,226 C97,226 99,228 99,231 C99,228 101,226 104,226 C107,226 109,228 109,231 C109,228 111,226 114,226 C117,226 119,228 119,231 C119,228 121,226 124,226 C127,226 129,228 129,231 C129,228 131,226 134,226 C137,226 139,228 139,231 C139,228 141,226 144,226 C147,226 149,228 149,231 C149,228 151,226 154,226 C157,226 159,228 159,231 C159,228 161,226 164,226 C167,226 169,228 169,231 C169,228 171,226 174,226 C177,226 179,228 179,231 C179,228 181,226 184,226 C187,226 189,228 189,231 C189,228 191,226 194,226 C197,226 199,228 199,231 C199,228 201,226 204,226 C207,226 209,228 209,231 C209,228 211,226 214,226 C217,226 219,228 219,231 C219,228 221,226 224,226 C227,226 229,228 229,231 C229,228 231,226 234,226 C237,226 239,228 239,231 C239,228 241,226 244,226 C247,226 249,228 249,231 C249,228 251,226 254,226 C257,226 259,228 259,231 C259,228 261,226 264,226 C267,226 269,228 269,231 C269,228 271,226 274,226 C277,226 279,228 279,231 C279,228 281,226 284,226 C287,226 289,228 289,231 C289,228 291,226 294,226 C297,226 299,228 299,231 C299,228 301,226 304,226 C307,226 309,228 309,231 C309,228 311,226 314,226 C317,226 319,228 319,231 C319,228 321,226 324,226 C327,226 329,228 329,231 C329,228 331,226 334,226 C337,226 339,228 339,231 C339,228 341,226 344,226 C347,226 349,228 349,231 C349,228 351,226 354,226 C357,226 359,228 359,231 C359,228 361,226 364,226 C367,226 369,228 369,231 C369,228 371,226 374,226 C377,226 379,228 379,231 C379,228 381,226 384,226 C387,226 389,228 389,231 C389,228 391,226 394,226 C397,226 399,228 399,231 C399,228 401,226 404,226 C407,226 409,228 409,231 C409,228 411,226 414,226 C417,226 419,228 419,231 C419,228 421,226 424,226 C427,226 429,228 429,231 C429,228 431,226 434,226 C437,226 439,228 439,231 C439,228 441,226 444,226 C447,226 449,228 449,231 C449,228 451,226 454,226 C457,226 459,228 459,231 C459,228 461,226 464,226 C467,226 469,228 469,231 C469,228 471,226 474,226 C477,226 479,228 479,231 C482,231 484,233 484,236 C484,239 482,241 479,241 C482,241 484,243 484,246 C484,249 482,251 479,251 C482,251 484,253 484,256 C484,259 482,261 479,261 C482,261 484,263 484,266 C484,269 482,271 479,271 C482,271 484,273 484,276 C484,279 482,281 479,281 C482,281 484,283 484,286 C484,289 482,291 479,291 C479,294 476,296 474,296 C471,296 469,294 469,291 C469,294 466,296 464,296 C461,296 459,294 459,291 C459,294 456,296 454,296 C451,296 449,294 449,291 C449,294 446,296 444,296 C441,296 439,294 439,291 C439,294 436,296 434,296 C431,296 429,294 429,291 C429,294 426,296 424,296 C421,296 419,294 419,291 C419,294 416,296 414,296 C411,296 409,294 409,291 C409,294 406,296 404,296 C401,296 399,294 399,291 C399,294 396,296 394,296 C391,296 389,294 389,291 C389,294 386,296 384,296 C381,296 379,294 379,291 C379,294 376,296 374,296 C371,296 369,294 369,291 C369,294 366,296 364,296 C361,296 359,294 359,291 C359,294 356,296 354,296 C351,296 349,294 349,291 C349,294 346,296 344,296 C341,296 339,294 339,291 C339,294 336,296 334,296 C331,296 329,294 329,291 C329,294 326,296 324,296 C321,296 319,294 319,291 C319,294 316,296 314,296 C311,296 309,294 309,291 C309,294 306,296 304,296 C301,296 299,294 299,291 C299,294 296,296 294,296 C291,296 289,294 289,291 C289,294 286,296 284,296 C281,296 279,294 279,291 C279,294 276,296 274,296 C271,296 269,294 269,291 C269,294 266,296 264,296 C261,296 259,294 259,291 C259,294 256,296 254,296 C251,296 249,294 249,291 C249,294 246,296 244,296 C241,296 239,294 239,291 C239,294 236,296 234,296 C231,296 229,294 229,291 C229,294 226,296 224,296 C221,296 219,294 219,291 C219,294 216,296 214,296 C211,296 209,294 209,291 C209,294 206,296 204,296 C201,296 199,294 199,291 C199,294 196,296 194,296 C191,296 189,294 189,291 C189,294 186,296 184,296 C181,296 179,294 179,291 C179,294 176,296 174,296 C171,296 169,294 169,291 C169,294 166,296 164,296 C161,296 159,294 159,291 C159,294 156,296 154,296 C151,296 149,294 149,291 C149,294 146,296 144,296 C141,296 139,294 139,291 C139,294 136,296 134,296 C131,296 129,294 129,291 C129,294 126,296 124,296 C121,296 119,294 119,291 C119,294 116,296 114,296 C111,296 109,294 109,291 C109,294 106,296 104,296 C101,296 99,294 99,291 C99,294 96,296 94,296 C91,296 89,294 89,291 C89,294 86,296 84,296 C81,296 79,294 79,291 C79,294 76,296 74,296 C71,296 69,294 69,291 C69,294 66,296 64,296 C61,296 59,294 59,291 C59,294 56,296 54,296 C51,296 49,294 49,291 C49,294 46,296 44,296 C41,296 39,294 39,291 C39,294 36,296 34,296 C31,296 29,294 29,291 C26,291 24,289 24,286 C24,283 26,281 29,281 C26,281 24,279 24,276 C24,273 26,271 29,271 C26,271 24,269 24,266 C24,263 26,261 29,261 C26,261 24,259 24,256 C24,253 26,251 29,251 C26,251 24,249 24,246 C24,243 26,241 29,241 C26,241 24,239 24,236 C24,233 26,231 29,231 " fill="#FFFFFF" style="stroke: #000000; stroke-width: 1.5;"/><text fill="#000000" font-family="Helvetica" font-size="14" font-weight="bold" lengthAdjust="spacingAndGlyphs" textLength="100" x="204.5" y="247.7803">Regione Azure</text><!--cluster PagoPA--><path d="M171,127 C171,124 173,122 176,122 C179,122 181,124 181,127 C181,124 183,122 186,122 C189,122 191,124 191,127 C191,124 193,122 196,122 C199,122 201,124 201,127 C201,124 203,122 206,122 C209,122 211,124 211,127 C211,124 213,122 216,122 C219,122 221,124 221,127 C221,124 223,122 226,122 C229,122 231,124 231,127 C231,124 233,122 236,122 C239,122 241,124 241,127 C241,124 243,122 246,122 C249,122 251,124 251,127 C251,124 253,122 256,122 C259,122 261,124 261,127 C261,124 263,122 266,122 C269,122 271,124 271,127 C271,124 273,122 276,122 C279,122 281,124 281,127 C281,124 283,122 286,122 C289,122 291,124 291,127 C291,124 293,122 296,122 C299,122 301,124 301,127 C301,124 303,122 306,122 C309,122 311,124 311,127 C311,124 313,122 316,122 C319,122 321,124 321,127 C321,124 323,122 326,122 C329,122 331,124 331,127 C331,124 333,122 336,122 C339,122 341,124 341,127 C341,124 343,122 346,122 C349,122 351,124 351,127 C351,124 353,122 356,122 C359,122 361,124 361,127 C361,124 363,122 366,122 C369,122 371,124 371,127 C371,124 373,122 376,122 C379,122 381,124 381,127 C381,124 383,122 386,122 C389,122 391,124 391,127 C391,124 393,122 396,122 C399,122 401,124 401,127 C401,124 403,122 406,122 C409,122 411,124 411,127 C411,124 413,122 416,122 C419,122 421,124 421,127 C421,124 423,122 426,122 C429,122 431,124 431,127 C431,124 433,122 436,122 C439,122 441,124 441,127 C441,124 443,122 446,122 C449,122 451,124 451,127 C451,124 453,122 456,122 C459,122 461,124 461,127 C461,124 463,122 466,122 C469,122 471,124 471,127 C474,127 476,129 476,132 C476,135 474,137 471,137 C474,137 476,139 476,142 C476,145 474,147 471,147 C474,147 476,149 476,152 C476,155 474,157 471,157 C474,157 476,159 476,162 C476,165 474,167 471,167 C474,167 476,169 476,172 C476,175 474,177 471,177 C474,177 476,179 476,182 C476,185 474,187 471,187 C471,190 468,192 466,192 C463,192 461,190 461,187 C461,190 458,192 456,192 C453,192 451,190 451,187 C451,190 448,192 446,192 C443,192 441,190 441,187 C441,190 438,192 436,192 C433,192 431,190 431,187 C431,190 428,192 426,192 C423,192 421,190 421,187 C421,190 418,192 416,192 C413,192 411,190 411,187 C411,190 408,192 406,192 C403,192 401,190 401,187 C401,190 398,192 396,192 C393,192 391,190 391,187 C391,190 388,192 386,192 C383,192 381,190 381,187 C381,190 378,192 376,192 C373,192 371,190 371,187 C371,190 368,192 366,192 C363,192 361,190 361,187 C361,190 358,192 356,192 C353,192 351,190 351,187 C351,190 348,192 346,192 C343,192 341,190 341,187 C341,190 338,192 336,192 C333,192 331,190 331,187 C331,190 328,192 326,192 C323,192 321,190 321,187 C321,190 318,192 316,192 C313,192 311,190 311,187 C311,190 308,192 306,192 C303,192 301,190 301,187 C301,190 298,192 296,192 C293,192 291,190 291,187 C291,190 288,192 286,192 C283,192 281,190 281,187 C281,190 278,192 276,192 C273,192 271,190 271,187 C271,190 268,192 266,192 C263,192 261,190 261,187 C261,190 258,192 256,192 C253,192 251,190 251,187 C251,190 248,192 246,192 C243,192 241,190 241,187 C241,190 238,192 236,192 C233,192 231,190 231,187 C231,190 228,192 226,192 C223,192 221,190 221,187 C221,190 218,192 216,192 C213,192 211,190 211,187 C211,190 208,192 206,192 C203,192 201,190 201,187 C201,190 198,192 196,192 C193,192 191,190 191,187 C191,190 188,192 186,192 C183,192 181,190 181,187 C181,190 178,192 176,192 C173,192 171,190 171,187 C168,187 166,185 166,182 C166,179 168,177 171,177 C168,177 166,175 166,172 C166,169 168,167 171,167 C168,167 166,165 166,162 C166,159 168,157 171,157 C168,157 166,155 166,152 C166,149 168,147 171,147 C168,147 166,145 166,142 C166,139 168,137 171,137 C168,137 166,135 166,132 C166,129 168,127 171,127 " fill="#FFFFFF" style="stroke: #000000; stroke-width: 1.5;"/><text fill="#000000" font-family="Helvetica" font-size="14" font-weight="bold" lengthAdjust="spacingAndGlyphs" textLength="54" x="292.5" y="143.7803">PagoPA</text><!--cluster Ente--><path d="M17,335 C17,332 19,330 22,330 C25,330 27,332 27,335 C27,332 29,330 32,330 C35,330 37,332 37,335 C37,332 39,330 42,330 C45,330 47,332 47,335 C47,332 49,330 52,330 C55,330 57,332 57,335 C57,332 59,330 62,330 C65,330 67,332 67,335 C67,332 69,330 72,330 C75,330 77,332 77,335 C77,332 79,330 82,330 C85,330 87,332 87,335 C87,332 89,330 92,330 C95,330 97,332 97,335 C97,332 99,330 102,330 C105,330 107,332 107,335 C107,332 109,330 112,330 C115,330 117,332 117,335 C117,332 119,330 122,330 C125,330 127,332 127,335 C127,332 129,330 132,330 C135,330 137,332 137,335 C137,332 139,330 142,330 C145,330 147,332 147,335 C147,332 149,330 152,330 C155,330 157,332 157,335 C157,332 159,330 162,330 C165,330 167,332 167,335 C170,335 172,337 172,340 C172,343 170,345 167,345 C170,345 172,347 172,350 C172,353 170,355 167,355 C170,355 172,357 172,360 C172,363 170,365 167,365 C170,365 172,367 172,370 C172,373 170,375 167,375 C170,375 172,377 172,380 C172,383 170,385 167,385 C170,385 172,387 172,390 C172,393 170,395 167,395 C167,398 164,400 162,400 C159,400 157,398 157,395 C157,398 154,400 152,400 C149,400 147,398 147,395 C147,398 144,400 142,400 C139,400 137,398 137,395 C137,398 134,400 132,400 C129,400 127,398 127,395 C127,398 124,400 122,400 C119,400 117,398 117,395 C117,398 114,400 112,400 C109,400 107,398 107,395 C107,398 104,400 102,400 C99,400 97,398 97,395 C97,398 94,400 92,400 C89,400 87,398 87,395 C87,398 84,400 82,400 C79,400 77,398 77,395 C77,398 74,400 72,400 C69,400 67,398 67,395 C67,398 64,400 62,400 C59,400 57,398 57,395 C57,398 54,400 52,400 C49,400 47,398 47,395 C47,398 44,400 42,400 C39,400 37,398 37,395 C37,398 34,400 32,400 C29,400 27,398 27,395 C27,398 24,400 22,400 C19,400 17,398 17,395 C14,395 12,393 12,390 C12,387 14,385 17,385 C14,385 12,383 12,380 C12,377 14,375 17,375 C14,375 12,373 12,370 C12,367 14,365 17,365 C14,365 12,363 12,360 C12,357 14,355 17,355 C14,355 12,353 12,350 C12,347 14,345 17,345 C14,345 12,343 12,340 C12,337 14,335 17,335 " fill="#FFFFFF" style="stroke: #000000; stroke-width: 1.5;"/><text fill="#000000" font-family="Helvetica" font-size="14" font-weight="bold" lengthAdjust="spacingAndGlyphs" textLength="31" x="74.5" y="351.7803">Ente</text><!--cluster Provider email--><path d="M188,335 C188,332 190,330 193,330 C196,330 198,332 198,335 C198,332 200,330 203,330 C206,330 208,332 208,335 C208,332 210,330 213,330 C216,330 218,332 218,335 C218,332 220,330 223,330 C226,330 228,332 228,335 C228,332 230,330 233,330 C236,330 238,332 238,335 C238,332 240,330 243,330 C246,330 248,332 248,335 C248,332 250,330 253,330 C256,330 258,332 258,335 C258,332 260,330 263,330 C266,330 268,332 268,335 C268,332 270,330 273,330 C276,330 278,332 278,335 C278,332 280,330 283,330 C286,330 288,332 288,335 C288,332 290,330 293,330 C296,330 298,332 298,335 C298,332 300,330 303,330 C306,330 308,332 308,335 C308,332 310,330 313,330 C316,330 318,332 318,335 C321,335 323,337 323,340 C323,343 321,345 318,345 C321,345 323,347 323,350 C323,353 321,355 318,355 C321,355 323,357 323,360 C323,363 321,365 318,365 C321,365 323,367 323,370 C323,373 321,375 318,375 C321,375 323,377 323,380 C323,383 321,385 318,385 C321,385 323,387 323,390 C323,393 321,395 318,395 C318,398 315,400 313,400 C310,400 308,398 308,395 C308,398 305,400 303,400 C300,400 298,398 298,395 C298,398 295,400 293,400 C290,400 288,398 288,395 C288,398 285,400 283,400 C280,400 278,398 278,395 C278,398 275,400 273,400 C270,400 268,398 268,395 C268,398 265,400 263,400 C260,400 258,398 258,395 C258,398 255,400 253,400 C250,400 248,398 248,395 C248,398 245,400 243,400 C240,400 238,398 238,395 C238,398 235,400 233,400 C230,400 228,398 228,395 C228,398 225,400 223,400 C220,400 218,398 218,395 C218,398 215,400 213,400 C210,400 208,398 208,395 C208,398 205,400 203,400 C200,400 198,398 198,395 C198,398 195,400 193,400 C190,400 188,398 188,395 C185,395 183,393 183,390 C183,387 185,385 188,385 C185,385 183,383 183,380 C183,377 185,375 188,375 C185,375 183,373 183,370 C183,367 185,365 188,365 C185,365 183,363 183,360 C183,357 185,355 188,355 C185,355 183,353 183,350 C183,347 185,345 188,345 C185,345 183,343 183,340 C183,337 185,335 188,335 " fill="#FFFFFF" style="stroke: #000000; stroke-width: 1.5;"/><text fill="#000000" font-family="Helvetica" font-size="14" font-weight="bold" lengthAdjust="spacingAndGlyphs" textLength="97" x="204.5" y="351.7803">Provider email</text><!--entity azurelb--><rect fill="#FEFECE" height="34" style="stroke: #000000; stroke-width: 1.5;" width="111" x="34.5" y="254"/><text fill="#000000" font-family="Helvetica" font-size="14" lengthAdjust="spacingAndGlyphs" textLength="91" x="44.5" y="274.7803">Load balancer</text><!--entity azurevm--><polygon fill="#FEFECE" points="180.5,259,190.5,249,325.5,249,325.5,283,315.5,293,180.5,293,180.5,259" style="stroke: #000000; stroke-width: 1.5;"/><line style="stroke: #000000; stroke-width: 1.5;" x1="315.5" x2="324.5" y1="259" y2="250"/><line style="stroke: #000000; stroke-width: 1.5;" x1="180.5" x2="315.5" y1="259" y2="259"/><line style="stroke: #000000; stroke-width: 1.5;" x1="315.5" x2="315.5" y1="259" y2="293"/><text fill="#000000" font-family="Helvetica" font-size="14" lengthAdjust="spacingAndGlyphs" textLength="105" x="195.5" y="279.7803">Virtual Machines</text><!--entity azurevpn--><rect fill="#FEFECE" height="34" style="stroke: #000000; stroke-width: 1.5;" width="114" x="361" y="254"/><text fill="#000000" font-family="Helvetica" font-size="14" lengthAdjust="spacingAndGlyphs" textLength="94" x="371" y="274.7803">Appliance VPN</text><!--entity pagopavpn--><rect fill="#FEFECE" height="34" style="stroke: #000000; stroke-width: 1.5;" width="114" x="349" y="150"/><text fill="#000000" font-family="Helvetica" font-size="14" lengthAdjust="spacingAndGlyphs" textLength="94" x="359" y="170.7803">Appliance VPN</text><!--entity pagopavm--><polygon fill="#FEFECE" points="176.5,155,186.5,145,313.5,145,313.5,179,303.5,189,176.5,189,176.5,155" style="stroke: #000000; stroke-width: 1.5;"/><line style="stroke: #000000; stroke-width: 1.5;" x1="303.5" x2="312.5" y1="155" y2="146"/><line style="stroke: #000000; stroke-width: 1.5;" x1="176.5" x2="303.5" y1="155" y2="155"/><line style="stroke: #000000; stroke-width: 1.5;" x1="303.5" x2="303.5" y1="155" y2="189"/><text fill="#000000" font-family="Helvetica" font-size="14" lengthAdjust="spacingAndGlyphs" textLength="97" x="191.5" y="175.7803">Server PagoPA</text><!--entity serviziovm--><polygon fill="#FEFECE" points="22,363,32,353,158,353,158,387,148,397,22,397,22,363" style="stroke: #000000; stroke-width: 1.5;"/><line style="stroke: #000000; stroke-width: 1.5;" x1="148" x2="157" y1="363" y2="354"/><line style="stroke: #000000; stroke-width: 1.5;" x1="22" x2="148" y1="363" y2="363"/><line style="stroke: #000000; stroke-width: 1.5;" x1="148" x2="148" y1="363" y2="397"/><text fill="#000000" font-family="Helvetica" font-size="14" lengthAdjust="spacingAndGlyphs" textLength="96" x="37" y="383.7803">Server Servizio</text><!--entity emailvm--><polygon fill="#FEFECE" points="193,363,203,353,313,353,313,387,303,397,193,397,193,363" style="stroke: #000000; stroke-width: 1.5;"/><line style="stroke: #000000; stroke-width: 1.5;" x1="303" x2="312" y1="363" y2="354"/><line style="stroke: #000000; stroke-width: 1.5;" x1="193" x2="303" y1="363" y2="363"/><line style="stroke: #000000; stroke-width: 1.5;" x1="303" x2="303" y1="363" y2="397"/><text fill="#000000" font-family="Helvetica" font-size="14" lengthAdjust="spacingAndGlyphs" textLength="80" x="208" y="383.7803">Server email</text><!--entity Cittadino--><ellipse cx="61" cy="18" fill="#FEFECE" rx="8" ry="8" style="stroke: #A80036; stroke-width: 2.0;"/><path d="M61,26 L61,53 M48,34 L74,34 M61,53 L48,68 M61,53 L74,68 " fill="#FEFECE" style="stroke: #A80036; stroke-width: 2.0;"/><text fill="#000000" font-family="Helvetica" font-size="14" lengthAdjust="spacingAndGlyphs" textLength="56" x="33" y="81.7803">Cittadino</text><!--entity Smartphone--><rect fill="#FEFECE" height="34" style="stroke: #A80036; stroke-width: 1.5;" width="98" x="124" y="29.5"/><text fill="#000000" font-family="Helvetica" font-size="14" lengthAdjust="spacingAndGlyphs" textLength="78" x="134" y="50.2803">Smartphone</text><!--link Cittadino to Smartphone--><path d="M89.4375,46.5 C100.8621,46.5 112.2866,46.5 123.7112,46.5 " fill="none" id="Cittadino-Smartphone" style="stroke: #A80036; stroke-width: 1.0; stroke-dasharray: 7.0,7.0;"/><!--link Smartphone to pagopavm--><path d="M183.1631,63.5091 C195.0829,83.4581 214.9897,116.7745 228.9903,140.206 " fill="none" id="Smartphone-pagopavm" style="stroke: #A80036; stroke-width: 1.0;"/><polygon fill="#A80036" points="231.7076,144.7536,230.525,134.976,229.143,140.4614,223.6575,139.0794,231.7076,144.7536" style="stroke: #A80036; stroke-width: 1.0;"/><!--link Smartphone to azurelb--><path d="M166.6249,63.7434 C151.7486,103.9812 114.7532,204.047 98.2153,248.7792 " fill="none" id="Smartphone-azurelb" style="stroke: #A80036; stroke-width: 1.0;"/><polygon fill="#A80036" points="96.3968,253.6979,103.2696,246.6435,98.1307,249.0082,95.766,243.8693,96.3968,253.6979" style="stroke: #A80036; stroke-width: 1.0;"/><!--link azurelb to serviziovm--><path d="M90,293.3851 C90,310.9237 90,335.205 90,352.7173 " fill="none" id="azurelb-serviziovm" style="stroke: #A80036; stroke-width: 1.0;"/><polygon fill="#A80036" points="90,288.1735,86,297.1735,90,293.1735,94,297.1735,90,288.1735" style="stroke: #A80036; stroke-width: 1.0;"/><!--link azurelb to azurevm--><path d="M145.7129,271 C155.5866,271 165.4603,271 175.3341,271 " fill="none" id="azurelb-azurevm" style="stroke: #A80036; stroke-width: 1.0;"/><polygon fill="#A80036" points="180.4974,271,171.4974,267,175.4974,271,171.4974,275,180.4974,271" style="stroke: #A80036; stroke-width: 1.0;"/><!--link azurevm to azurevpn--><path d="M330.7654,271 C340.8157,271 350.8659,271 360.9162,271 " fill="none" id="azurevm-azurevpn" style="stroke: #A80036; stroke-width: 1.0;"/><polygon fill="#A80036" points="325.5098,271,334.5098,275,330.5098,271,334.5098,267,325.5098,271" style="stroke: #A80036; stroke-width: 1.0;"/><!--link pagopavpn to azurevpn--><path d="M407.9816,184.1735 C410.0139,201.787 413.1846,229.2667 415.4135,248.584 " fill="none" id="pagopavpn-azurevpn" style="stroke: #A80036; stroke-width: 1.0;"/><polygon fill="#A80036" points="416.0155,253.801,418.9572,244.4017,415.4422,248.834,411.01,245.319,416.0155,253.801" style="stroke: #A80036; stroke-width: 1.0;"/><!--link pagopavm to pagopavpn--><path d="M318.8041,167 C328.8499,167 338.8957,167 348.9415,167 " fill="none" id="pagopavm-pagopavpn" style="stroke: #A80036; stroke-width: 1.0;"/><polygon fill="#A80036" points="313.5508,167,322.5508,171,318.5508,167,322.5508,163,313.5508,167" style="stroke: #A80036; stroke-width: 1.0;"/><!--link azurevm to emailvm--><path d="M253,293.0557 C253,309.0503 253,330.7785 253,347.8418 " fill="none" id="azurevm-emailvm" style="stroke: #A80036; stroke-width: 1.0;"/><polygon fill="#A80036" points="253,352.9761,257,343.9761,253,347.9761,249,343.9761,253,352.9761" style="stroke: #A80036; stroke-width: 1.0;"/><!--
@startuml
skinparamlocked shadowing false
skinparamlocked DefaultFontName Helvetica

actor Cittadino

agent Smartphone

cloud "Regione Azure" {
  rectangle "Load balancer" as azurelb
  node "Virtual Machines" as azurevm
  rectangle "Appliance VPN" as azurevpn
}

cloud "PagoPA" {
  rectangle "Appliance VPN" as pagopavpn
  node "Server PagoPA" as pagopavm
}

cloud "Ente" {
  node "Server Servizio" as serviziovm
}

cloud "Provider email" {
  node "Server email" as emailvm
}

Cittadino .r. Smartphone

Smartphone - -> pagopavm
Smartphone - - -> azurelb

serviziovm -u-> azurelb

azurelb -r-> azurevm
azurevpn -l-> azurevm

pagopavpn -d-> azurevpn

pagopavpn -l-> pagopavm

azurevm - -> emailvm

@enduml

PlantUML version 1.2018.00(Thu Jan 04 20:42:56 CET 2018)
(GPL source distribution)
Java Runtime: Java(TM) SE Runtime Environment
JVM: Java HotSpot(TM) 64-Bit Server VM
Java Version: 1.8.0_66-b17
Operating System: Mac OS X
OS Version: 10.13.4
Default Encoding: UTF-8
Language: en
Country: US
--></g></svg>