<?xml version="1.0" encoding="UTF-8" standalone="no"?><svg xmlns="http://www.w3.org/2000/svg" xmlns:xlink="http://www.w3.org/1999/xlink" contentScriptType="application/ecmascript" contentStyleType="text/css" height="390px" preserveAspectRatio="none" style="width:896px;height:390px;" version="1.1" viewBox="0 0 896 390" width="896px" zoomAndPan="magnify"><defs/><g><!--cluster Ente Erogatore--><rect fill="#FFFFFF" height="168" style="stroke: #000000; stroke-width: 1.5;" width="327" x="205" y="16.5"/><text fill="#000000" font-family="Helvetica" font-size="14" font-weight="bold" lengthAdjust="spacingAndGlyphs" textLength="102" x="317.5" y="37.2803">Ente Erogatore</text><!--cluster Cittadinanza Digitale--><rect fill="#FFFFFF" height="99" style="stroke: #000000; stroke-width: 1.5;" width="174" x="711" y="51"/><text fill="#000000" font-family="Helvetica" font-size="14" font-weight="bold" lengthAdjust="spacingAndGlyphs" textLength="142" x="727" y="71.7803">Cittadinanza Digitale</text><!--cluster Servizio email\ntransazionale\n--><path d="M565,253.5 C565,250.5 567,248.5 570,248.5 C573,248.5 575,250.5 575,253.5 C575,250.5 577,248.5 580,248.5 C583,248.5 585,250.5 585,253.5 C585,250.5 587,248.5 590,248.5 C593,248.5 595,250.5 595,253.5 C595,250.5 597,248.5 600,248.5 C603,248.5 605,250.5 605,253.5 C605,250.5 607,248.5 610,248.5 C613,248.5 615,250.5 615,253.5 C615,250.5 617,248.5 620,248.5 C623,248.5 625,250.5 625,253.5 C625,250.5 627,248.5 630,248.5 C633,248.5 635,250.5 635,253.5 C635,250.5 637,248.5 640,248.5 C643,248.5 645,250.5 645,253.5 C645,250.5 647,248.5 650,248.5 C653,248.5 655,250.5 655,253.5 C655,250.5 657,248.5 660,248.5 C663,248.5 665,250.5 665,253.5 C665,250.5 667,248.5 670,248.5 C673,248.5 675,250.5 675,253.5 C675,250.5 677,248.5 680,248.5 C683,248.5 685,250.5 685,253.5 C688,253.5 690,255.5 690,258.5 C690,261.5 688,263.5 685,263.5 C688,263.5 690,265.5 690,268.5 C690,271.5 688,273.5 685,273.5 C688,273.5 690,275.5 690,278.5 C690,281.5 688,283.5 685,283.5 C688,283.5 690,285.5 690,288.5 C690,291.5 688,293.5 685,293.5 C688,293.5 690,295.5 690,298.5 C690,301.5 688,303.5 685,303.5 C688,303.5 690,305.5 690,308.5 C690,311.5 688,313.5 685,313.5 C688,313.5 690,315.5 690,318.5 C690,321.5 688,323.5 685,323.5 C688,323.5 690,325.5 690,328.5 C690,331.5 688,333.5 685,333.5 C688,333.5 690,335.5 690,338.5 C690,341.5 688,343.5 685,343.5 C688,343.5 690,345.5 690,348.5 C690,351.5 688,353.5 685,353.5 C688,353.5 690,355.5 690,358.5 C690,361.5 688,363.5 685,363.5 C685,366.5 682,368.5 680,368.5 C677,368.5 675,366.5 675,363.5 C675,366.5 672,368.5 670,368.5 C667,368.5 665,366.5 665,363.5 C665,366.5 662,368.5 660,368.5 C657,368.5 655,366.5 655,363.5 C655,366.5 652,368.5 650,368.5 C647,368.5 645,366.5 645,363.5 C645,366.5 642,368.5 640,368.5 C637,368.5 635,366.5 635,363.5 C635,366.5 632,368.5 630,368.5 C627,368.5 625,366.5 625,363.5 C625,366.5 622,368.5 620,368.5 C617,368.5 615,366.5 615,363.5 C615,366.5 612,368.5 610,368.5 C607,368.5 605,366.5 605,363.5 C605,366.5 602,368.5 600,368.5 C597,368.5 595,366.5 595,363.5 C595,366.5 592,368.5 590,368.5 C587,368.5 585,366.5 585,363.5 C585,366.5 582,368.5 580,368.5 C577,368.5 575,366.5 575,363.5 C575,366.5 572,368.5 570,368.5 C567,368.5 565,366.5 565,363.5 C562,363.5 560,361.5 560,358.5 C560,355.5 562,353.5 565,353.5 C562,353.5 560,351.5 560,348.5 C560,345.5 562,343.5 565,343.5 C562,343.5 560,341.5 560,338.5 C560,335.5 562,333.5 565,333.5 C562,333.5 560,331.5 560,328.5 C560,325.5 562,323.5 565,323.5 C562,323.5 560,321.5 560,318.5 C560,315.5 562,313.5 565,313.5 C562,313.5 560,311.5 560,308.5 C560,305.5 562,303.5 565,303.5 C562,303.5 560,301.5 560,298.5 C560,295.5 562,293.5 565,293.5 C562,293.5 560,291.5 560,288.5 C560,285.5 562,283.5 565,283.5 C562,283.5 560,281.5 560,278.5 C560,275.5 562,273.5 565,273.5 C562,273.5 560,271.5 560,268.5 C560,265.5 562,263.5 565,263.5 C562,263.5 560,261.5 560,258.5 C560,255.5 562,253.5 565,253.5 " fill="#FFFFFF" style="stroke: #000000; stroke-width: 1.5;"/><text fill="#000000" font-family="Helvetica" font-size="14" font-weight="bold" lengthAdjust="spacingAndGlyphs" textLength="94" x="578" y="278.2803">Servizio email</text><text fill="#000000" font-family="Helvetica" font-size="14" font-weight="bold" lengthAdjust="spacingAndGlyphs" textLength="92" x="579" y="292.2803">transazionale</text><text fill="#000000" font-family="Helvetica" font-size="14" font-weight="bold" lengthAdjust="spacingAndGlyphs" textLength="0" x="627" y="306.2803"/><!--cluster Fornitore email\n--><path d="M208,263 C208,260 210,258 213,258 C216,258 218,260 218,263 C218,260 220,258 223,258 C226,258 228,260 228,263 C228,260 230,258 233,258 C236,258 238,260 238,263 C238,260 240,258 243,258 C246,258 248,260 248,263 C248,260 250,258 253,258 C256,258 258,260 258,263 C258,260 260,258 263,258 C266,258 268,260 268,263 C268,260 270,258 273,258 C276,258 278,260 278,263 C278,260 280,258 283,258 C286,258 288,260 288,263 C288,260 290,258 293,258 C296,258 298,260 298,263 C298,260 300,258 303,258 C306,258 308,260 308,263 C308,260 310,258 313,258 C316,258 318,260 318,263 C318,260 320,258 323,258 C326,258 328,260 328,263 C328,260 330,258 333,258 C336,258 338,260 338,263 C341,263 343,265 343,268 C343,271 341,273 338,273 C341,273 343,275 343,278 C343,281 341,283 338,283 C341,283 343,285 343,288 C343,291 341,293 338,293 C341,293 343,295 343,298 C343,301 341,303 338,303 C341,303 343,305 343,308 C343,311 341,313 338,313 C341,313 343,315 343,318 C343,321 341,323 338,323 C341,323 343,325 343,328 C343,331 341,333 338,333 C341,333 343,335 343,338 C343,341 341,343 338,343 C341,343 343,345 343,348 C343,351 341,353 338,353 C341,353 343,355 343,358 C343,361 341,363 338,363 C341,363 343,365 343,368 C343,371 341,373 338,373 C338,376 335,378 333,378 C330,378 328,376 328,373 C328,376 325,378 323,378 C320,378 318,376 318,373 C318,376 315,378 313,378 C310,378 308,376 308,373 C308,376 305,378 303,378 C300,378 298,376 298,373 C298,376 295,378 293,378 C290,378 288,376 288,373 C288,376 285,378 283,378 C280,378 278,376 278,373 C278,376 275,378 273,378 C270,378 268,376 268,373 C268,376 265,378 263,378 C260,378 258,376 258,373 C258,376 255,378 253,378 C250,378 248,376 248,373 C248,376 245,378 243,378 C240,378 238,376 238,373 C238,376 235,378 233,378 C230,378 228,376 228,373 C228,376 225,378 223,378 C220,378 218,376 218,373 C218,376 215,378 213,378 C210,378 208,376 208,373 C205,373 203,371 203,368 C203,365 205,363 208,363 C205,363 203,361 203,358 C203,355 205,353 208,353 C205,353 203,351 203,348 C203,345 205,343 208,343 C205,343 203,341 203,338 C203,335 205,333 208,333 C205,333 203,331 203,328 C203,325 205,323 208,323 C205,323 203,321 203,318 C203,315 205,313 208,313 C205,313 203,311 203,308 C203,305 205,303 208,303 C205,303 203,301 203,298 C203,295 205,293 208,293 C205,293 203,291 203,288 C203,285 205,283 208,283 C205,283 203,281 203,278 C203,275 205,273 208,273 C205,273 203,271 203,268 C203,265 205,263 208,263 " fill="#FFFFFF" style="stroke: #000000; stroke-width: 1.5;"/><text fill="#000000" font-family="Helvetica" font-size="14" font-weight="bold" lengthAdjust="spacingAndGlyphs" textLength="103" x="222.5" y="287.7803">Fornitore email</text><text fill="#000000" font-family="Helvetica" font-size="14" font-weight="bold" lengthAdjust="spacingAndGlyphs" textLength="0" x="276" y="301.7803"/><!--entity ente--><rect fill="#FEFECE" height="50" style="stroke: #A80036; stroke-width: 1.5;" width="86" x="438" y="92"/><text fill="#000000" font-family="Helvetica" font-size="14" lengthAdjust="spacingAndGlyphs" textLength="50" x="456" y="120.7803">Servizio</text><!--entity emaildb--><path d="M213.5,67.5 C213.5,57.5 258,57.5 258,57.5 C258,57.5 302.5,57.5 302.5,67.5 L302.5,166.5 C302.5,176.5 258,176.5 258,176.5 C258,176.5 213.5,176.5 213.5,166.5 L213.5,67.5 " fill="#FEFECE" style="stroke: #000000; stroke-width: 1.5;"/><path d="M213.5,67.5 C213.5,77.5 258,77.5 258,77.5 C258,77.5 302.5,77.5 302.5,67.5 " fill="none" style="stroke: #000000; stroke-width: 1.5;"/><text fill="#000000" font-family="Helvetica" font-size="14" lengthAdjust="spacingAndGlyphs" textLength="35" x="231.5" y="100.2803">Email</text><text fill="#000000" font-family="Helvetica" font-size="14" lengthAdjust="spacingAndGlyphs" textLength="45" x="231.5" y="130.2803">censite</text><text fill="#000000" font-family="Helvetica" font-size="14" lengthAdjust="spacingAndGlyphs" textLength="53" x="231.5" y="160.2803">dall'ente</text><!--entity apimessaggi--><rect fill="#FEFECE" height="50" style="stroke: #A80036; stroke-width: 1.5;" width="123" x="736.5" y="92"/><text fill="#000000" font-family="Helvetica" font-size="14" lengthAdjust="spacingAndGlyphs" textLength="87" x="754.5" y="120.7803">API Messaggi</text><!--entity txemail--><rect fill="#FEFECE" height="50" style="stroke: #A80036; stroke-width: 1.5;" width="96" x="577" y="315.5"/><text fill="#000000" font-family="Helvetica" font-size="14" lengthAdjust="spacingAndGlyphs" textLength="60" x="595" y="344.2803">API email</text><!--entity emailprovider--><path d="M213.5,321 C213.5,311 274,311 274,311 C274,311 334.5,311 334.5,321 L334.5,360 C334.5,370 274,370 274,370 C274,370 213.5,370 213.5,360 L213.5,321 " fill="#FEFECE" style="stroke: #000000; stroke-width: 1.5;"/><path d="M213.5,321 C213.5,331 274,331 274,331 C274,331 334.5,331 334.5,321 " fill="none" style="stroke: #000000; stroke-width: 1.5;"/><text fill="#000000" font-family="Helvetica" font-size="14" lengthAdjust="spacingAndGlyphs" textLength="85" x="231.5" y="353.7803">Casella email</text><!--entity cittadino--><ellipse cx="42" cy="80.5" fill="#FEFECE" rx="8" ry="8" style="stroke: #A80036; stroke-width: 2.0;"/><path d="M42,88.5 L42,115.5 M29,96.5 L55,96.5 M42,115.5 L29,130.5 M42,115.5 L55,130.5 " fill="#FEFECE" style="stroke: #A80036; stroke-width: 2.0;"/><text fill="#000000" font-family="Helvetica" font-size="14" lengthAdjust="spacingAndGlyphs" textLength="56" x="14" y="152.2803">Cittadino</text><!--link cittadino to emaildb--><path d="M78.1535,117 C113.784,117 168.5084,117 208.2351,117 " fill="none" id="cittadino-emaildb" style="stroke: #A80036; stroke-width: 1.0;"/><polygon fill="#A80036" points="213.4923,117,204.4923,113,208.4923,117,204.4923,121,213.4923,117" style="stroke: #A80036; stroke-width: 1.0;"/><text fill="#000000" font-family="Helvetica" font-size="14" lengthAdjust="spacingAndGlyphs" textLength="83" x="104.25" y="101.7803">(1) CF, email</text><!--link emaildb to ente--><path d="M302.5914,117 C340.1788,117 393.8641,117 432.5122,117 " fill="none" id="emaildb-ente" style="stroke: #A80036; stroke-width: 1.0;"/><polygon fill="#A80036" points="437.6241,117,428.6241,113,432.6241,117,428.6241,121,437.6241,117" style="stroke: #A80036; stroke-width: 1.0;"/><text fill="#000000" font-family="Helvetica" font-size="14" lengthAdjust="spacingAndGlyphs" textLength="83" x="328.75" y="101.7803">(2) CF, email</text><!--link ente to apimessaggi--><path d="M524.0819,117 C577.348,117 668.598,117 731.0274,117 " fill="none" id="ente-apimessaggi" style="stroke: #A80036; stroke-width: 1.0;"/><polygon fill="#A80036" points="736.2228,117,727.2228,113,731.2228,117,727.2228,121,736.2228,117" style="stroke: #A80036; stroke-width: 1.0;"/><text fill="#000000" font-family="Helvetica" font-size="14" lengthAdjust="spacingAndGlyphs" textLength="160" x="550.25" y="139.7803">(3) CF, email, messaggio</text><!--link apimessaggi to txemail--><path d="M778.491,142.2038 C746.2177,183.8979 681.887,267.0073 647.6545,311.2325 " fill="none" id="apimessaggi-txemail" style="stroke: #A80036; stroke-width: 1.0;"/><polygon fill="#A80036" points="644.4377,315.3883,653.1097,310.7196,647.4982,311.4344,646.7834,305.8229,644.4377,315.3883" style="stroke: #A80036; stroke-width: 1.0;"/><text fill="#000000" font-family="Helvetica" font-size="14" lengthAdjust="spacingAndGlyphs" textLength="133" x="735" y="226.2803">(4) email, messaggio</text><!--link emailprovider to txemail--><path d="M340.0492,340.5 C408.99,340.5 515.4356,340.5 576.8377,340.5 " fill="none" id="emailprovider-txemail" style="stroke: #A80036; stroke-width: 1.0;"/><polygon fill="#A80036" points="334.7388,340.5,343.7388,344.5,339.7388,340.5,343.7388,336.5,334.7388,340.5" style="stroke: #A80036; stroke-width: 1.0;"/><text fill="#000000" font-family="Helvetica" font-size="14" lengthAdjust="spacingAndGlyphs" textLength="133" x="389.25" y="325.2803">(5) email, messaggio</text><!--link cittadino to emailprovider--><path d="M82.0411,155.5741 C127.7998,199.6563 201.7004,270.8494 243.1922,310.8209 " fill="none" id="cittadino-emailprovider" style="stroke: #A80036; stroke-width: 1.0;"/><polygon fill="#A80036" points="78.25,151.9219,81.9565,161.0467,81.8509,155.3908,87.5068,155.2852,78.25,151.9219" style="stroke: #A80036; stroke-width: 1.0;"/><text fill="#000000" font-family="Helvetica" font-size="14" lengthAdjust="spacingAndGlyphs" textLength="91" x="173" y="226.2803">(6) messaggio</text><!--
@startuml
skinparamlocked shadowing false
skinparamlocked DefaultFontName Helvetica
skinparamlocked DefaultFontSize 14
skinparamlocked Padding 8

rectangle "Ente Erogatore" {
  agent "Servizio" as ente
  database "Email\ncensite\ndall'ente" as emaildb
}

rectangle "Cittadinanza Digitale" {
  agent "API Messaggi" as apimessaggi
}

cloud "Servizio email\ntransazionale\n" {
  agent "API email" as txemail
}

cloud "Fornitore email\n" {
  database "Casella email" as emailprovider
}

:Cittadino: as cittadino

cittadino -> emaildb : (1) CF, email

emaildb -> ente : (2) CF, email

ente -> apimessaggi : (3) CF, email, messaggio

apimessaggi -down-> txemail : (4) email, messaggio

txemail -left-> emailprovider : (5) email, messaggio

emailprovider -up-> cittadino : (6) messaggio

@enduml

PlantUML version 1.2018.00(Thu Jan 04 20:42:56 CET 2018)
(GPL source distribution)
Java Runtime: Java(TM) SE Runtime Environment
JVM: Java HotSpot(TM) 64-Bit Server VM
Java Version: 1.8.0_66-b17
Operating System: Mac OS X
OS Version: 10.13.4
Default Encoding: UTF-8
Language: en
Country: US
--></g></svg>