<?xml version="1.0" encoding="UTF-8" standalone="no"?><svg xmlns="http://www.w3.org/2000/svg" xmlns:xlink="http://www.w3.org/1999/xlink" contentScriptType="application/ecmascript" contentStyleType="text/css" height="460px" preserveAspectRatio="none" style="width:429px;height:460px;" version="1.1" viewBox="0 0 429 460" width="429px" zoomAndPan="magnify"><defs><filter height="300%" id="fiw6mo23u8u18" width="300%" x="-1" y="-1"><feGaussianBlur result="blurOut" stdDeviation="2.0"/><feColorMatrix in="blurOut" result="blurOut2" type="matrix" values="0 0 0 0 0 0 0 0 0 0 0 0 0 0 0 0 0 0 .4 0"/><feOffset dx="4.0" dy="4.0" in="blurOut2" result="blurOut3"/><feBlend in="SourceGraphic" in2="blurOut3" mode="normal"/></filter></defs><g><!--cluster Ente--><rect fill="#FFFFFF" filter="url(#fiw6mo23u8u18)" height="113" style="stroke: #000000; stroke-width: 1.5;" width="203" x="198.5" y="16.5"/><text fill="#000000" font-family="sans-serif" font-size="14" font-weight="bold" lengthAdjust="spacingAndGlyphs" textLength="31" x="284.5" y="32.0352">Ente</text><!--cluster Cittadinanza Digitale--><rect fill="#FFFFFF" filter="url(#fiw6mo23u8u18)" height="71" style="stroke: #000000; stroke-width: 1.5;" width="169" x="224.5" y="209"/><text fill="#000000" font-family="sans-serif" font-size="14" font-weight="bold" lengthAdjust="spacingAndGlyphs" textLength="153" x="232.5" y="224.5352">Cittadinanza Digitale</text><path d="M67.5,363 C67.5,360 69.5,358 72.5,358 C75.5,358 77.5,360 77.5,363 C77.5,360 79.5,358 82.5,358 C85.5,358 87.5,360 87.5,363 C87.5,360 89.5,358 92.5,358 C95.5,358 97.5,360 97.5,363 C97.5,360 99.5,358 102.5,358 C105.5,358 107.5,360 107.5,363 C107.5,360 109.5,358 112.5,358 C115.5,358 117.5,360 117.5,363 C117.5,360 119.5,358 122.5,358 C125.5,358 127.5,360 127.5,363 C127.5,360 129.5,358 132.5,358 C135.5,358 137.5,360 137.5,363 C137.5,360 139.5,358 142.5,358 C145.5,358 147.5,360 147.5,363 C147.5,360 149.5,358 152.5,358 C155.5,358 157.5,360 157.5,363 C157.5,360 159.5,358 162.5,358 C165.5,358 167.5,360 167.5,363 C167.5,360 169.5,358 172.5,358 C175.5,358 177.5,360 177.5,363 C177.5,360 179.5,358 182.5,358 C185.5,358 187.5,360 187.5,363 C187.5,360 189.5,358 192.5,358 C195.5,358 197.5,360 197.5,363 C197.5,360 199.5,358 202.5,358 C205.5,358 207.5,360 207.5,363 C207.5,360 209.5,358 212.5,358 C215.5,358 217.5,360 217.5,363 C217.5,360 219.5,358 222.5,358 C225.5,358 227.5,360 227.5,363 C227.5,360 229.5,358 232.5,358 C235.5,358 237.5,360 237.5,363 C237.5,360 239.5,358 242.5,358 C245.5,358 247.5,360 247.5,363 C247.5,360 249.5,358 252.5,358 C255.5,358 257.5,360 257.5,363 C257.5,360 259.5,358 262.5,358 C265.5,358 267.5,360 267.5,363 C267.5,360 269.5,358 272.5,358 C275.5,358 277.5,360 277.5,363 C277.5,360 279.5,358 282.5,358 C285.5,358 287.5,360 287.5,363 C287.5,360 289.5,358 292.5,358 C295.5,358 297.5,360 297.5,363 C297.5,360 299.5,358 302.5,358 C305.5,358 307.5,360 307.5,363 C307.5,360 309.5,358 312.5,358 C315.5,358 317.5,360 317.5,363 C317.5,360 319.5,358 322.5,358 C325.5,358 327.5,360 327.5,363 C327.5,360 329.5,358 332.5,358 C335.5,358 337.5,360 337.5,363 C337.5,360 339.5,358 342.5,358 C345.5,358 347.5,360 347.5,363 C347.5,360 349.5,358 352.5,358 C355.5,358 357.5,360 357.5,363 C357.5,360 359.5,358 362.5,358 C365.5,358 367.5,360 367.5,363 C367.5,360 369.5,358 372.5,358 C375.5,358 377.5,360 377.5,363 C377.5,360 379.5,358 382.5,358 C385.5,358 387.5,360 387.5,363 C390.5,363 392.5,365 392.5,368 C392.5,371 390.5,373 387.5,373 C390.5,373 392.5,375 392.5,378 C392.5,381 390.5,383 387.5,383 C390.5,383 392.5,385 392.5,388 C392.5,391 390.5,393 387.5,393 C390.5,393 392.5,395 392.5,398 C392.5,401 390.5,403 387.5,403 C390.5,403 392.5,405 392.5,408 C392.5,411 390.5,413 387.5,413 C390.5,413 392.5,415 392.5,418 C392.5,421 390.5,423 387.5,423 C390.5,423 392.5,425 392.5,428 C392.5,431 390.5,433 387.5,433 C390.5,433 392.5,435 392.5,438 C392.5,441 390.5,443 387.5,443 C387.5,446 384.5,448 382.5,448 C379.5,448 377.5,446 377.5,443 C377.5,446 374.5,448 372.5,448 C369.5,448 367.5,446 367.5,443 C367.5,446 364.5,448 362.5,448 C359.5,448 357.5,446 357.5,443 C357.5,446 354.5,448 352.5,448 C349.5,448 347.5,446 347.5,443 C347.5,446 344.5,448 342.5,448 C339.5,448 337.5,446 337.5,443 C337.5,446 334.5,448 332.5,448 C329.5,448 327.5,446 327.5,443 C327.5,446 324.5,448 322.5,448 C319.5,448 317.5,446 317.5,443 C317.5,446 314.5,448 312.5,448 C309.5,448 307.5,446 307.5,443 C307.5,446 304.5,448 302.5,448 C299.5,448 297.5,446 297.5,443 C297.5,446 294.5,448 292.5,448 C289.5,448 287.5,446 287.5,443 C287.5,446 284.5,448 282.5,448 C279.5,448 277.5,446 277.5,443 C277.5,446 274.5,448 272.5,448 C269.5,448 267.5,446 267.5,443 C267.5,446 264.5,448 262.5,448 C259.5,448 257.5,446 257.5,443 C257.5,446 254.5,448 252.5,448 C249.5,448 247.5,446 247.5,443 C247.5,446 244.5,448 242.5,448 C239.5,448 237.5,446 237.5,443 C237.5,446 234.5,448 232.5,448 C229.5,448 227.5,446 227.5,443 C227.5,446 224.5,448 222.5,448 C219.5,448 217.5,446 217.5,443 C217.5,446 214.5,448 212.5,448 C209.5,448 207.5,446 207.5,443 C207.5,446 204.5,448 202.5,448 C199.5,448 197.5,446 197.5,443 C197.5,446 194.5,448 192.5,448 C189.5,448 187.5,446 187.5,443 C187.5,446 184.5,448 182.5,448 C179.5,448 177.5,446 177.5,443 C177.5,446 174.5,448 172.5,448 C169.5,448 167.5,446 167.5,443 C167.5,446 164.5,448 162.5,448 C159.5,448 157.5,446 157.5,443 C157.5,446 154.5,448 152.5,448 C149.5,448 147.5,446 147.5,443 C147.5,446 144.5,448 142.5,448 C139.5,448 137.5,446 137.5,443 C137.5,446 134.5,448 132.5,448 C129.5,448 127.5,446 127.5,443 C127.5,446 124.5,448 122.5,448 C119.5,448 117.5,446 117.5,443 C117.5,446 114.5,448 112.5,448 C109.5,448 107.5,446 107.5,443 C107.5,446 104.5,448 102.5,448 C99.5,448 97.5,446 97.5,443 C97.5,446 94.5,448 92.5,448 C89.5,448 87.5,446 87.5,443 C87.5,446 84.5,448 82.5,448 C79.5,448 77.5,446 77.5,443 C77.5,446 74.5,448 72.5,448 C69.5,448 67.5,446 67.5,443 C64.5,443 62.5,441 62.5,438 C62.5,435 64.5,433 67.5,433 C64.5,433 62.5,431 62.5,428 C62.5,425 64.5,423 67.5,423 C64.5,423 62.5,421 62.5,418 C62.5,415 64.5,413 67.5,413 C64.5,413 62.5,411 62.5,408 C62.5,405 64.5,403 67.5,403 C64.5,403 62.5,401 62.5,398 C62.5,395 64.5,393 67.5,393 C64.5,393 62.5,391 62.5,388 C62.5,385 64.5,383 67.5,383 C64.5,383 62.5,381 62.5,378 C62.5,375 64.5,373 67.5,373 C64.5,373 62.5,371 62.5,368 C62.5,365 64.5,363 67.5,363 " fill="#FFFFFF" filter="url(#fiw6mo23u8u18)" style="stroke: #000000; stroke-width: 1.5;"/><!--entity ente--><rect fill="#FEFECE" filter="url(#fiw6mo23u8u18)" height="69.4648" style="stroke: #A80036; stroke-width: 1.5;" width="74" x="319.5" y="48"/><text fill="#000000" font-family="sans-serif" font-size="14" lengthAdjust="spacingAndGlyphs" textLength="54" x="329.5" y="71.5352">Servizio</text><text fill="#000000" font-family="sans-serif" font-size="14" lengthAdjust="spacingAndGlyphs" textLength="46" x="329.5" y="88.0234">presso</text><text fill="#000000" font-family="sans-serif" font-size="14" lengthAdjust="spacingAndGlyphs" textLength="30" x="329.5" y="104.5117">ente</text><!--entity emaildb--><path d="M206.5,53.5 C206.5,43.5 245.5,43.5 245.5,43.5 C245.5,43.5 284.5,43.5 284.5,53.5 L284.5,111.9648 C284.5,121.9648 245.5,121.9648 245.5,121.9648 C245.5,121.9648 206.5,121.9648 206.5,111.9648 L206.5,53.5 " fill="#FEFECE" filter="url(#fiw6mo23u8u18)" style="stroke: #000000; stroke-width: 1.5;"/><path d="M206.5,53.5 C206.5,63.5 245.5,63.5 245.5,63.5 C245.5,63.5 284.5,63.5 284.5,53.5 " fill="none" style="stroke: #000000; stroke-width: 1.5;"/><text fill="#000000" font-family="sans-serif" font-size="14" lengthAdjust="spacingAndGlyphs" textLength="37" x="216.5" y="81.0352">Email</text><text fill="#000000" font-family="sans-serif" font-size="14" lengthAdjust="spacingAndGlyphs" textLength="48" x="216.5" y="97.5234">censite</text><text fill="#000000" font-family="sans-serif" font-size="14" lengthAdjust="spacingAndGlyphs" textLength="58" x="216.5" y="114.0117">dall'ente</text><!--entity apimessaggi--><rect fill="#FEFECE" filter="url(#fiw6mo23u8u18)" height="36.4883" style="stroke: #A80036; stroke-width: 1.5;" width="110" x="275.5" y="236"/><text fill="#000000" font-family="sans-serif" font-size="14" lengthAdjust="spacingAndGlyphs" textLength="90" x="285.5" y="259.5352">API Messaggi</text><!--entity txemail--><rect fill="#FEFECE" filter="url(#fiw6mo23u8u18)" height="69.4648" style="stroke: #A80036; stroke-width: 1.5;" width="113" x="265" y="368.5"/><text fill="#000000" font-family="sans-serif" font-size="14" lengthAdjust="spacingAndGlyphs" textLength="54" x="275" y="392.0352">Servizio</text><text fill="#000000" font-family="sans-serif" font-size="14" lengthAdjust="spacingAndGlyphs" textLength="37" x="275" y="408.5234">email</text><text fill="#000000" font-family="sans-serif" font-size="14" lengthAdjust="spacingAndGlyphs" textLength="93" x="275" y="425.0117">transazionale</text><!--entity emailprovider--><path d="M72.5,374 C72.5,364 114.5,364 114.5,364 C114.5,364 156.5,364 156.5,374 L156.5,432.4648 C156.5,442.4648 114.5,442.4648 114.5,442.4648 C114.5,442.4648 72.5,442.4648 72.5,432.4648 L72.5,374 " fill="#FEFECE" filter="url(#fiw6mo23u8u18)" style="stroke: #000000; stroke-width: 1.5;"/><path d="M72.5,374 C72.5,384 114.5,384 114.5,384 C114.5,384 156.5,384 156.5,374 " fill="none" style="stroke: #000000; stroke-width: 1.5;"/><text fill="#000000" font-family="sans-serif" font-size="14" lengthAdjust="spacingAndGlyphs" textLength="64" x="82.5" y="401.5352">Fornitore</text><text fill="#000000" font-family="sans-serif" font-size="14" lengthAdjust="spacingAndGlyphs" textLength="37" x="82.5" y="418.0234">email</text><text fill="#000000" font-family="sans-serif" font-size="14" lengthAdjust="spacingAndGlyphs" textLength="60" x="82.5" y="434.5117">cittadino</text><!--entity cittadino--><ellipse cx="37.5" cy="51" fill="#FEFECE" filter="url(#fiw6mo23u8u18)" rx="8" ry="8" style="stroke: #A80036; stroke-width: 2.0;"/><path d="M37.5,59 L37.5,86 M24.5,67 L50.5,67 M37.5,86 L24.5,101 M37.5,86 L50.5,101 " fill="#FEFECE" filter="url(#fiw6mo23u8u18)" style="stroke: #A80036; stroke-width: 2.0;"/><text fill="#000000" font-family="sans-serif" font-size="14" lengthAdjust="spacingAndGlyphs" textLength="63" x="6" y="121.5352">Cittadino</text><!--link cittadino to emaildb--><path d="M69.0907,82.5 C104.2215,82.5 161.2358,82.5 200.9035,82.5 " fill="none" id="cittadino-emaildb" style="stroke: #A80036; stroke-width: 1.0;"/><polygon fill="#A80036" points="206.138,82.5,197.138,78.5,201.138,82.5,197.138,86.5,206.138,82.5" style="stroke: #A80036; stroke-width: 1.0;"/><text fill="#000000" font-family="sans-serif" font-size="13" lengthAdjust="spacingAndGlyphs" textLength="101" x="87.25" y="61.0684">fornisce proprio</text><text fill="#000000" font-family="sans-serif" font-size="13" lengthAdjust="spacingAndGlyphs" textLength="93" x="91.25" y="76.3789">indirizzo email</text><!--link emaildb to ente--><path d="M284.5234,82.5 C294.4196,82.5 304.3158,82.5 314.212,82.5 " fill="none" id="emaildb-ente" style="stroke: #A80036; stroke-width: 1.0;"/><polygon fill="#A80036" points="319.3871,82.5,310.3871,78.5,314.3871,82.5,310.3871,86.5,319.3871,82.5" style="stroke: #A80036; stroke-width: 1.0;"/><!--link ente to apimessaggi--><path d="M351.2385,117.2056 C346.1259,150.9294 338.5025,201.2143 334.063,230.4978 " fill="none" id="ente-apimessaggi" style="stroke: #A80036; stroke-width: 1.0;"/><polygon fill="#A80036" points="333.2724,235.7125,338.5762,227.4137,334.0218,230.769,330.6665,226.2146,333.2724,235.7125" style="stroke: #A80036; stroke-width: 1.0;"/><text fill="#000000" font-family="sans-serif" font-size="13" lengthAdjust="spacingAndGlyphs" textLength="72" x="345.5" y="167.5684">messaggio,</text><text fill="#000000" font-family="sans-serif" font-size="13" lengthAdjust="spacingAndGlyphs" textLength="20" x="371.5" y="182.8789">CF,</text><text fill="#000000" font-family="sans-serif" font-size="13" lengthAdjust="spacingAndGlyphs" textLength="34" x="364.5" y="198.1895">email</text><!--link apimessaggi to txemail--><path d="M329.3964,272.2703 C328.0342,294.8225 325.6793,333.8099 323.8946,363.3554 " fill="none" id="apimessaggi-txemail" style="stroke: #A80036; stroke-width: 1.0;"/><polygon fill="#A80036" points="323.5909,368.3833,328.1265,359.6409,323.8925,363.3924,320.141,359.1584,323.5909,368.3833" style="stroke: #A80036; stroke-width: 1.0;"/><text fill="#000000" font-family="sans-serif" font-size="13" lengthAdjust="spacingAndGlyphs" textLength="72" x="328.5" y="315.5684">messaggio,</text><text fill="#000000" font-family="sans-serif" font-size="13" lengthAdjust="spacingAndGlyphs" textLength="34" x="347.5" y="330.8789">email</text><!--link txemail to emailprovider--><path d="M264.8979,403 C232.5728,403 192.5081,403 161.8602,403 " fill="none" id="txemail-emailprovider" style="stroke: #A80036; stroke-width: 1.0;"/><polygon fill="#A80036" points="156.639,403,165.639,407,161.639,403,165.639,399,156.639,403" style="stroke: #A80036; stroke-width: 1.0;"/><text fill="#000000" font-family="sans-serif" font-size="13" lengthAdjust="spacingAndGlyphs" textLength="72" x="174.75" y="381.5684">messaggio,</text><text fill="#000000" font-family="sans-serif" font-size="13" lengthAdjust="spacingAndGlyphs" textLength="34" x="193.75" y="396.8789">email</text><!--link emailprovider to cittadino--><path d="M105.0135,363.5141 C90.7773,304.258 63.9403,192.5535 48.7412,129.2896 " fill="none" id="emailprovider-cittadino" style="stroke: #A80036; stroke-width: 1.0;"/><polygon fill="#A80036" points="47.4875,124.0712,45.7009,133.7567,48.6557,128.9328,53.4795,131.8876,47.4875,124.0712" style="stroke: #A80036; stroke-width: 1.0;"/><text fill="#000000" font-family="sans-serif" font-size="13" lengthAdjust="spacingAndGlyphs" textLength="68" x="85.5" y="259.0684">messaggio</text><!--
@startuml

rectangle Ente {
  agent "Servizio\npresso\nente" as ente
  database "Email\ncensite\ndall'ente" as emaildb
}

rectangle "Cittadinanza Digitale" {
  agent "API Messaggi" as apimessaggi
}

cloud {
  agent "Servizio\nemail\ntransazionale" as txemail
  database "Fornitore\nemail\ncittadino" as emailprovider
}


:Cittadino: as cittadino

cittadino -> emaildb : fornisce proprio\nindirizzo email

emaildb -> ente

ente - -> apimessaggi : messaggio,\nCF,\nemail

apimessaggi - -> txemail : messaggio,\nemail

txemail -> emailprovider : messaggio,\nemail

emailprovider -> cittadino : messaggio

@enduml

PlantUML version 1.2018.00(Thu Jan 04 20:42:56 CET 2018)
(GPL source distribution)
Java Runtime: Java(TM) SE Runtime Environment
JVM: Java HotSpot(TM) 64-Bit Server VM
Java Version: 1.8.0_66-b17
Operating System: Mac OS X
OS Version: 10.13.4
Default Encoding: UTF-8
Language: en
Country: US
--></g></svg>