<?xml version="1.0" encoding="UTF-8" standalone="no"?><svg xmlns="http://www.w3.org/2000/svg" xmlns:xlink="http://www.w3.org/1999/xlink" contentScriptType="application/ecmascript" contentStyleType="text/css" height="282px" preserveAspectRatio="none" style="width:754px;height:282px;" version="1.1" viewBox="0 0 754 282" width="754px" zoomAndPan="magnify"><defs/><g><!--cluster Ente Erogatore--><rect fill="#FFFFFF" height="104" style="stroke: #000000; stroke-width: 1.5;" width="271" x="165" y="16.5"/><text fill="#000000" font-family="Helvetica" font-size="14" font-weight="bold" lengthAdjust="spacingAndGlyphs" textLength="102" x="249.5" y="29.2803">Ente Erogatore</text><!--cluster Cittadinanza Digitale--><rect fill="#FFFFFF" height="67" style="stroke: #000000; stroke-width: 1.5;" width="158" x="585" y="35"/><text fill="#000000" font-family="Helvetica" font-size="14" font-weight="bold" lengthAdjust="spacingAndGlyphs" textLength="142" x="593" y="47.7803">Cittadinanza Digitale</text><!--cluster Servizio email\ntransazionale\n--><path d="M470,175.5 C470,172.5 472,170.5 475,170.5 C478,170.5 480,172.5 480,175.5 C480,172.5 482,170.5 485,170.5 C488,170.5 490,172.5 490,175.5 C490,172.5 492,170.5 495,170.5 C498,170.5 500,172.5 500,175.5 C500,172.5 502,170.5 505,170.5 C508,170.5 510,172.5 510,175.5 C510,172.5 512,170.5 515,170.5 C518,170.5 520,172.5 520,175.5 C520,172.5 522,170.5 525,170.5 C528,170.5 530,172.5 530,175.5 C530,172.5 532,170.5 535,170.5 C538,170.5 540,172.5 540,175.5 C540,172.5 542,170.5 545,170.5 C548,170.5 550,172.5 550,175.5 C550,172.5 552,170.5 555,170.5 C558,170.5 560,172.5 560,175.5 C560,172.5 562,170.5 565,170.5 C568,170.5 570,172.5 570,175.5 C570,172.5 572,170.5 575,170.5 C578,170.5 580,172.5 580,175.5 C583,175.5 585,177.5 585,180.5 C585,183.5 583,185.5 580,185.5 C583,185.5 585,187.5 585,190.5 C585,193.5 583,195.5 580,195.5 C583,195.5 585,197.5 585,200.5 C585,203.5 583,205.5 580,205.5 C583,205.5 585,207.5 585,210.5 C585,213.5 583,215.5 580,215.5 C583,215.5 585,217.5 585,220.5 C585,223.5 583,225.5 580,225.5 C583,225.5 585,227.5 585,230.5 C585,233.5 583,235.5 580,235.5 C583,235.5 585,237.5 585,240.5 C585,243.5 583,245.5 580,245.5 C583,245.5 585,247.5 585,250.5 C585,253.5 583,255.5 580,255.5 C580,258.5 577,260.5 575,260.5 C572,260.5 570,258.5 570,255.5 C570,258.5 567,260.5 565,260.5 C562,260.5 560,258.5 560,255.5 C560,258.5 557,260.5 555,260.5 C552,260.5 550,258.5 550,255.5 C550,258.5 547,260.5 545,260.5 C542,260.5 540,258.5 540,255.5 C540,258.5 537,260.5 535,260.5 C532,260.5 530,258.5 530,255.5 C530,258.5 527,260.5 525,260.5 C522,260.5 520,258.5 520,255.5 C520,258.5 517,260.5 515,260.5 C512,260.5 510,258.5 510,255.5 C510,258.5 507,260.5 505,260.5 C502,260.5 500,258.5 500,255.5 C500,258.5 497,260.5 495,260.5 C492,260.5 490,258.5 490,255.5 C490,258.5 487,260.5 485,260.5 C482,260.5 480,258.5 480,255.5 C480,258.5 477,260.5 475,260.5 C472,260.5 470,258.5 470,255.5 C467,255.5 465,253.5 465,250.5 C465,247.5 467,245.5 470,245.5 C467,245.5 465,243.5 465,240.5 C465,237.5 467,235.5 470,235.5 C467,235.5 465,233.5 465,230.5 C465,227.5 467,225.5 470,225.5 C467,225.5 465,223.5 465,220.5 C465,217.5 467,215.5 470,215.5 C467,215.5 465,213.5 465,210.5 C465,207.5 467,205.5 470,205.5 C467,205.5 465,203.5 465,200.5 C465,197.5 467,195.5 470,195.5 C467,195.5 465,193.5 465,190.5 C465,187.5 467,185.5 470,185.5 C467,185.5 465,183.5 465,180.5 C465,177.5 467,175.5 470,175.5 " fill="#FFFFFF" style="stroke: #000000; stroke-width: 1.5;"/><text fill="#000000" font-family="Helvetica" font-size="14" font-weight="bold" lengthAdjust="spacingAndGlyphs" textLength="94" x="475" y="192.2803">Servizio email</text><text fill="#000000" font-family="Helvetica" font-size="14" font-weight="bold" lengthAdjust="spacingAndGlyphs" textLength="92" x="476" y="206.2803">transazionale</text><text fill="#000000" font-family="Helvetica" font-size="14" font-weight="bold" lengthAdjust="spacingAndGlyphs" textLength="0" x="524" y="220.2803"/><!--cluster Fornitore email\n--><path d="M167,185 C167,182 169,180 172,180 C175,180 177,182 177,185 C177,182 179,180 182,180 C185,180 187,182 187,185 C187,182 189,180 192,180 C195,180 197,182 197,185 C197,182 199,180 202,180 C205,180 207,182 207,185 C207,182 209,180 212,180 C215,180 217,182 217,185 C217,182 219,180 222,180 C225,180 227,182 227,185 C227,182 229,180 232,180 C235,180 237,182 237,185 C237,182 239,180 242,180 C245,180 247,182 247,185 C247,182 249,180 252,180 C255,180 257,182 257,185 C257,182 259,180 262,180 C265,180 267,182 267,185 C267,182 269,180 272,180 C275,180 277,182 277,185 C277,182 279,180 282,180 C285,180 287,182 287,185 C290,185 292,187 292,190 C292,193 290,195 287,195 C290,195 292,197 292,200 C292,203 290,205 287,205 C290,205 292,207 292,210 C292,213 290,215 287,215 C290,215 292,217 292,220 C292,223 290,225 287,225 C290,225 292,227 292,230 C292,233 290,235 287,235 C290,235 292,237 292,240 C292,243 290,245 287,245 C290,245 292,247 292,250 C292,253 290,255 287,255 C290,255 292,257 292,260 C292,263 290,265 287,265 C287,268 284,270 282,270 C279,270 277,268 277,265 C277,268 274,270 272,270 C269,270 267,268 267,265 C267,268 264,270 262,270 C259,270 257,268 257,265 C257,268 254,270 252,270 C249,270 247,268 247,265 C247,268 244,270 242,270 C239,270 237,268 237,265 C237,268 234,270 232,270 C229,270 227,268 227,265 C227,268 224,270 222,270 C219,270 217,268 217,265 C217,268 214,270 212,270 C209,270 207,268 207,265 C207,268 204,270 202,270 C199,270 197,268 197,265 C197,268 194,270 192,270 C189,270 187,268 187,265 C187,268 184,270 182,270 C179,270 177,268 177,265 C177,268 174,270 172,270 C169,270 167,268 167,265 C164,265 162,263 162,260 C162,257 164,255 167,255 C164,255 162,253 162,250 C162,247 164,245 167,245 C164,245 162,243 162,240 C162,237 164,235 167,235 C164,235 162,233 162,230 C162,227 164,225 167,225 C164,225 162,223 162,220 C162,217 164,215 167,215 C164,215 162,213 162,210 C162,207 164,205 167,205 C164,205 162,203 162,200 C162,197 164,195 167,195 C164,195 162,193 162,190 C162,187 164,185 167,185 " fill="#FFFFFF" style="stroke: #000000; stroke-width: 1.5;"/><text fill="#000000" font-family="Helvetica" font-size="14" font-weight="bold" lengthAdjust="spacingAndGlyphs" textLength="103" x="173.5" y="201.7803">Fornitore email</text><text fill="#000000" font-family="Helvetica" font-size="14" font-weight="bold" lengthAdjust="spacingAndGlyphs" textLength="0" x="227" y="215.7803"/><!--entity ente--><rect fill="#FEFECE" height="34" style="stroke: #A80036; stroke-width: 1.5;" width="70" x="358" y="60"/><text fill="#000000" font-family="Helvetica" font-size="14" lengthAdjust="spacingAndGlyphs" textLength="50" x="368" y="80.7803">Servizio</text><!--entity emaildb--><path d="M173.5,51.5 C173.5,41.5 210,41.5 210,41.5 C210,41.5 246.5,41.5 246.5,51.5 L246.5,102.5 C246.5,112.5 210,112.5 210,112.5 C210,112.5 173.5,112.5 173.5,102.5 L173.5,51.5 " fill="#FEFECE" style="stroke: #000000; stroke-width: 1.5;"/><path d="M173.5,51.5 C173.5,61.5 210,61.5 210,61.5 C210,61.5 246.5,61.5 246.5,51.5 " fill="none" style="stroke: #000000; stroke-width: 1.5;"/><text fill="#000000" font-family="Helvetica" font-size="14" lengthAdjust="spacingAndGlyphs" textLength="35" x="183.5" y="76.2803">Email</text><text fill="#000000" font-family="Helvetica" font-size="14" lengthAdjust="spacingAndGlyphs" textLength="45" x="183.5" y="90.2803">censite</text><text fill="#000000" font-family="Helvetica" font-size="14" lengthAdjust="spacingAndGlyphs" textLength="53" x="183.5" y="104.2803">dall'ente</text><!--entity apimessaggi--><rect fill="#FEFECE" height="34" style="stroke: #A80036; stroke-width: 1.5;" width="107" x="610.5" y="60"/><text fill="#000000" font-family="Helvetica" font-size="14" lengthAdjust="spacingAndGlyphs" textLength="87" x="620.5" y="80.7803">API Messaggi</text><!--entity txemail--><rect fill="#FEFECE" height="34" style="stroke: #A80036; stroke-width: 1.5;" width="80" x="482" y="221.5"/><text fill="#000000" font-family="Helvetica" font-size="14" lengthAdjust="spacingAndGlyphs" textLength="60" x="492" y="242.2803">API email</text><!--entity emailprovider--><path d="M172.5,227 C172.5,217 225,217 225,217 C225,217 277.5,217 277.5,227 L277.5,250 C277.5,260 225,260 225,260 C225,260 172.5,260 172.5,250 L172.5,227 " fill="#FEFECE" style="stroke: #000000; stroke-width: 1.5;"/><path d="M172.5,227 C172.5,237 225,237 225,237 C225,237 277.5,237 277.5,227 " fill="none" style="stroke: #000000; stroke-width: 1.5;"/><text fill="#000000" font-family="Helvetica" font-size="14" lengthAdjust="spacingAndGlyphs" textLength="85" x="182.5" y="251.7803">Casella email</text><!--entity cittadino--><ellipse cx="34" cy="48.5" fill="#FEFECE" rx="8" ry="8" style="stroke: #A80036; stroke-width: 2.0;"/><path d="M34,56.5 L34,83.5 M21,64.5 L47,64.5 M34,83.5 L21,98.5 M34,83.5 L47,98.5 " fill="#FEFECE" style="stroke: #A80036; stroke-width: 2.0;"/><text fill="#000000" font-family="Helvetica" font-size="14" lengthAdjust="spacingAndGlyphs" textLength="56" x="6" y="112.2803">Cittadino</text><!--link cittadino to emaildb--><path d="M62.2774,77 C90.8705,77 135.391,77 168.0868,77 " fill="none" id="cittadino-emaildb" style="stroke: #A80036; stroke-width: 1.0;"/><polygon fill="#A80036" points="173.2285,77,164.2285,73,168.2285,77,164.2285,81,173.2285,77" style="stroke: #A80036; stroke-width: 1.0;"/><text fill="#000000" font-family="Helvetica" font-size="13" lengthAdjust="spacingAndGlyphs" textLength="75" x="80.25" y="70.0103">(1) CF, email</text><!--link emaildb to ente--><path d="M246.593,77 C277.1592,77 320.6977,77 352.3456,77 " fill="none" id="emaildb-ente" style="stroke: #A80036; stroke-width: 1.0;"/><polygon fill="#A80036" points="357.7141,77,348.7141,73,352.7141,77,348.7141,81,357.7141,77" style="stroke: #A80036; stroke-width: 1.0;"/><text fill="#000000" font-family="Helvetica" font-size="13" lengthAdjust="spacingAndGlyphs" textLength="75" x="264.75" y="70.0103">(2) CF, email</text><!--link ente to apimessaggi--><path d="M428.1507,77 C473.0329,77 551.3333,77 605.3266,77 " fill="none" id="ente-apimessaggi" style="stroke: #A80036; stroke-width: 1.0;"/><polygon fill="#A80036" points="610.474,77,601.474,73,605.474,77,601.474,81,610.474,77" style="stroke: #A80036; stroke-width: 1.0;"/><text fill="#000000" font-family="Helvetica" font-size="13" lengthAdjust="spacingAndGlyphs" textLength="146" x="446.25" y="91.0103">(3) CF, email, messaggio</text><!--link apimessaggi to txemail--><path d="M648.8035,94.2833 C622.5401,124.1533 568.7567,185.3225 540.414,217.5573 " fill="none" id="apimessaggi-txemail" style="stroke: #A80036; stroke-width: 1.0;"/><polygon fill="#A80036" points="537.0872,221.3409,546.034,217.2232,540.3887,217.5859,540.026,211.9407,537.0872,221.3409" style="stroke: #A80036; stroke-width: 1.0;"/><text fill="#000000" font-family="Helvetica" font-size="13" lengthAdjust="spacingAndGlyphs" textLength="121" x="602" y="156.5103">(4) email, messaggio</text><!--link emailprovider to txemail--><path d="M282.9698,238.5 C341.4956,238.5 430.3583,238.5 481.6398,238.5 " fill="none" id="emailprovider-txemail" style="stroke: #A80036; stroke-width: 1.0;"/><polygon fill="#A80036" points="277.7554,238.5,286.7554,242.5,282.7554,238.5,286.7554,234.5,277.7554,238.5" style="stroke: #A80036; stroke-width: 1.0;"/><text fill="#000000" font-family="Helvetica" font-size="13" lengthAdjust="spacingAndGlyphs" textLength="121" x="319.25" y="231.5103">(5) email, messaggio</text><!--link cittadino to emailprovider--><path d="M66.1894,104.2177 C103.7308,135.9609 165.0256,187.7886 199.4545,216.9 " fill="none" id="cittadino-emailprovider" style="stroke: #A80036; stroke-width: 1.0;"/><polygon fill="#A80036" points="62.1827,100.8299,66.4727,109.6953,66.0008,104.0582,71.638,103.5863,62.1827,100.8299" style="stroke: #A80036; stroke-width: 1.0;"/><text fill="#000000" font-family="Helvetica" font-size="13" lengthAdjust="spacingAndGlyphs" textLength="82" x="130" y="156.5103">(6) messaggio</text><!--
@startuml
skinparamlocked shadowing false
skinparamlocked DefaultFontName Helvetica

rectangle "Ente Erogatore" {
  agent "Servizio" as ente
  database "Email\ncensite\ndall'ente" as emaildb
}

rectangle "Cittadinanza Digitale" {
  agent "API Messaggi" as apimessaggi
}

cloud "Servizio email\ntransazionale\n" {
  agent "API email" as txemail
}

cloud "Fornitore email\n" {
  database "Casella email" as emailprovider
}

:Cittadino: as cittadino

cittadino -> emaildb : (1) CF, email

emaildb -> ente : (2) CF, email

ente -> apimessaggi : (3) CF, email, messaggio

apimessaggi -d-> txemail : (4) email, messaggio

txemail -l-> emailprovider : (5) email, messaggio

emailprovider -u-> cittadino : (6) messaggio

@enduml

PlantUML version 1.2018.00(Thu Jan 04 20:42:56 CET 2018)
(GPL source distribution)
Java Runtime: Java(TM) SE Runtime Environment
JVM: Java HotSpot(TM) 64-Bit Server VM
Java Version: 1.8.0_66-b17
Operating System: Mac OS X
OS Version: 10.13.4
Default Encoding: UTF-8
Language: en
Country: US
--></g></svg>