<?xml version="1.0" encoding="UTF-8" standalone="no"?><svg xmlns="http://www.w3.org/2000/svg" xmlns:xlink="http://www.w3.org/1999/xlink" contentScriptType="application/ecmascript" contentStyleType="text/css" height="295px" preserveAspectRatio="none" style="width:791px;height:295px;" version="1.1" viewBox="0 0 791 295" width="791px" zoomAndPan="magnify"><defs><filter height="300%" id="fzwhzs2phgo1r" width="300%" x="-1" y="-1"><feGaussianBlur result="blurOut" stdDeviation="2.0"/><feColorMatrix in="blurOut" result="blurOut2" type="matrix" values="0 0 0 0 0 0 0 0 0 0 0 0 0 0 0 0 0 0 .4 0"/><feOffset dx="4.0" dy="4.0" in="blurOut2" result="blurOut3"/><feBlend in="SourceGraphic" in2="blurOut3" mode="normal"/></filter></defs><g><!--cluster Ente Erogatore--><rect fill="#FFFFFF" filter="url(#fzwhzs2phgo1r)" height="113" style="stroke: #000000; stroke-width: 1.5;" width="283" x="175.5" y="16"/><text fill="#000000" font-family="sans-serif" font-size="14" font-weight="bold" lengthAdjust="spacingAndGlyphs" textLength="105" x="264.5" y="31.5352">Ente Erogatore</text><!--cluster Cittadinanza Digitale--><rect fill="#FFFFFF" filter="url(#fzwhzs2phgo1r)" height="71" style="stroke: #000000; stroke-width: 1.5;" width="169" x="611.5" y="37"/><text fill="#000000" font-family="sans-serif" font-size="14" font-weight="bold" lengthAdjust="spacingAndGlyphs" textLength="153" x="619.5" y="52.5352">Cittadinanza Digitale</text><!--cluster Servizio email\ntransazionale\n--><path d="M492.5,185.5 C492.5,182.5 494.5,180.5 497.5,180.5 C500.5,180.5 502.5,182.5 502.5,185.5 C502.5,182.5 504.5,180.5 507.5,180.5 C510.5,180.5 512.5,182.5 512.5,185.5 C512.5,182.5 514.5,180.5 517.5,180.5 C520.5,180.5 522.5,182.5 522.5,185.5 C522.5,182.5 524.5,180.5 527.5,180.5 C530.5,180.5 532.5,182.5 532.5,185.5 C532.5,182.5 534.5,180.5 537.5,180.5 C540.5,180.5 542.5,182.5 542.5,185.5 C542.5,182.5 544.5,180.5 547.5,180.5 C550.5,180.5 552.5,182.5 552.5,185.5 C552.5,182.5 554.5,180.5 557.5,180.5 C560.5,180.5 562.5,182.5 562.5,185.5 C562.5,182.5 564.5,180.5 567.5,180.5 C570.5,180.5 572.5,182.5 572.5,185.5 C572.5,182.5 574.5,180.5 577.5,180.5 C580.5,180.5 582.5,182.5 582.5,185.5 C582.5,182.5 584.5,180.5 587.5,180.5 C590.5,180.5 592.5,182.5 592.5,185.5 C592.5,182.5 594.5,180.5 597.5,180.5 C600.5,180.5 602.5,182.5 602.5,185.5 C605.5,185.5 607.5,187.5 607.5,190.5 C607.5,193.5 605.5,195.5 602.5,195.5 C605.5,195.5 607.5,197.5 607.5,200.5 C607.5,203.5 605.5,205.5 602.5,205.5 C605.5,205.5 607.5,207.5 607.5,210.5 C607.5,213.5 605.5,215.5 602.5,215.5 C605.5,215.5 607.5,217.5 607.5,220.5 C607.5,223.5 605.5,225.5 602.5,225.5 C605.5,225.5 607.5,227.5 607.5,230.5 C607.5,233.5 605.5,235.5 602.5,235.5 C605.5,235.5 607.5,237.5 607.5,240.5 C607.5,243.5 605.5,245.5 602.5,245.5 C605.5,245.5 607.5,247.5 607.5,250.5 C607.5,253.5 605.5,255.5 602.5,255.5 C605.5,255.5 607.5,257.5 607.5,260.5 C607.5,263.5 605.5,265.5 602.5,265.5 C605.5,265.5 607.5,267.5 607.5,270.5 C607.5,273.5 605.5,275.5 602.5,275.5 C602.5,278.5 599.5,280.5 597.5,280.5 C594.5,280.5 592.5,278.5 592.5,275.5 C592.5,278.5 589.5,280.5 587.5,280.5 C584.5,280.5 582.5,278.5 582.5,275.5 C582.5,278.5 579.5,280.5 577.5,280.5 C574.5,280.5 572.5,278.5 572.5,275.5 C572.5,278.5 569.5,280.5 567.5,280.5 C564.5,280.5 562.5,278.5 562.5,275.5 C562.5,278.5 559.5,280.5 557.5,280.5 C554.5,280.5 552.5,278.5 552.5,275.5 C552.5,278.5 549.5,280.5 547.5,280.5 C544.5,280.5 542.5,278.5 542.5,275.5 C542.5,278.5 539.5,280.5 537.5,280.5 C534.5,280.5 532.5,278.5 532.5,275.5 C532.5,278.5 529.5,280.5 527.5,280.5 C524.5,280.5 522.5,278.5 522.5,275.5 C522.5,278.5 519.5,280.5 517.5,280.5 C514.5,280.5 512.5,278.5 512.5,275.5 C512.5,278.5 509.5,280.5 507.5,280.5 C504.5,280.5 502.5,278.5 502.5,275.5 C502.5,278.5 499.5,280.5 497.5,280.5 C494.5,280.5 492.5,278.5 492.5,275.5 C489.5,275.5 487.5,273.5 487.5,270.5 C487.5,267.5 489.5,265.5 492.5,265.5 C489.5,265.5 487.5,263.5 487.5,260.5 C487.5,257.5 489.5,255.5 492.5,255.5 C489.5,255.5 487.5,253.5 487.5,250.5 C487.5,247.5 489.5,245.5 492.5,245.5 C489.5,245.5 487.5,243.5 487.5,240.5 C487.5,237.5 489.5,235.5 492.5,235.5 C489.5,235.5 487.5,233.5 487.5,230.5 C487.5,227.5 489.5,225.5 492.5,225.5 C489.5,225.5 487.5,223.5 487.5,220.5 C487.5,217.5 489.5,215.5 492.5,215.5 C489.5,215.5 487.5,213.5 487.5,210.5 C487.5,207.5 489.5,205.5 492.5,205.5 C489.5,205.5 487.5,203.5 487.5,200.5 C487.5,197.5 489.5,195.5 492.5,195.5 C489.5,195.5 487.5,193.5 487.5,190.5 C487.5,187.5 489.5,185.5 492.5,185.5 " fill="#FFFFFF" filter="url(#fzwhzs2phgo1r)" style="stroke: #000000; stroke-width: 1.5;"/><text fill="#000000" font-family="sans-serif" font-size="14" font-weight="bold" lengthAdjust="spacingAndGlyphs" textLength="102" x="497.5" y="205.0352">Servizio email</text><text fill="#000000" font-family="sans-serif" font-size="14" font-weight="bold" lengthAdjust="spacingAndGlyphs" textLength="97" x="500" y="221.5234">transazionale</text><text fill="#000000" font-family="sans-serif" font-size="14" font-weight="bold" lengthAdjust="spacingAndGlyphs" textLength="0" x="551" y="238.0117"/><!--cluster Fornitore email\n--><path d="M176.5,198 C176.5,195 178.5,193 181.5,193 C184.5,193 186.5,195 186.5,198 C186.5,195 188.5,193 191.5,193 C194.5,193 196.5,195 196.5,198 C196.5,195 198.5,193 201.5,193 C204.5,193 206.5,195 206.5,198 C206.5,195 208.5,193 211.5,193 C214.5,193 216.5,195 216.5,198 C216.5,195 218.5,193 221.5,193 C224.5,193 226.5,195 226.5,198 C226.5,195 228.5,193 231.5,193 C234.5,193 236.5,195 236.5,198 C236.5,195 238.5,193 241.5,193 C244.5,193 246.5,195 246.5,198 C246.5,195 248.5,193 251.5,193 C254.5,193 256.5,195 256.5,198 C256.5,195 258.5,193 261.5,193 C264.5,193 266.5,195 266.5,198 C266.5,195 268.5,193 271.5,193 C274.5,193 276.5,195 276.5,198 C276.5,195 278.5,193 281.5,193 C284.5,193 286.5,195 286.5,198 C286.5,195 288.5,193 291.5,193 C294.5,193 296.5,195 296.5,198 C299.5,198 301.5,200 301.5,203 C301.5,206 299.5,208 296.5,208 C299.5,208 301.5,210 301.5,213 C301.5,216 299.5,218 296.5,218 C299.5,218 301.5,220 301.5,223 C301.5,226 299.5,228 296.5,228 C299.5,228 301.5,230 301.5,233 C301.5,236 299.5,238 296.5,238 C299.5,238 301.5,240 301.5,243 C301.5,246 299.5,248 296.5,248 C299.5,248 301.5,250 301.5,253 C301.5,256 299.5,258 296.5,258 C299.5,258 301.5,260 301.5,263 C301.5,266 299.5,268 296.5,268 C299.5,268 301.5,270 301.5,273 C301.5,276 299.5,278 296.5,278 C296.5,281 293.5,283 291.5,283 C288.5,283 286.5,281 286.5,278 C286.5,281 283.5,283 281.5,283 C278.5,283 276.5,281 276.5,278 C276.5,281 273.5,283 271.5,283 C268.5,283 266.5,281 266.5,278 C266.5,281 263.5,283 261.5,283 C258.5,283 256.5,281 256.5,278 C256.5,281 253.5,283 251.5,283 C248.5,283 246.5,281 246.5,278 C246.5,281 243.5,283 241.5,283 C238.5,283 236.5,281 236.5,278 C236.5,281 233.5,283 231.5,283 C228.5,283 226.5,281 226.5,278 C226.5,281 223.5,283 221.5,283 C218.5,283 216.5,281 216.5,278 C216.5,281 213.5,283 211.5,283 C208.5,283 206.5,281 206.5,278 C206.5,281 203.5,283 201.5,283 C198.5,283 196.5,281 196.5,278 C196.5,281 193.5,283 191.5,283 C188.5,283 186.5,281 186.5,278 C186.5,281 183.5,283 181.5,283 C178.5,283 176.5,281 176.5,278 C173.5,278 171.5,276 171.5,273 C171.5,270 173.5,268 176.5,268 C173.5,268 171.5,266 171.5,263 C171.5,260 173.5,258 176.5,258 C173.5,258 171.5,256 171.5,253 C171.5,250 173.5,248 176.5,248 C173.5,248 171.5,246 171.5,243 C171.5,240 173.5,238 176.5,238 C173.5,238 171.5,236 171.5,233 C171.5,230 173.5,228 176.5,228 C173.5,228 171.5,226 171.5,223 C171.5,220 173.5,218 176.5,218 C173.5,218 171.5,216 171.5,213 C171.5,210 173.5,208 176.5,208 C173.5,208 171.5,206 171.5,203 C171.5,200 173.5,198 176.5,198 " fill="#FFFFFF" filter="url(#fzwhzs2phgo1r)" style="stroke: #000000; stroke-width: 1.5;"/><text fill="#000000" font-family="sans-serif" font-size="14" font-weight="bold" lengthAdjust="spacingAndGlyphs" textLength="111" x="181.5" y="217.5352">Fornitore email</text><text fill="#000000" font-family="sans-serif" font-size="14" font-weight="bold" lengthAdjust="spacingAndGlyphs" textLength="0" x="239.5" y="234.0234"/><!--entity ente--><rect fill="#FEFECE" filter="url(#fzwhzs2phgo1r)" height="36.4883" style="stroke: #A80036; stroke-width: 1.5;" width="74" x="376.5" y="64"/><text fill="#000000" font-family="sans-serif" font-size="14" lengthAdjust="spacingAndGlyphs" textLength="54" x="386.5" y="87.5352">Servizio</text><!--entity emaildb--><path d="M183.5,53 C183.5,43 222.5,43 222.5,43 C222.5,43 261.5,43 261.5,53 L261.5,111.4648 C261.5,121.4648 222.5,121.4648 222.5,121.4648 C222.5,121.4648 183.5,121.4648 183.5,111.4648 L183.5,53 " fill="#FEFECE" filter="url(#fzwhzs2phgo1r)" style="stroke: #000000; stroke-width: 1.5;"/><path d="M183.5,53 C183.5,63 222.5,63 222.5,63 C222.5,63 261.5,63 261.5,53 " fill="none" style="stroke: #000000; stroke-width: 1.5;"/><text fill="#000000" font-family="sans-serif" font-size="14" lengthAdjust="spacingAndGlyphs" textLength="37" x="193.5" y="80.5352">Email</text><text fill="#000000" font-family="sans-serif" font-size="14" lengthAdjust="spacingAndGlyphs" textLength="48" x="193.5" y="97.0234">censite</text><text fill="#000000" font-family="sans-serif" font-size="14" lengthAdjust="spacingAndGlyphs" textLength="58" x="193.5" y="113.5117">dall'ente</text><!--entity apimessaggi--><rect fill="#FEFECE" filter="url(#fzwhzs2phgo1r)" height="36.4883" style="stroke: #A80036; stroke-width: 1.5;" width="110" x="641.5" y="64"/><text fill="#000000" font-family="sans-serif" font-size="14" lengthAdjust="spacingAndGlyphs" textLength="90" x="651.5" y="87.5352">API Messaggi</text><!--entity txemail--><rect fill="#FEFECE" filter="url(#fzwhzs2phgo1r)" height="36.4883" style="stroke: #A80036; stroke-width: 1.5;" width="83" x="507" y="238.5"/><text fill="#000000" font-family="sans-serif" font-size="14" lengthAdjust="spacingAndGlyphs" textLength="63" x="517" y="262.0352">API email</text><!--entity emailprovider--><path d="M181.5,244 C181.5,234 236.5,234 236.5,234 C236.5,234 291.5,234 291.5,244 L291.5,269.4883 C291.5,279.4883 236.5,279.4883 236.5,279.4883 C236.5,279.4883 181.5,279.4883 181.5,269.4883 L181.5,244 " fill="#FEFECE" filter="url(#fzwhzs2phgo1r)" style="stroke: #000000; stroke-width: 1.5;"/><path d="M181.5,244 C181.5,254 236.5,254 236.5,254 C236.5,254 291.5,254 291.5,244 " fill="none" style="stroke: #000000; stroke-width: 1.5;"/><text fill="#000000" font-family="sans-serif" font-size="14" lengthAdjust="spacingAndGlyphs" textLength="90" x="191.5" y="271.5352">Casella email</text><!--entity cittadino--><ellipse cx="37.5" cy="50.5" fill="#FEFECE" filter="url(#fzwhzs2phgo1r)" rx="8" ry="8" style="stroke: #A80036; stroke-width: 2.0;"/><path d="M37.5,58.5 L37.5,85.5 M24.5,66.5 L50.5,66.5 M37.5,85.5 L24.5,100.5 M37.5,85.5 L50.5,100.5 " fill="#FEFECE" filter="url(#fzwhzs2phgo1r)" style="stroke: #A80036; stroke-width: 2.0;"/><text fill="#000000" font-family="sans-serif" font-size="14" lengthAdjust="spacingAndGlyphs" textLength="63" x="6" y="121.0352">Cittadino</text><!--link cittadino to emaildb--><path d="M69.3026,82 C99.3099,82 144.575,82 178.1289,82 " fill="none" id="cittadino-emaildb" style="stroke: #A80036; stroke-width: 1.0;"/><polygon fill="#A80036" points="183.4094,82,174.4094,78,178.4094,82,174.4094,86,183.4094,82" style="stroke: #A80036; stroke-width: 1.0;"/><text fill="#000000" font-family="sans-serif" font-size="13" lengthAdjust="spacingAndGlyphs" textLength="78" x="87.25" y="75.5684">(1) CF, email</text><!--link emaildb to ente--><path d="M261.6126,82 C293.5206,82 338.5128,82 371.2428,82 " fill="none" id="emaildb-ente" style="stroke: #A80036; stroke-width: 1.0;"/><polygon fill="#A80036" points="376.3866,82,367.3866,78,371.3866,82,367.3866,86,376.3866,82" style="stroke: #A80036; stroke-width: 1.0;"/><text fill="#000000" font-family="sans-serif" font-size="13" lengthAdjust="spacingAndGlyphs" textLength="78" x="280" y="75.5684">(2) CF, email</text><!--link ente to apimessaggi--><path d="M450.7883,82 C498.0661,82 580.1724,82 636.3583,82 " fill="none" id="ente-apimessaggi" style="stroke: #A80036; stroke-width: 1.0;"/><polygon fill="#A80036" points="641.373,82,632.373,78,636.373,82,632.373,86,641.373,82" style="stroke: #A80036; stroke-width: 1.0;"/><text fill="#000000" font-family="sans-serif" font-size="13" lengthAdjust="spacingAndGlyphs" textLength="154" x="469" y="98.5684">(3) CF, email, messaggio</text><!--link apimessaggi to txemail--><path d="M681.2188,100.0173 C653.9664,132.1495 597.0599,199.2453 567.3982,234.218 " fill="none" id="apimessaggi-txemail" style="stroke: #A80036; stroke-width: 1.0;"/><polygon fill="#A80036" points="563.9198,238.3193,572.7918,234.0429,567.154,234.5061,566.6908,228.8683,563.9198,238.3193" style="stroke: #A80036; stroke-width: 1.0;"/><text fill="#000000" font-family="sans-serif" font-size="13" lengthAdjust="spacingAndGlyphs" textLength="130" x="636.5" y="167.0684">(4) email, messaggio</text><!--link emailprovider to txemail--><path d="M296.6934,256.5 C358.4864,256.5 453.008,256.5 506.9479,256.5 " fill="none" id="emailprovider-txemail" style="stroke: #A80036; stroke-width: 1.0;"/><polygon fill="#A80036" points="291.5611,256.5,300.5611,260.5,296.5611,256.5,300.5611,252.5,291.5611,256.5" style="stroke: #A80036; stroke-width: 1.0;"/><text fill="#000000" font-family="sans-serif" font-size="13" lengthAdjust="spacingAndGlyphs" textLength="130" x="334.25" y="250.0684">(5) email, messaggio</text><!--link cittadino to emailprovider--><path d="M73.2679,113.3643 C112.8879,148.1064 175.7868,203.2615 210.8107,233.9734 " fill="none" id="cittadino-emailprovider" style="stroke: #A80036; stroke-width: 1.0;"/><polygon fill="#A80036" points="69.0321,109.65,73.1618,118.5912,72.7915,112.9465,78.4362,112.5762,69.0321,109.65" style="stroke: #A80036; stroke-width: 1.0;"/><text fill="#000000" font-family="sans-serif" font-size="13" lengthAdjust="spacingAndGlyphs" textLength="88" x="137.5" y="167.0684">(6) messaggio</text><!--
@startuml

rectangle "Ente Erogatore" {
  agent "Servizio" as ente
  database "Email\ncensite\ndall'ente" as emaildb
}

rectangle "Cittadinanza Digitale" {
  agent "API Messaggi" as apimessaggi
}

cloud "Servizio email\ntransazionale\n" {
  agent "API email" as txemail
}

cloud "Fornitore email\n" {
  database "Casella email" as emailprovider
}

:Cittadino: as cittadino

cittadino -> emaildb : (1) CF, email

emaildb -> ente : (2) CF, email

ente -> apimessaggi : (3) CF, email, messaggio

apimessaggi -down-> txemail : (4) email, messaggio

txemail -left-> emailprovider : (5) email, messaggio

emailprovider -up-> cittadino : (6) messaggio

@enduml

PlantUML version 1.2018.00(Thu Jan 04 20:42:56 CET 2018)
(GPL source distribution)
Java Runtime: Java(TM) SE Runtime Environment
JVM: Java HotSpot(TM) 64-Bit Server VM
Java Version: 1.8.0_66-b17
Operating System: Mac OS X
OS Version: 10.13.4
Default Encoding: UTF-8
Language: en
Country: US
--></g></svg>