<?xml version="1.0" encoding="UTF-8" standalone="no"?><svg xmlns="http://www.w3.org/2000/svg" xmlns:xlink="http://www.w3.org/1999/xlink" contentScriptType="application/ecmascript" contentStyleType="text/css" height="246px" preserveAspectRatio="none" style="width:476px;height:246px;" version="1.1" viewBox="0 0 476 246" width="476px" zoomAndPan="magnify"><defs/><g><!--cluster Ente Erogatore--><rect fill="#FFFFFF" height="67" style="stroke: #000000; stroke-width: 1.5;" width="118" x="48" y="16.5"/><text fill="#000000" font-family="Helvetica" font-size="14" font-weight="bold" lengthAdjust="spacingAndGlyphs" textLength="102" x="56" y="29.2803">Ente Erogatore</text><!--cluster Cittadinanza Digitale--><rect fill="#FFFFFF" height="67" style="stroke: #000000; stroke-width: 1.5;" width="158" x="14" y="161"/><text fill="#000000" font-family="Helvetica" font-size="14" font-weight="bold" lengthAdjust="spacingAndGlyphs" textLength="142" x="22" y="173.7803">Cittadinanza Digitale</text><!--entity ente--><rect fill="#FEFECE" height="34" style="stroke: #A80036; stroke-width: 1.5;" width="70" x="62" y="41.5"/><text fill="#000000" font-family="Helvetica" font-size="14" lengthAdjust="spacingAndGlyphs" textLength="50" x="72" y="62.2803">Servizio</text><!--entity apimessaggi--><rect fill="#FEFECE" height="34" style="stroke: #A80036; stroke-width: 1.5;" width="107" x="43.5" y="186"/><text fill="#000000" font-family="Helvetica" font-size="14" lengthAdjust="spacingAndGlyphs" textLength="87" x="53.5" y="206.7803">API Messaggi</text><!--entity cittadino--><ellipse cx="202" cy="30" fill="#FEFECE" rx="8" ry="8" style="stroke: #A80036; stroke-width: 2.0;"/><path d="M202,38 L202,65 M189,46 L215,46 M202,65 L189,80 M202,65 L215,80 " fill="#FEFECE" style="stroke: #A80036; stroke-width: 2.0;"/><text fill="#000000" font-family="Helvetica" font-size="14" lengthAdjust="spacingAndGlyphs" textLength="56" x="174" y="93.7803">Cittadino</text><polygon fill="#FBFB77" points="186,172,186,234,454,234,454,182,444,172,186,172" style="stroke: #A80036; stroke-width: 1.0;"/><polygon fill="#FBFB77" points="186,172,186,199,150.5723,203,186,207,186,234,454,234,454,182,444,172,186,172" style="stroke: #A80036; stroke-width: 1.0;"/><line style="stroke: #A80036; stroke-width: 1.0;" x1="444" x2="444" y1="172" y2="182"/><line style="stroke: #A80036; stroke-width: 1.0;" x1="454" x2="444" y1="182" y2="182"/><text fill="#000000" font-family="Helvetica" font-size="13" lengthAdjust="spacingAndGlyphs" textLength="247" x="192" y="187.0103">(2) L'API Messaggi di Cittadinanza Digitale</text><text fill="#000000" font-family="Helvetica" font-size="13" lengthAdjust="spacingAndGlyphs" textLength="214" x="192" y="200.0103">non ha modo di contattare il cittadino</text><text fill="#000000" font-family="Helvetica" font-size="13" lengthAdjust="spacingAndGlyphs" textLength="219" x="192" y="213.0103">per cui il messaggio viene ignorato ed</text><text fill="#000000" font-family="Helvetica" font-size="13" lengthAdjust="spacingAndGlyphs" textLength="56" x="192" y="226.0103">eliminato.</text><!--link ente to apimessaggi--><path d="M97,75.6435 C97,101.8243 97,151.7731 97,180.7272 " fill="none" id="ente-apimessaggi" style="stroke: #A80036; stroke-width: 1.0;"/><polygon fill="#A80036" points="97,185.8788,101,176.8788,97,180.8788,93,176.8788,97,185.8788" style="stroke: #A80036; stroke-width: 1.0;"/><text fill="#000000" font-family="Helvetica" font-size="13" lengthAdjust="spacingAndGlyphs" textLength="107" x="98" y="138.0103">(1) CF, messaggio</text><!--
@startuml
skinparamlocked shadowing false
skinparamlocked DefaultFontName Helvetica

rectangle "Ente Erogatore" {
  agent "Servizio" as ente
}

rectangle "Cittadinanza Digitale" {
  agent "API Messaggi" as apimessaggi
}

:Cittadino: as cittadino

ente -d-> apimessaggi : (1) CF, messaggio

note right of apimessaggi
  (2) L'API Messaggi di Cittadinanza Digitale
  non ha modo di contattare il cittadino
  per cui il messaggio viene ignorato ed
  eliminato.
end note

@enduml

PlantUML version 1.2018.00(Thu Jan 04 20:42:56 CET 2018)
(GPL source distribution)
Java Runtime: Java(TM) SE Runtime Environment
JVM: Java HotSpot(TM) 64-Bit Server VM
Java Version: 1.8.0_66-b17
Operating System: Mac OS X
OS Version: 10.13.4
Default Encoding: UTF-8
Language: en
Country: US
--></g></svg>