<?xml version="1.0" encoding="UTF-8" standalone="no"?><svg xmlns="http://www.w3.org/2000/svg" xmlns:xlink="http://www.w3.org/1999/xlink" contentScriptType="application/ecmascript" contentStyleType="text/css" height="318px" preserveAspectRatio="none" style="width:530px;height:318px;" version="1.1" viewBox="0 0 530 318" width="530px" zoomAndPan="magnify"><defs/><g><!--cluster Ente Erogatore--><rect fill="#FFFFFF" height="99" style="stroke: #000000; stroke-width: 1.5;" width="134" x="48" y="16.5"/><text fill="#000000" font-family="Helvetica" font-size="14" font-weight="bold" lengthAdjust="spacingAndGlyphs" textLength="102" x="64" y="37.2803">Ente Erogatore</text><!--cluster Cittadinanza Digitale--><rect fill="#FFFFFF" height="99" style="stroke: #000000; stroke-width: 1.5;" width="174" x="14" y="199"/><text fill="#000000" font-family="Helvetica" font-size="14" font-weight="bold" lengthAdjust="spacingAndGlyphs" textLength="142" x="30" y="219.7803">Cittadinanza Digitale</text><!--entity ente--><rect fill="#FEFECE" height="50" style="stroke: #A80036; stroke-width: 1.5;" width="86" x="62" y="57.5"/><text fill="#000000" font-family="Helvetica" font-size="14" lengthAdjust="spacingAndGlyphs" textLength="50" x="80" y="86.2803">Servizio</text><!--entity apimessaggi--><rect fill="#FEFECE" height="50" style="stroke: #A80036; stroke-width: 1.5;" width="123" x="43.5" y="240"/><text fill="#000000" font-family="Helvetica" font-size="14" lengthAdjust="spacingAndGlyphs" textLength="87" x="61.5" y="268.7803">API Messaggi</text><!--entity cittadino--><ellipse cx="226" cy="46" fill="#FEFECE" rx="8" ry="8" style="stroke: #A80036; stroke-width: 2.0;"/><path d="M226,54 L226,81 M213,62 L239,62 M226,81 L213,96 M226,81 L239,96 " fill="#FEFECE" style="stroke: #A80036; stroke-width: 2.0;"/><text fill="#000000" font-family="Helvetica" font-size="14" lengthAdjust="spacingAndGlyphs" textLength="56" x="198" y="117.7803">Cittadino</text><polygon fill="#FBFB77" points="202,224,202,306,508,306,508,234,498,224,202,224" style="stroke: #A80036; stroke-width: 1.0;"/><polygon fill="#FBFB77" points="202,224,202,261,166.5234,265,202,269,202,306,508,306,508,234,498,224,202,224" style="stroke: #A80036; stroke-width: 1.0;"/><line style="stroke: #A80036; stroke-width: 1.0;" x1="498" x2="498" y1="224" y2="234"/><line style="stroke: #A80036; stroke-width: 1.0;" x1="508" x2="498" y1="234" y2="234"/><text fill="#000000" font-family="Helvetica" font-size="14" lengthAdjust="spacingAndGlyphs" textLength="269" x="216" y="247.7803">(2) L'API Messaggi di Cittadinanza Digitale</text><text fill="#000000" font-family="Helvetica" font-size="14" lengthAdjust="spacingAndGlyphs" textLength="234" x="216" y="261.7803">non ha modo di contattare il cittadino</text><text fill="#000000" font-family="Helvetica" font-size="14" lengthAdjust="spacingAndGlyphs" textLength="240" x="216" y="275.7803">per cui il messaggio viene ignorato ed</text><text fill="#000000" font-family="Helvetica" font-size="14" lengthAdjust="spacingAndGlyphs" textLength="61" x="216" y="289.7803">eliminato.</text><!--link ente to apimessaggi--><path d="M105,107.8758 C105,141.1086 105,199.3019 105,234.7763 " fill="none" id="ente-apimessaggi" style="stroke: #A80036; stroke-width: 1.0;"/><polygon fill="#A80036" points="105,239.8397,109,230.8397,105,234.8397,101,230.8397,105,239.8397" style="stroke: #A80036; stroke-width: 1.0;"/><text fill="#000000" font-family="Helvetica" font-size="14" lengthAdjust="spacingAndGlyphs" textLength="118" x="114" y="178.7803">(1) CF, messaggio</text><!--
@startuml
skinparamlocked shadowing false
skinparamlocked DefaultFontName Helvetica
skinparamlocked DefaultFontSize 14
skinparamlocked Padding 8

rectangle "Ente Erogatore" {
  agent "Servizio" as ente
}

rectangle "Cittadinanza Digitale" {
  agent "API Messaggi" as apimessaggi
}

:Cittadino: as cittadino

ente - -> apimessaggi : (1) CF, messaggio

note right of apimessaggi
  (2) L'API Messaggi di Cittadinanza Digitale
  non ha modo di contattare il cittadino
  per cui il messaggio viene ignorato ed
  eliminato.
end note

@enduml

PlantUML version 1.2018.00(Thu Jan 04 20:42:56 CET 2018)
(GPL source distribution)
Java Runtime: Java(TM) SE Runtime Environment
JVM: Java HotSpot(TM) 64-Bit Server VM
Java Version: 1.8.0_66-b17
Operating System: Mac OS X
OS Version: 10.13.4
Default Encoding: UTF-8
Language: en
Country: US
--></g></svg>