<?xml version="1.0" encoding="UTF-8" standalone="no"?><svg xmlns="http://www.w3.org/2000/svg" xmlns:xlink="http://www.w3.org/1999/xlink" contentScriptType="application/ecmascript" contentStyleType="text/css" height="439px" preserveAspectRatio="none" style="width:485px;height:439px;" version="1.1" viewBox="0 0 485 439" width="485px" zoomAndPan="magnify"><defs><filter height="300%" id="fx6jiohrv5xx6" width="300%" x="-1" y="-1"><feGaussianBlur result="blurOut" stdDeviation="2.0"/><feColorMatrix in="blurOut" result="blurOut2" type="matrix" values="0 0 0 0 0 0 0 0 0 0 0 0 0 0 0 0 0 0 .4 0"/><feOffset dx="4.0" dy="4.0" in="blurOut2" result="blurOut3"/><feBlend in="SourceGraphic" in2="blurOut3" mode="normal"/></filter></defs><g><!--entity DEV--><rect fill="#FEFECE" filter="url(#fx6jiohrv5xx6)" height="36.2969" style="stroke: #A80036; stroke-width: 1.5;" width="200" x="203.758" y="8"/><rect fill="#FEFECE" height="5" style="stroke: #A80036; stroke-width: 1.5;" width="10" x="198.758" y="13"/><rect fill="#FEFECE" height="5" style="stroke: #A80036; stroke-width: 1.5;" width="10" x="198.758" y="34.2969"/><text fill="#000000" font-family="sans-serif" font-size="14" lengthAdjust="spacingAndGlyphs" textLength="180" x="213.758" y="30.9951">Developer portal Web App</text><!--entity FN--><rect fill="#FEFECE" filter="url(#fx6jiohrv5xx6)" height="36.2969" style="stroke: #A80036; stroke-width: 1.5;" width="88" x="107.758" y="200"/><rect fill="#FEFECE" height="5" style="stroke: #A80036; stroke-width: 1.5;" width="10" x="102.758" y="205"/><rect fill="#FEFECE" height="5" style="stroke: #A80036; stroke-width: 1.5;" width="10" x="102.758" y="226.2969"/><text fill="#000000" font-family="sans-serif" font-size="14" lengthAdjust="spacingAndGlyphs" textLength="68" x="117.758" y="222.9951">Functions</text><!--entity DB--><rect fill="#FEFECE" filter="url(#fx6jiohrv5xx6)" height="36.2969" style="stroke: #A80036; stroke-width: 1.5;" width="98" x="29.758" y="296"/><rect fill="#FEFECE" height="5" style="stroke: #A80036; stroke-width: 1.5;" width="10" x="24.758" y="301"/><rect fill="#FEFECE" height="5" style="stroke: #A80036; stroke-width: 1.5;" width="10" x="24.758" y="322.2969"/><text fill="#000000" font-family="sans-serif" font-size="14" lengthAdjust="spacingAndGlyphs" textLength="78" x="39.758" y="318.9951">CosmosDB</text><!--entity QUE--><rect fill="#FEFECE" filter="url(#fx6jiohrv5xx6)" height="36.2969" style="stroke: #A80036; stroke-width: 1.5;" width="123" x="163.258" y="296"/><rect fill="#FEFECE" height="5" style="stroke: #A80036; stroke-width: 1.5;" width="10" x="158.258" y="301"/><rect fill="#FEFECE" height="5" style="stroke: #A80036; stroke-width: 1.5;" width="10" x="158.258" y="322.2969"/><text fill="#000000" font-family="sans-serif" font-size="14" lengthAdjust="spacingAndGlyphs" textLength="103" x="173.258" y="318.9951">Storage queue</text><!--entity BLOB--><rect fill="#FEFECE" filter="url(#fx6jiohrv5xx6)" height="36.2969" style="stroke: #A80036; stroke-width: 1.5;" width="108" x="46.758" y="392"/><rect fill="#FEFECE" height="5" style="stroke: #A80036; stroke-width: 1.5;" width="10" x="41.758" y="397"/><rect fill="#FEFECE" height="5" style="stroke: #A80036; stroke-width: 1.5;" width="10" x="41.758" y="418.2969"/><text fill="#000000" font-family="sans-serif" font-size="14" lengthAdjust="spacingAndGlyphs" textLength="88" x="56.758" y="414.9951">Blob storage</text><!--entity APIM--><rect fill="#FEFECE" filter="url(#fx6jiohrv5xx6)" height="36.2969" style="stroke: #A80036; stroke-width: 1.5;" width="137" x="144.258" y="104"/><rect fill="#FEFECE" height="5" style="stroke: #A80036; stroke-width: 1.5;" width="10" x="139.258" y="109"/><rect fill="#FEFECE" height="5" style="stroke: #A80036; stroke-width: 1.5;" width="10" x="139.258" y="130.2969"/><text fill="#000000" font-family="sans-serif" font-size="14" lengthAdjust="spacingAndGlyphs" textLength="117" x="154.258" y="126.9951">API management</text><!--entity AI--><rect fill="#FEFECE" filter="url(#fx6jiohrv5xx6)" height="36.2969" style="stroke: #A80036; stroke-width: 1.5;" width="153" x="321.258" y="296"/><rect fill="#FEFECE" height="5" style="stroke: #A80036; stroke-width: 1.5;" width="10" x="316.258" y="301"/><rect fill="#FEFECE" height="5" style="stroke: #A80036; stroke-width: 1.5;" width="10" x="316.258" y="322.2969"/><text fill="#000000" font-family="sans-serif" font-size="14" lengthAdjust="spacingAndGlyphs" textLength="133" x="331.258" y="318.9951">Application Insights</text><!--entity EVT--><rect fill="#FEFECE" filter="url(#fx6jiohrv5xx6)" height="36.2969" style="stroke: #A80036; stroke-width: 1.5;" width="87" x="231.258" y="200"/><rect fill="#FEFECE" height="5" style="stroke: #A80036; stroke-width: 1.5;" width="10" x="226.258" y="205"/><rect fill="#FEFECE" height="5" style="stroke: #A80036; stroke-width: 1.5;" width="10" x="226.258" y="226.2969"/><text fill="#000000" font-family="sans-serif" font-size="14" lengthAdjust="spacingAndGlyphs" textLength="67" x="241.258" y="222.9951">EventHub</text><!--entity AD--><rect fill="#FEFECE" filter="url(#fx6jiohrv5xx6)" height="36.2969" style="stroke: #A80036; stroke-width: 1.5;" width="158" x="316.758" y="104"/><rect fill="#FEFECE" height="5" style="stroke: #A80036; stroke-width: 1.5;" width="10" x="311.758" y="109"/><rect fill="#FEFECE" height="5" style="stroke: #A80036; stroke-width: 1.5;" width="10" x="311.758" y="130.2969"/><text fill="#000000" font-family="sans-serif" font-size="14" lengthAdjust="spacingAndGlyphs" textLength="138" x="326.758" y="126.9951">Active directory B2C</text><!--link FN to DB--><path d="M138.369,236.241 C126.226,251.877 108.287,274.977 95.2616,291.749 " fill="none" id="FN-DB" style="stroke: #A80036; stroke-width: 1.0;"/><polygon fill="#A80036" points="92.0625,295.868,100.7421,291.2135,95.1295,291.9191,94.4239,286.3064,92.0625,295.868" style="stroke: #A80036; stroke-width: 1.0;"/><!--link FN to BLOB--><path d="M107.506,230.235 C74.716,241.134 32.3,261.258 11.758,296 C-8.9812,331.0756 32.8764,367.3462 65.9585,389.038 " fill="none" id="FN-BLOB" style="stroke: #A80036; stroke-width: 1.0;"/><polygon fill="#A80036" points="70.355,391.8702,64.9552,383.6336,66.1517,389.1624,60.6228,390.3589,70.355,391.8702" style="stroke: #A80036; stroke-width: 1.0;"/><!--link QUE to BLOB--><path d="M202.303,332.0227 C181.278,347.9608 149.84,371.7924 127.522,388.7111 " fill="none" id="QUE-BLOB" style="stroke: #A80036; stroke-width: 1.0;"/><polygon fill="#A80036" points="123.465,391.7863,133.0538,389.5378,127.4498,388.7661,128.2215,383.1622,123.465,391.7863" style="stroke: #A80036; stroke-width: 1.0;"/><!--link FN to QUE--><path d="M165.147,236.241 C177.29,251.877 195.229,274.977 208.254,291.749 " fill="none" id="FN-QUE" style="stroke: #A80036; stroke-width: 1.0;"/><polygon fill="#A80036" points="211.454,295.868,209.0919,286.3066,208.3868,291.9193,202.774,291.2142,211.454,295.868" style="stroke: #A80036; stroke-width: 1.0;"/><!--link FN to AI--><path d="M196.022,235.914 C238.865,252.285 303.694,277.057 348.233,294.076 " fill="none" id="FN-AI" style="stroke: #A80036; stroke-width: 1.0;"/><polygon fill="#A80036" points="353.019,295.905,346.0387,288.957,348.3481,294.1209,343.1842,296.4304,353.019,295.905" style="stroke: #A80036; stroke-width: 1.0;"/><!--link APIM to FN--><path d="M201.57,140.241 C191.509,155.744 176.686,178.586 165.826,195.321 " fill="none" id="APIM-FN" style="stroke: #A80036; stroke-width: 1.0;"/><polygon fill="#A80036" points="162.875,199.868,171.1306,194.4972,165.5975,195.6742,164.4205,190.1412,162.875,199.868" style="stroke: #A80036; stroke-width: 1.0;"/><!--link DEV to APIM--><path d="M283.484,47.943 C267.185,64.778 244.574,88.135 229.343,103.868 " fill="none" id="DEV-APIM" style="stroke: #A80036; stroke-width: 1.0;"/><polygon fill="#A80036" points="287.067,44.241,277.9329,47.9246,283.5891,47.8332,283.6805,53.4893,287.067,44.241" style="stroke: #A80036; stroke-width: 1.0;"/><!--link DEV to AD--><path d="M320.632,44.241 C336.065,60.009 358.927,83.369 375.375,100.174 " fill="none" id="DEV-AD" style="stroke: #A80036; stroke-width: 1.0;"/><polygon fill="#A80036" points="378.991,103.868,375.5541,94.6383,375.4935,100.2948,369.837,100.2342,378.991,103.868" style="stroke: #A80036; stroke-width: 1.0;"/><!--link APIM to AD--><path d="M281.383,122 C291.402,122 301.421,122 311.439,122 " fill="none" id="APIM-AD" style="stroke: #A80036; stroke-width: 1.0;"/><polygon fill="#A80036" points="316.678,122,307.678,118,311.678,122,307.678,126,316.678,122" style="stroke: #A80036; stroke-width: 1.0;"/><!--link APIM to EVT--><path d="M224.13,140.241 C234.355,155.744 249.421,178.586 260.459,195.321 " fill="none" id="APIM-EVT" style="stroke: #A80036; stroke-width: 1.0;"/><polygon fill="#A80036" points="263.458,199.868,261.8424,190.1526,260.7053,195.694,255.1639,194.5569,263.458,199.868" style="stroke: #A80036; stroke-width: 1.0;"/><!--
@startuml
[Developer portal Web App] as DEV
[Functions] as FN
[CosmosDB] as DB
[Storage queue] as QUE
[Blob storage] as BLOB
[API management] as APIM
[Application Insights] as AI
[EventHub] as EVT
[Active directory B2C] as AD

FN - -> DB 
FN -> BLOB
QUE -down-> BLOB
FN - -> QUE
FN - -> AI
APIM -down-> FN
DEV <- - APIM
DEV - -> AD
APIM -> AD
APIM - -> EVT
@enduml

PlantUML version 1.2017.20beta4(Unknown compile time)
(GPL source distribution)
Java Runtime: Java(TM) SE Runtime Environment
JVM: Java HotSpot(TM) 64-Bit Server VM
Java Version: 1.7.0_25-b15
Operating System: Linux
Default Encoding: UTF-8
Language: en
Country: US
--></g></svg>