<?xml version="1.0" encoding="UTF-8" standalone="no"?><svg xmlns="http://www.w3.org/2000/svg" xmlns:xlink="http://www.w3.org/1999/xlink" contentScriptType="application/ecmascript" contentStyleType="text/css" height="477px" preserveAspectRatio="none" style="width:950px;height:477px;" version="1.1" viewBox="0 0 950 477" width="950px" zoomAndPan="magnify"><defs><filter height="300%" id="fbh4pt39g6aoy" width="300%" x="-1" y="-1"><feGaussianBlur result="blurOut" stdDeviation="2.0"/><feColorMatrix in="blurOut" result="blurOut2" type="matrix" values="0 0 0 0 0 0 0 0 0 0 0 0 0 0 0 0 0 0 .4 0"/><feOffset dx="4.0" dy="4.0" in="blurOut2" result="blurOut3"/><feBlend in="SourceGraphic" in2="blurOut3" mode="normal"/></filter></defs><g><line style="stroke: #A80036; stroke-width: 1.0; stroke-dasharray: 5.0,5.0;" x1="30" x2="30" y1="38.2969" y2="437.0234"/><line style="stroke: #A80036; stroke-width: 1.0; stroke-dasharray: 5.0,5.0;" x1="223.5" x2="223.5" y1="38.2969" y2="437.0234"/><line style="stroke: #A80036; stroke-width: 1.0; stroke-dasharray: 5.0,5.0;" x1="357" x2="357" y1="38.2969" y2="437.0234"/><line style="stroke: #A80036; stroke-width: 1.0; stroke-dasharray: 5.0,5.0;" x1="529.5" x2="529.5" y1="38.2969" y2="437.0234"/><line style="stroke: #A80036; stroke-width: 1.0; stroke-dasharray: 5.0,5.0;" x1="652.5" x2="652.5" y1="38.2969" y2="437.0234"/><line style="stroke: #A80036; stroke-width: 1.0; stroke-dasharray: 5.0,5.0;" x1="796.5" x2="796.5" y1="38.2969" y2="437.0234"/><line style="stroke: #A80036; stroke-width: 1.0; stroke-dasharray: 5.0,5.0;" x1="905.5" x2="905.5" y1="38.2969" y2="437.0234"/><rect fill="#FEFECE" filter="url(#fbh4pt39g6aoy)" height="30.2969" style="stroke: #A80036; stroke-width: 1.5;" width="41" x="8" y="3"/><text fill="#000000" font-family="sans-serif" font-size="14" lengthAdjust="spacingAndGlyphs" textLength="27" x="15" y="22.9951">SAS</text><rect fill="#FEFECE" filter="url(#fbh4pt39g6aoy)" height="30.2969" style="stroke: #A80036; stroke-width: 1.5;" width="41" x="8" y="436.0234"/><text fill="#000000" font-family="sans-serif" font-size="14" lengthAdjust="spacingAndGlyphs" textLength="27" x="15" y="456.0186">SAS</text><rect fill="#FEFECE" filter="url(#fbh4pt39g6aoy)" height="30.2969" style="stroke: #A80036; stroke-width: 1.5;" width="96" x="173.5" y="3"/><text fill="#000000" font-family="sans-serif" font-size="14" lengthAdjust="spacingAndGlyphs" textLength="82" x="180.5" y="22.9951">API gateway</text><rect fill="#FEFECE" filter="url(#fbh4pt39g6aoy)" height="30.2969" style="stroke: #A80036; stroke-width: 1.5;" width="96" x="173.5" y="436.0234"/><text fill="#000000" font-family="sans-serif" font-size="14" lengthAdjust="spacingAndGlyphs" textLength="82" x="180.5" y="456.0186">API gateway</text><rect fill="#FEFECE" filter="url(#fbh4pt39g6aoy)" height="30.2969" style="stroke: #A80036; stroke-width: 1.5;" width="107" x="302" y="3"/><text fill="#000000" font-family="sans-serif" font-size="14" lengthAdjust="spacingAndGlyphs" textLength="93" x="309" y="22.9951">API Functions</text><rect fill="#FEFECE" filter="url(#fbh4pt39g6aoy)" height="30.2969" style="stroke: #A80036; stroke-width: 1.5;" width="107" x="302" y="436.0234"/><text fill="#000000" font-family="sans-serif" font-size="14" lengthAdjust="spacingAndGlyphs" textLength="93" x="309" y="456.0186">API Functions</text><rect fill="#FEFECE" filter="url(#fbh4pt39g6aoy)" height="30.2969" style="stroke: #A80036; stroke-width: 1.5;" width="80" x="487.5" y="3"/><text fill="#000000" font-family="sans-serif" font-size="14" lengthAdjust="spacingAndGlyphs" textLength="66" x="494.5" y="22.9951">Database</text><rect fill="#FEFECE" filter="url(#fbh4pt39g6aoy)" height="30.2969" style="stroke: #A80036; stroke-width: 1.5;" width="80" x="487.5" y="436.0234"/><text fill="#000000" font-family="sans-serif" font-size="14" lengthAdjust="spacingAndGlyphs" textLength="66" x="494.5" y="456.0186">Database</text><rect fill="#FEFECE" filter="url(#fbh4pt39g6aoy)" height="30.2969" style="stroke: #A80036; stroke-width: 1.5;" width="139" x="581.5" y="3"/><text fill="#000000" font-family="sans-serif" font-size="14" lengthAdjust="spacingAndGlyphs" textLength="125" x="588.5" y="22.9951">Notification queue</text><rect fill="#FEFECE" filter="url(#fbh4pt39g6aoy)" height="30.2969" style="stroke: #A80036; stroke-width: 1.5;" width="139" x="581.5" y="436.0234"/><text fill="#000000" font-family="sans-serif" font-size="14" lengthAdjust="spacingAndGlyphs" textLength="125" x="588.5" y="456.0186">Notification queue</text><rect fill="#FEFECE" filter="url(#fbh4pt39g6aoy)" height="30.2969" style="stroke: #A80036; stroke-width: 1.5;" width="120" x="734.5" y="3"/><text fill="#000000" font-family="sans-serif" font-size="14" lengthAdjust="spacingAndGlyphs" textLength="106" x="741.5" y="22.9951">Channel queue</text><rect fill="#FEFECE" filter="url(#fbh4pt39g6aoy)" height="30.2969" style="stroke: #A80036; stroke-width: 1.5;" width="120" x="734.5" y="436.0234"/><text fill="#000000" font-family="sans-serif" font-size="14" lengthAdjust="spacingAndGlyphs" textLength="106" x="741.5" y="456.0186">Channel queue</text><rect fill="#FEFECE" filter="url(#fbh4pt39g6aoy)" height="30.2969" style="stroke: #A80036; stroke-width: 1.5;" width="71" x="868.5" y="3"/><text fill="#000000" font-family="sans-serif" font-size="14" lengthAdjust="spacingAndGlyphs" textLength="57" x="875.5" y="22.9951">Channel</text><rect fill="#FEFECE" filter="url(#fbh4pt39g6aoy)" height="30.2969" style="stroke: #A80036; stroke-width: 1.5;" width="71" x="868.5" y="436.0234"/><text fill="#000000" font-family="sans-serif" font-size="14" lengthAdjust="spacingAndGlyphs" textLength="57" x="875.5" y="456.0186">Channel</text><polygon fill="#A80036" points="211.5,65.2969,221.5,69.2969,211.5,73.2969,215.5,69.2969" style="stroke: #A80036; stroke-width: 1.0;"/><line style="stroke: #A80036; stroke-width: 1.0;" x1="30.5" x2="217.5" y1="69.2969" y2="69.2969"/><text fill="#000000" font-family="sans-serif" font-size="13" lengthAdjust="spacingAndGlyphs" textLength="147" x="37.5" y="64.3638">send message request</text><polygon fill="#A80036" points="345.5,94.4297,355.5,98.4297,345.5,102.4297,349.5,98.4297" style="stroke: #A80036; stroke-width: 1.0;"/><line style="stroke: #A80036; stroke-width: 1.0;" x1="223.5" x2="351.5" y1="98.4297" y2="98.4297"/><text fill="#000000" font-family="sans-serif" font-size="13" lengthAdjust="spacingAndGlyphs" textLength="110" x="230.5" y="93.4966">forward message</text><polygon fill="#A80036" points="517.5,123.5625,527.5,127.5625,517.5,131.5625,521.5,127.5625" style="stroke: #A80036; stroke-width: 1.0;"/><line style="stroke: #A80036; stroke-width: 1.0;" x1="357.5" x2="523.5" y1="127.5625" y2="127.5625"/><text fill="#000000" font-family="sans-serif" font-size="13" lengthAdjust="spacingAndGlyphs" textLength="93" x="364.5" y="122.6294">save message</text><polygon fill="#A80036" points="368.5,152.6953,358.5,156.6953,368.5,160.6953,364.5,156.6953" style="stroke: #A80036; stroke-width: 1.0;"/><line style="stroke: #A80036; stroke-width: 1.0;" x1="362.5" x2="528.5" y1="156.6953" y2="156.6953"/><text fill="#000000" font-family="sans-serif" font-size="13" lengthAdjust="spacingAndGlyphs" textLength="101" x="374.5" y="151.7622">message saved</text><polygon fill="#A80036" points="234.5,181.8281,224.5,185.8281,234.5,189.8281,230.5,185.8281" style="stroke: #A80036; stroke-width: 1.0;"/><line style="stroke: #A80036; stroke-width: 1.0;" x1="228.5" x2="356.5" y1="185.8281" y2="185.8281"/><text fill="#000000" font-family="sans-serif" font-size="13" lengthAdjust="spacingAndGlyphs" textLength="102" x="240.5" y="180.895">return message</text><polygon fill="#A80036" points="41.5,210.9609,31.5,214.9609,41.5,218.9609,37.5,214.9609" style="stroke: #A80036; stroke-width: 1.0;"/><line style="stroke: #A80036; stroke-width: 1.0;" x1="35.5" x2="222.5" y1="214.9609" y2="214.9609"/><text fill="#000000" font-family="sans-serif" font-size="13" lengthAdjust="spacingAndGlyphs" textLength="169" x="47.5" y="210.0278">return queued message id</text><polygon fill="#A80036" points="641,240.0938,651,244.0938,641,248.0938,645,244.0938" style="stroke: #A80036; stroke-width: 1.0;"/><line style="stroke: #A80036; stroke-width: 1.0;" x1="357.5" x2="647" y1="244.0938" y2="244.0938"/><text fill="#000000" font-family="sans-serif" font-size="13" lengthAdjust="spacingAndGlyphs" textLength="183" x="364.5" y="239.1606">map message to notification</text><polygon fill="#A80036" points="368.5,269.2266,358.5,273.2266,368.5,277.2266,364.5,273.2266" style="stroke: #A80036; stroke-width: 1.0;"/><line style="stroke: #A80036; stroke-width: 1.0;" x1="362.5" x2="652" y1="273.2266" y2="273.2266"/><text fill="#000000" font-family="sans-serif" font-size="13" lengthAdjust="spacingAndGlyphs" textLength="171" x="374.5" y="268.2935">trigger notification function</text><polygon fill="#A80036" points="784.5,298.3594,794.5,302.3594,784.5,306.3594,788.5,302.3594" style="stroke: #A80036; stroke-width: 1.0;"/><line style="stroke: #A80036; stroke-width: 1.0;" x1="357.5" x2="790.5" y1="302.3594" y2="302.3594"/><text fill="#000000" font-family="sans-serif" font-size="13" lengthAdjust="spacingAndGlyphs" textLength="199" x="364.5" y="297.4263">dispatch notification to channel</text><polygon fill="#A80036" points="368.5,327.4922,358.5,331.4922,368.5,335.4922,364.5,331.4922" style="stroke: #A80036; stroke-width: 1.0;"/><line style="stroke: #A80036; stroke-width: 1.0;" x1="362.5" x2="795.5" y1="331.4922" y2="331.4922"/><text fill="#000000" font-family="sans-serif" font-size="13" lengthAdjust="spacingAndGlyphs" textLength="151" x="374.5" y="326.5591">trigger channel function</text><polygon fill="#A80036" points="894,356.625,904,360.625,894,364.625,898,360.625" style="stroke: #A80036; stroke-width: 1.0;"/><line style="stroke: #A80036; stroke-width: 1.0;" x1="357.5" x2="900" y1="360.625" y2="360.625"/><text fill="#000000" font-family="sans-serif" font-size="13" lengthAdjust="spacingAndGlyphs" textLength="176" x="364.5" y="355.6919">send notification to channel</text><polygon fill="#A80036" points="368.5,385.7578,358.5,389.7578,368.5,393.7578,364.5,389.7578" style="stroke: #A80036; stroke-width: 1.0;"/><line style="stroke: #A80036; stroke-width: 1.0;" x1="362.5" x2="905" y1="389.7578" y2="389.7578"/><text fill="#000000" font-family="sans-serif" font-size="13" lengthAdjust="spacingAndGlyphs" textLength="157" x="374.5" y="384.8247">return notification status</text><polygon fill="#A80036" points="517.5,414.8906,527.5,418.8906,517.5,422.8906,521.5,418.8906" style="stroke: #A80036; stroke-width: 1.0;"/><line style="stroke: #A80036; stroke-width: 1.0;" x1="357.5" x2="523.5" y1="418.8906" y2="418.8906"/><text fill="#000000" font-family="sans-serif" font-size="13" lengthAdjust="spacingAndGlyphs" textLength="148" x="364.5" y="413.9575">save notification status</text><!--
@startuml
SAS -> "API gateway": send message request
"API gateway" -> "API Functions": forward message
"API Functions" -> "Database": save message
"Database" -> "API Functions": message saved
"API Functions" -> "API gateway": return message
"API gateway" -> "SAS": return queued message id

"API Functions" -> "Notification queue": map message to notification
"Notification queue" -> "API Functions": trigger notification function
"API Functions" -> "Channel queue": dispatch notification to channel
"Channel queue" -> "API Functions": trigger channel function

"API Functions" -> "Channel": send notification to channel
"Channel" -> "API Functions": return notification status
"API Functions" -> "Database": save notification status
@enduml

PlantUML version 1.2017.20beta4(Unknown compile time)
(GPL source distribution)
Java Runtime: Java(TM) SE Runtime Environment
JVM: Java HotSpot(TM) 64-Bit Server VM
Java Version: 1.7.0_25-b15
Operating System: Linux
Default Encoding: UTF-8
Language: en
Country: US
--></g></svg>